<?xml version="1.0" encoding="UTF-8"?>
<svg width="87px" height="96px" viewBox="0 0 87 96" version="1.1" xmlns="http://www.w3.org/2000/svg" xmlns:xlink="http://www.w3.org/1999/xlink">
    <!-- Generator: Sketch 59.1 (86144) - https://sketch.com -->
    <title>ic_Patient companion app to track medical experience</title>
    <desc>Created with Sketch.</desc>
    <defs>
        <linearGradient x1="84.4399491%" y1="79.0834119%" x2="24.4998028%" y2="15.5143916%" id="linearGradient-1">
            <stop stop-color="#21CDB8" stop-opacity="0" offset="0%"></stop>
            <stop stop-color="#29D2BD" stop-opacity="0.116531906" offset="100%"></stop>
        </linearGradient>
        <linearGradient x1="100%" y1="50%" x2="0%" y2="50%" id="linearGradient-2">
            <stop stop-color="#4BE5D3" offset="0%"></stop>
            <stop stop-color="#1BCAB4" offset="100%"></stop>
        </linearGradient>
    </defs>
    <g id="Design" stroke="none" stroke-width="1" fill="none" fill-rule="evenodd">
        <g id="Homepage_V6" transform="translate(-1077.000000, -2604.000000)">
            <g id="End-to-end-precision-medicine-support" transform="translate(155.000000, 2468.000000)">
                <g id="Research-opportunities" transform="translate(799.000000, 132.000000)">
                    <g id="ic_Patient-companion-app-to-track-medical-experience" transform="translate(108.000000, 0.000000)">
                        <rect id="Rectangle" opacity="0.100000001" x="0" y="0" width="116" height="116" rx="16.6666667"></rect>
                        <path d="M65.9702424,6.57796867 L94.4702424,22.9455752 C99.1280203,25.6205463 102,30.5818377 102,35.9530914 L102,68.5510408 C102,73.9222945 99.1280203,78.8835859 94.4702424,81.5585571 L65.9702424,97.9261636 C61.3443746,100.582809 55.6556254,100.582809 51.0297576,97.9261636 L22.5297576,81.5585571 C17.8719797,78.8835859 15,73.9222945 15,68.5510408 L15,35.9530914 C15,30.5818377 17.8719797,25.6205463 22.5297576,22.9455752 L51.0297576,6.57796867 C55.6556254,3.92132367 61.3443746,3.92132367 65.9702424,6.57796867 Z" id="Polygon-Copy-8" fill="url(#linearGradient-1)" transform="translate(58.500000, 52.252066) rotate(180.000000) translate(-58.500000, -52.252066) "></path>
                        <g id="Group-8" transform="translate(19.000000, 18.000000)">
                            <rect id="Rectangle" fill="#0087FF" x="33.6666667" y="56.6666667" width="13.3333333" height="13.3333333"></rect>
                            <rect id="Rectangle-Copy" fill="#0087FF" x="25.3333333" y="66.6666667" width="30" height="3.33333333"></rect>
                            <path d="M10.3333333,10 L70.3333333,10 C72.1742825,10 73.6666667,11.4923842 73.6666667,13.3333333 L73.6666667,56.6666667 C73.6666667,58.5076158 72.1742825,60 70.3333333,60 L10.3333333,60 C8.49238417,60 7,58.5076158 7,56.6666667 L7,13.3333333 C7,11.4923842 8.49238417,10 10.3333333,10 Z" id="Rectangle" fill="url(#linearGradient-2)"></path>
                            <g id="Group-14" transform="translate(0.000000, 18.000000)">
                                <path d="M24.764629,8.62523857 C24.616569,8.60015857 17.6839843,8.62523857 17.6839843,8.62523857 L18.6523142,5.98347867 C19.3204542,4.15890873 18.8878792,1.37299384 17.0339943,0.382553878 C16.4303693,0.0600338902 15.5869993,-0.101941104 14.9070344,0.0692188899 C14.5170844,0.167338886 14.1743794,0.425508876 13.9701094,0.771403863 C13.7352044,1.16921885 13.7594594,1.63358383 13.6758044,2.07468381 C13.4636694,3.19349377 12.9350094,4.25724873 12.1163345,5.0556837 C10.6889745,6.44778865 6.2549297,10.4638885 6.2549297,10.4638885 L6.2549297,25.1736384 L21.5775441,25.1736384 C23.645104,25.1748479 25.000084,22.865948 23.980329,21.0624431 C25.195884,20.2839181 25.611629,18.6440932 24.899709,17.3850332 C26.1153189,16.6065083 26.5310089,14.9666833 25.819089,13.7076234 C27.9164589,12.3643584 27.2152639,9.03971855 24.764629,8.62523857 Z" id="Path" stroke="#F9946B" stroke-width="2" fill="#FFFFFF" stroke-linecap="round" stroke-linejoin="round"></path>
                                <path d="M5.51345286,8.62523857 L1.10271696,8.62523857 C0.496341373,8.62523857 -4.21884749e-13,9.03696855 -4.21884749e-13,9.54456353 L-4.21884749e-13,26.0930179 C-4.21884749e-13,26.6003929 0.494164437,27.0122329 1.10271696,27.0122329 L5.51345286,27.0122329 C6.12200538,27.0122329 6.61616981,26.6003379 6.61616981,26.0930179 L6.61616981,9.54456353 C6.61616981,9.03696855 6.11976247,8.62523857 5.51345286,8.62523857 Z" id="Path" fill="#F9946B"></path>
                            </g>
                            <g id="Group-13" transform="translate(31.000000, 0.000000)">
                                <rect id="Rectangle" stroke="#0087FF" fill="#FFFFFF" x="0.5" y="0.5" width="47" height="25" rx="2"></rect>
                                <line x1="22" y1="8.83333333" x2="40.3333333" y2="8.83333333" id="Path-2" stroke="#26D0BB" stroke-width="2" stroke-linejoin="round"></line>
                                <line x1="22" y1="15" x2="33.3333333" y2="15" id="Path-2-Copy" stroke="#26D0BB" stroke-width="2" stroke-linejoin="round"></line>
                                <rect id="Rectangle" fill="#26D0BB" x="6" y="7" width="10" height="12" rx="1"></rect>
                            </g>
                            <rect id="Rectangle" stroke="#0087FF" fill="#FFFFFF" x="31.5" y="34.5" width="47" height="11" rx="2"></rect>
                        </g>
                    </g>
                </g>
            </g>
        </g>
    </g>
</svg>