<?xml version="1.0" encoding="UTF-8"?>
<svg width="87px" height="97px" viewBox="0 0 87 97" version="1.1" xmlns="http://www.w3.org/2000/svg" xmlns:xlink="http://www.w3.org/1999/xlink">
    <!-- Generator: Sketch 59.1 (86144) - https://sketch.com -->
    <title>ic_Genetic test to predict drug response</title>
    <desc>Created with Sketch.</desc>
    <defs>
        <linearGradient x1="84.4399491%" y1="79.0834119%" x2="24.4998028%" y2="15.5143916%" id="linearGradient-1">
            <stop stop-color="#21CDB8" stop-opacity="0" offset="0%"></stop>
            <stop stop-color="#29D2BD" stop-opacity="0.116531906" offset="100%"></stop>
        </linearGradient>
        <linearGradient x1="100%" y1="50%" x2="0%" y2="50%" id="linearGradient-2">
            <stop stop-color="#4BE5D3" offset="0%"></stop>
            <stop stop-color="#1BCAB4" offset="100%"></stop>
        </linearGradient>
    </defs>
    <g id="Design" stroke="none" stroke-width="1" fill="none" fill-rule="evenodd">
        <g id="Homepage_V6" transform="translate(-275.000000, -2613.000000)">
            <g id="End-to-end-precision-medicine-support" transform="translate(155.000000, 2468.000000)">
                <g id="Track-medication" transform="translate(0.000000, 132.000000)">
                    <g id="ic_Genetic-test-to-predict-drug-response" transform="translate(106.000000, 0.000000)">
                        <rect id="Rectangle" x="0" y="0" width="118" height="118" rx="16.6666667"></rect>
                        <path d="M64.9702424,15.8259026 L93.4702424,32.193509 C98.1280203,34.8684802 101,39.8297716 101,45.2010253 L101,77.7989747 C101,83.1702284 98.1280203,88.1315198 93.4702424,90.806491 L64.9702424,107.174097 C60.3443746,109.830742 54.6556254,109.830742 50.0297576,107.174097 L21.5297576,90.806491 C16.8719797,88.1315198 14,83.1702284 14,77.7989747 L14,45.2010253 C14,39.8297716 16.8719797,34.8684802 21.5297576,32.193509 L50.0297576,15.8259026 C54.6556254,13.1692576 60.3443746,13.1692576 64.9702424,15.8259026 Z" id="Polygon-Copy-8" fill="url(#linearGradient-1)" transform="translate(57.500000, 61.500000) rotate(180.000000) translate(-57.500000, -61.500000) "></path>
                        <g id="Group-10" transform="translate(79.000000, 43.666667)">
                            <path d="M13.5,0 C14.8807119,-2.53632657e-16 16,1.11928813 16,2.5 C16,3.88071187 14.8807119,5 13.5,5 L13,5 L13,25 C13,27.7614237 10.7614237,30 8,30 C5.23857625,30 3,27.7614237 3,25 L3,5 L2.5,5 C1.11928813,5 1.69088438e-16,3.88071187 0,2.5 C-1.69088438e-16,1.11928813 1.11928813,2.53632657e-16 2.5,0 L13.5,0 Z" id="Combined-Shape" stroke="#0087FF" stroke-width="1.18800004"></path>
                            <path d="M5,5 L11,5 L11,25 C11,26.6568542 9.65685425,28 8,28 C6.34314575,28 5,26.6568542 5,25 L5,5 L5,5 Z" id="Rectangle" fill="#F9946B"></path>
                        </g>
                        <g id="Group-10-Copy" transform="translate(59.000000, 43.666667)">
                            <path d="M13.5,0 C14.8807119,-2.53632657e-16 16,1.11928813 16,2.5 C16,3.88071187 14.8807119,5 13.5,5 L13,5 L13,25 C13,27.7614237 10.7614237,30 8,30 C5.23857625,30 3,27.7614237 3,25 L3,5 L2.5,5 C1.11928813,5 1.69088438e-16,3.88071187 0,2.5 C-1.69088438e-16,1.11928813 1.11928813,2.53632657e-16 2.5,0 L13.5,0 Z" id="Combined-Shape" stroke="#0087FF" stroke-width="1.18800004"></path>
                            <path d="M5,5 L11,5 L11,25 C11,26.6568542 9.65685425,28 8,28 C6.34314575,28 5,26.6568542 5,25 L5,5 L5,5 Z" id="Rectangle" fill="#F9946B"></path>
                        </g>
                        <path d="M60.3333333,61.6666667 L98.3333333,61.6666667 L98.3333333,75.6666667 C98.3333333,78.9803752 95.6470418,81.6666667 92.3333333,81.6666667 L66.3333333,81.6666667 C63.0196248,81.6666667 60.3333333,78.9803752 60.3333333,75.6666667 L60.3333333,61.6666667 L60.3333333,61.6666667 Z" id="Rectangle" stroke="#0087FF" fill="#FFFFFF"></path>
                        <g id="Group-8-Copy-2" transform="translate(14.000000, 13.000000)">
                            <path d="M28.4905545,6.22590453 L28.4905545,39.6946963 L4.65565926,77.0970264 C3.24524551,79.3102839 3.89607897,82.2478499 6.10933647,83.6582637 C6.87235711,84.1445039 7.7583347,84.4028066 8.66311647,84.4028066 L61.2983882,84.4028066 C63.9228454,84.4028066 66.0503884,82.2752637 66.0503884,79.6508064 C66.0503884,78.7257187 65.7803711,77.8207458 65.2734609,77.0469051 L40.8056151,39.6946963 L40.8056151,39.6946963 L40.8056151,6.22590453 L42.3145242,6.22590453 C44.0337603,6.22590453 45.4274765,4.83218833 45.4274765,3.11295226 C45.4274765,1.3937162 44.0337603,5.72359879e-16 42.3145242,0 L27.1336099,0 C25.4143738,-2.34871672e-15 24.0206576,1.3937162 24.0206576,3.11295226 C24.0206576,4.83218833 25.4143738,6.22590453 27.1336099,6.22590453 L28.4905545,6.22590453 L28.4905545,6.22590453 Z" id="Path-116-Copy" fill="url(#linearGradient-2)"></path>
                            <path d="M19.1274439,61.37515 C29.8730581,65.2153867 35.7189764,56.6934478 47.4059073,57.2911313 L58.2686287,74.1783751 C58.5095721,74.5529597 58.6403794,74.987725 58.6461281,75.4330723 C58.6630653,76.7451916 57.6131128,77.8226048 56.3009935,77.8395421 L56.3009935,77.8395421 L12.6973308,78.4023914 C12.2371565,78.4083315 11.7851607,78.2805026 11.3962567,78.0344348 C10.2873542,77.3328086 9.9571916,75.8650851 10.6588178,74.7561827 L10.6588178,74.7561827 Z" id="Combined-Shape" fill="#FFFFFF"></path>
                            <ellipse id="Oval" fill="#37DAC6" cx="45.1439998" cy="67.7599997" rx="3.56399998" ry="3.56631577"></ellipse>
                            <ellipse id="Oval-Copy-11" fill="#FFFFFF" cx="34.4519998" cy="51.1171927" rx="2.37599999" ry="2.37754385"></ellipse>
                            <ellipse id="Oval-Copy-12" fill="#2FD5C1" cx="27.376" cy="62.3775438" rx="2.37599999" ry="2.37754385"></ellipse>
                            <ellipse id="Oval-Copy-10" fill="#FFFFFF" cx="34.4519998" cy="40.4182454" rx="1.18799999" ry="1.18877192"></ellipse>
                        </g>
                    </g>
                </g>
            </g>
        </g>
    </g>
</svg>