<svg width="570" height="70" viewBox="0 0 570 70" fill="none" xmlns="http://www.w3.org/2000/svg">
<rect x="1" y="1" width="568" height="68" rx="5" stroke="white" stroke-width="2"/>
<path d="M19.608 21.824L17 13.712H19.416L20.12 16.384C20.2907 17.056 20.4347 17.664 20.552 18.208C20.6693 18.7413 20.7387 19.1093 20.76 19.312L20.808 19.616C20.8827 18.976 21.144 17.8987 21.592 16.384L22.376 13.712H24.392L25.16 16.384C25.352 17.0667 25.512 17.68 25.64 18.224C25.768 18.7573 25.848 19.1253 25.88 19.328L25.928 19.616C26.0027 18.9867 26.2533 17.9093 26.68 16.384L27.432 13.712H29.736L27.144 21.824H24.744L24.04 19.168C23.8907 18.592 23.7573 18.0533 23.64 17.552C23.5333 17.0507 23.464 16.6933 23.432 16.48L23.384 16.16C23.2773 16.8747 23.0533 17.8773 22.712 19.168L22.008 21.824H19.608Z" fill="white"/>
<path d="M34.3546 21.952C33.0853 21.952 32.104 21.5733 31.4106 20.816C30.7173 20.048 30.3706 19.0667 30.3706 17.872C30.3706 16.624 30.7333 15.6 31.4586 14.8C32.184 13.9893 33.1493 13.584 34.3546 13.584C35.6133 13.584 36.5893 13.9733 37.2826 14.752C37.976 15.5307 38.3226 16.5227 38.3226 17.728C38.3226 18.9547 37.9706 19.968 37.2666 20.768C36.5733 21.5573 35.6026 21.952 34.3546 21.952ZM34.3386 15.424C33.8266 15.424 33.4426 15.6427 33.1866 16.08C32.9306 16.5173 32.8026 17.0827 32.8026 17.776C32.8026 18.4693 32.9306 19.04 33.1866 19.488C33.4533 19.9253 33.848 20.144 34.3706 20.144C34.8826 20.144 35.2613 19.9307 35.5066 19.504C35.7626 19.0667 35.8906 18.5013 35.8906 17.808C35.8906 16.2187 35.3733 15.424 34.3386 15.424Z" fill="white"/>
<path d="M47.4807 21.824H44.7768L42.1847 17.84V21.824H39.8487V10.784H42.1847V17.344L44.7448 13.712H47.4328L44.6168 17.6L47.4807 21.824Z" fill="white"/>
<path d="M48.6944 21.824V13.712H51.0304V21.824H48.6944ZM48.9024 12.32C48.6357 12.0533 48.5024 11.7333 48.5024 11.36C48.5024 10.9867 48.6357 10.6667 48.9024 10.4C49.169 10.1333 49.489 10 49.8624 10C50.2357 10 50.5557 10.1333 50.8224 10.4C51.089 10.6667 51.2224 10.9867 51.2224 11.36C51.2224 11.7333 51.089 12.0533 50.8224 12.32C50.5557 12.5867 50.2357 12.72 49.8624 12.72C49.489 12.72 49.169 12.5867 48.9024 12.32Z" fill="white"/>
<path d="M57.7243 17.024V16.832C57.6496 15.8827 57.2336 15.408 56.4762 15.408C56.1029 15.408 55.7722 15.5467 55.4842 15.824C55.1963 16.0907 55.0042 16.4907 54.9082 17.024H57.7243ZM59.4043 19.408V21.36C58.8496 21.7227 58.0016 21.904 56.8602 21.904C55.5269 21.904 54.4869 21.52 53.7402 20.752C53.0042 19.9733 52.6362 18.976 52.6362 17.76C52.6362 16.4693 52.9936 15.4613 53.7083 14.736C54.4336 14 55.3242 13.632 56.3802 13.632C57.4683 13.632 58.3269 13.952 58.9562 14.592C59.5856 15.2213 59.9002 16.1653 59.9002 17.424C59.9002 17.6693 59.8576 18.0907 59.7723 18.688H55.0042C55.1642 19.136 55.4416 19.4827 55.8363 19.728C56.2309 19.9733 56.7056 20.096 57.2603 20.096C58.0816 20.096 58.7962 19.8667 59.4043 19.408Z" fill="white"/>
<path d="M66.2555 17.024V16.832C66.1808 15.8827 65.7648 15.408 65.0075 15.408C64.6342 15.408 64.3035 15.5467 64.0155 15.824C63.7275 16.0907 63.5355 16.4907 63.4395 17.024H66.2555ZM67.9355 19.408V21.36C67.3808 21.7227 66.5328 21.904 65.3915 21.904C64.0582 21.904 63.0182 21.52 62.2715 20.752C61.5355 19.9733 61.1675 18.976 61.1675 17.76C61.1675 16.4693 61.5248 15.4613 62.2395 14.736C62.9648 14 63.8555 13.632 64.9115 13.632C65.9995 13.632 66.8582 13.952 67.4875 14.592C68.1168 15.2213 68.4315 16.1653 68.4315 17.424C68.4315 17.6693 68.3888 18.0907 68.3035 18.688H63.5355C63.6955 19.136 63.9728 19.4827 64.3675 19.728C64.7622 19.9733 65.2368 20.096 65.7915 20.096C66.6128 20.096 67.3275 19.8667 67.9355 19.408Z" fill="white"/>
<path d="M263.802 14.2601H265.072V21.0001H263.802V18.1701H261.032V21.0001H259.772V14.2601H261.032V17.0801H263.802V14.2601Z" fill="white"/>
<path d="M266.201 17.6101C266.201 16.5635 266.488 15.7235 267.061 15.0901C267.641 14.4568 268.415 14.1401 269.381 14.1401C270.361 14.1401 271.138 14.4568 271.711 15.0901C272.285 15.7168 272.571 16.5568 272.571 17.6101C272.571 18.6501 272.281 19.4868 271.701 20.1201C271.128 20.7535 270.358 21.0701 269.391 21.0701C268.425 21.0701 267.651 20.7535 267.071 20.1201C266.491 19.4868 266.201 18.6501 266.201 17.6101ZM267.551 17.6101C267.551 18.3168 267.718 18.8768 268.051 19.2901C268.385 19.7035 268.831 19.9101 269.391 19.9101C269.958 19.9101 270.405 19.7068 270.731 19.3001C271.058 18.8868 271.221 18.3235 271.221 17.6101C271.221 16.8968 271.058 16.3335 270.731 15.9201C270.405 15.5068 269.955 15.3001 269.381 15.3001C268.815 15.3001 268.368 15.5068 268.041 15.9201C267.715 16.3335 267.551 16.8968 267.551 17.6101Z" fill="white"/>
<path d="M273.578 21.0001L274.118 14.2601H275.558L276.478 16.7101C276.638 17.1235 276.788 17.5368 276.928 17.9501C277.068 18.3568 277.168 18.6601 277.228 18.8601L277.318 19.1701C277.525 18.4768 277.811 17.6568 278.178 16.7101L279.118 14.2601H280.558L281.218 21.0001H279.958L279.718 18.3701L279.538 16.0101C279.298 16.6968 279.011 17.4835 278.678 18.3701L277.738 20.9001H276.878L275.958 18.3701L275.168 16.0401C275.168 16.3668 275.125 17.1435 275.038 18.3701L274.838 21.0001H273.578Z" fill="white"/>
<path d="M283.767 19.9701H286.517V21.0001H282.497V14.2601H286.477V15.2901H283.767V17.1201H286.177V18.1401H283.767V19.9701Z" fill="white"/>
<path d="M301.452 14.5401V15.7601C300.952 15.4601 300.419 15.3101 299.852 15.3101C299.539 15.3101 299.292 15.3801 299.112 15.5201C298.939 15.6601 298.852 15.8401 298.852 16.0601C298.852 16.2801 298.945 16.4635 299.132 16.6101C299.325 16.7501 299.612 16.9068 299.992 17.0801C300.259 17.2001 300.475 17.3068 300.642 17.4001C300.809 17.4868 300.989 17.6101 301.182 17.7701C301.382 17.9301 301.529 18.1235 301.622 18.3501C301.722 18.5701 301.772 18.8235 301.772 19.1101C301.772 19.7101 301.555 20.1901 301.122 20.5501C300.695 20.9035 300.132 21.0801 299.432 21.0801C298.672 21.0801 298.042 20.9368 297.542 20.6501V19.3601C298.115 19.7735 298.742 19.9801 299.422 19.9801C299.729 19.9801 299.975 19.9068 300.162 19.7601C300.349 19.6068 300.442 19.4035 300.442 19.1501C300.442 19.0301 300.419 18.9235 300.372 18.8301C300.325 18.7368 300.229 18.6435 300.082 18.5501C299.942 18.4568 299.832 18.3901 299.752 18.3501C299.679 18.3101 299.522 18.2368 299.282 18.1301C299.215 18.0968 299.165 18.0735 299.132 18.0601C298.885 17.9468 298.685 17.8468 298.532 17.7601C298.379 17.6668 298.212 17.5435 298.032 17.3901C297.852 17.2368 297.715 17.0535 297.622 16.8401C297.535 16.6268 297.492 16.3835 297.492 16.1101C297.492 15.5368 297.702 15.0768 298.122 14.7301C298.549 14.3835 299.112 14.2101 299.812 14.2101C300.445 14.2101 300.992 14.3201 301.452 14.5401Z" fill="white"/>
<path d="M306.908 14.2601H308.178V21.0001H306.908V18.1701H304.138V21.0001H302.878V14.2601H304.138V17.0801H306.908V14.2601Z" fill="white"/>
<path d="M309.307 17.6101C309.307 16.5635 309.594 15.7235 310.167 15.0901C310.747 14.4568 311.52 14.1401 312.487 14.1401C313.467 14.1401 314.244 14.4568 314.817 15.0901C315.39 15.7168 315.677 16.5568 315.677 17.6101C315.677 18.6501 315.387 19.4868 314.807 20.1201C314.234 20.7535 313.464 21.0701 312.497 21.0701C311.53 21.0701 310.757 20.7535 310.177 20.1201C309.597 19.4868 309.307 18.6501 309.307 17.6101ZM310.657 17.6101C310.657 18.3168 310.824 18.8768 311.157 19.2901C311.49 19.7035 311.937 19.9101 312.497 19.9101C313.064 19.9101 313.51 19.7068 313.837 19.3001C314.164 18.8868 314.327 18.3235 314.327 17.6101C314.327 16.8968 314.164 16.3335 313.837 15.9201C313.51 15.5068 313.06 15.3001 312.487 15.3001C311.92 15.3001 311.474 15.5068 311.147 15.9201C310.82 16.3335 310.657 16.8968 310.657 17.6101Z" fill="white"/>
<path d="M318.063 17.6901H318.773C319.233 17.6901 319.577 17.5801 319.803 17.3601C320.03 17.1401 320.143 16.8435 320.143 16.4701C320.143 16.1035 320.03 15.8168 319.803 15.6101C319.577 15.3968 319.243 15.2901 318.803 15.2901H318.063V17.6901ZM316.803 14.2601H318.913C319.673 14.2601 320.28 14.4668 320.733 14.8801C321.193 15.2935 321.423 15.8235 321.423 16.4701C321.423 17.1568 321.187 17.7035 320.713 18.1101C320.247 18.5101 319.657 18.7101 318.943 18.7101H318.063V21.0001H316.803V14.2601Z" fill="white"/>
<path d="M333.542 19.9701H334.622C335.429 19.9701 335.832 19.6635 335.832 19.0501C335.832 18.4235 335.412 18.1101 334.572 18.1101H333.542V19.9701ZM333.542 15.2901V17.1001H334.302C334.755 17.1001 335.095 17.0101 335.322 16.8301C335.549 16.6501 335.662 16.4201 335.662 16.1401C335.662 15.8801 335.565 15.6735 335.372 15.5201C335.185 15.3668 334.899 15.2901 334.512 15.2901H333.542ZM332.282 14.2601H334.672C335.392 14.2601 335.952 14.4301 336.352 14.7701C336.752 15.1101 336.952 15.5501 336.952 16.0901C336.952 16.4568 336.852 16.7768 336.652 17.0501C336.452 17.3168 336.195 17.4935 335.882 17.5801C336.242 17.6668 336.539 17.8435 336.772 18.1101C337.005 18.3701 337.122 18.7268 337.122 19.1801C337.122 19.7135 336.935 20.1501 336.562 20.4901C336.189 20.8301 335.672 21.0001 335.012 21.0001H332.282V14.2601Z" fill="white"/>
<path d="M339.46 19.8801H342.09V21.0001H338.2V14.2601H339.46V19.8801Z" fill="white"/>
<path d="M342.774 17.6101C342.774 16.5635 343.06 15.7235 343.634 15.0901C344.214 14.4568 344.987 14.1401 345.954 14.1401C346.934 14.1401 347.71 14.4568 348.284 15.0901C348.857 15.7168 349.144 16.5568 349.144 17.6101C349.144 18.6501 348.854 19.4868 348.274 20.1201C347.7 20.7535 346.93 21.0701 345.964 21.0701C344.997 21.0701 344.224 20.7535 343.644 20.1201C343.064 19.4868 342.774 18.6501 342.774 17.6101ZM344.124 17.6101C344.124 18.3168 344.29 18.8768 344.624 19.2901C344.957 19.7035 345.404 19.9101 345.964 19.9101C346.53 19.9101 346.977 19.7068 347.304 19.3001C347.63 18.8868 347.794 18.3235 347.794 17.6101C347.794 16.8968 347.63 16.3335 347.304 15.9201C346.977 15.5068 346.527 15.3001 345.954 15.3001C345.387 15.3001 344.94 15.5068 344.614 15.9201C344.287 16.3335 344.124 16.8968 344.124 17.6101Z" fill="white"/>
<path d="M355.87 17.0701V20.3101H355.86L355.87 20.4201C355.257 20.8601 354.49 21.0801 353.57 21.0801C352.504 21.0801 351.64 20.7701 350.98 20.1501C350.327 19.5301 350 18.6868 350 17.6201C350 16.5801 350.337 15.7401 351.01 15.1001C351.69 14.4601 352.547 14.1401 353.58 14.1401C354.347 14.1401 355.004 14.2835 355.55 14.5701V15.8601C354.937 15.4935 354.287 15.3101 353.6 15.3101C352.927 15.3101 352.384 15.5201 351.97 15.9401C351.557 16.3601 351.35 16.9201 351.35 17.6201C351.35 18.3335 351.55 18.8968 351.95 19.3101C352.357 19.7168 352.914 19.9201 353.62 19.9201C353.967 19.9201 354.304 19.8601 354.63 19.7401V18.1501H353.39V17.0701H355.87Z" fill="white"/>
<path d="M368.386 17.6901H369.096C369.556 17.6901 369.899 17.5801 370.126 17.3601C370.352 17.1401 370.466 16.8435 370.466 16.4701C370.466 16.1035 370.352 15.8168 370.126 15.6101C369.899 15.3968 369.566 15.2901 369.126 15.2901H368.386V17.6901ZM367.126 14.2601H369.236C369.996 14.2601 370.602 14.4668 371.056 14.8801C371.516 15.2935 371.746 15.8235 371.746 16.4701C371.746 17.1568 371.509 17.7035 371.036 18.1101C370.569 18.5101 369.979 18.7101 369.266 18.7101H368.386V21.0001H367.126V14.2601Z" fill="white"/>
<path d="M372.412 17.6101C372.412 16.5635 372.699 15.7235 373.272 15.0901C373.852 14.4568 374.626 14.1401 375.592 14.1401C376.572 14.1401 377.349 14.4568 377.922 15.0901C378.496 15.7168 378.782 16.5568 378.782 17.6101C378.782 18.6501 378.492 19.4868 377.912 20.1201C377.339 20.7535 376.569 21.0701 375.602 21.0701C374.636 21.0701 373.862 20.7535 373.282 20.1201C372.702 19.4868 372.412 18.6501 372.412 17.6101ZM373.762 17.6101C373.762 18.3168 373.929 18.8768 374.262 19.2901C374.596 19.7035 375.042 19.9101 375.602 19.9101C376.169 19.9101 376.616 19.7068 376.942 19.3001C377.269 18.8868 377.432 18.3235 377.432 17.6101C377.432 16.8968 377.269 16.3335 376.942 15.9201C376.616 15.5068 376.166 15.3001 375.592 15.3001C375.026 15.3001 374.579 15.5068 374.252 15.9201C373.926 16.3335 373.762 16.8968 373.762 17.6101Z" fill="white"/>
<path d="M381.169 15.3001V17.5001H382.009C382.396 17.5001 382.686 17.4035 382.879 17.2101C383.072 17.0101 383.169 16.7335 383.169 16.3801C383.169 16.0335 383.066 15.7668 382.859 15.5801C382.659 15.3935 382.369 15.3001 381.989 15.3001H381.169ZM383.389 21.0001L381.859 18.5401H381.169V21.0001H379.909V14.2601H381.989C382.756 14.2601 383.356 14.4535 383.789 14.8401C384.229 15.2268 384.449 15.7435 384.449 16.3901C384.442 16.8701 384.326 17.2768 384.099 17.6101C383.872 17.9368 383.562 18.1801 383.169 18.3401L384.899 21.0001H383.389Z" fill="white"/>
<path d="M390.048 14.2601V15.3001H388.338V21.0001H387.068V15.3001H385.358V14.2601H390.048Z" fill="white"/>
<path d="M394.943 15.2901H392.263V17.2801H394.603V18.3101H392.263V21.0001H390.993V14.2601H394.943V15.2901Z" fill="white"/>
<path d="M395.713 17.6101C395.713 16.5635 396 15.7235 396.573 15.0901C397.153 14.4568 397.926 14.1401 398.893 14.1401C399.873 14.1401 400.65 14.4568 401.223 15.0901C401.796 15.7168 402.083 16.5568 402.083 17.6101C402.083 18.6501 401.793 19.4868 401.213 20.1201C400.64 20.7535 399.87 21.0701 398.903 21.0701C397.936 21.0701 397.163 20.7535 396.583 20.1201C396.003 19.4868 395.713 18.6501 395.713 17.6101ZM397.063 17.6101C397.063 18.3168 397.23 18.8768 397.563 19.2901C397.896 19.7035 398.343 19.9101 398.903 19.9101C399.47 19.9101 399.916 19.7068 400.243 19.3001C400.57 18.8868 400.733 18.3235 400.733 17.6101C400.733 16.8968 400.57 16.3335 400.243 15.9201C399.916 15.5068 399.466 15.3001 398.893 15.3001C398.326 15.3001 397.88 15.5068 397.553 15.9201C397.227 16.3335 397.063 16.8968 397.063 17.6101Z" fill="white"/>
<path d="M404.47 19.8801H407.1V21.0001H403.21V14.2601H404.47V19.8801Z" fill="white"/>
<path d="M408.133 21.0001V14.2601H409.393V21.0001H408.133Z" fill="white"/>
<path d="M410.606 17.6101C410.606 16.5635 410.892 15.7235 411.466 15.0901C412.046 14.4568 412.819 14.1401 413.786 14.1401C414.766 14.1401 415.542 14.4568 416.116 15.0901C416.689 15.7168 416.976 16.5568 416.976 17.6101C416.976 18.6501 416.686 19.4868 416.106 20.1201C415.532 20.7535 414.762 21.0701 413.796 21.0701C412.829 21.0701 412.056 20.7535 411.476 20.1201C410.896 19.4868 410.606 18.6501 410.606 17.6101ZM411.956 17.6101C411.956 18.3168 412.122 18.8768 412.456 19.2901C412.789 19.7035 413.236 19.9101 413.796 19.9101C414.362 19.9101 414.809 19.7068 415.136 19.3001C415.462 18.8868 415.626 18.3235 415.626 17.6101C415.626 16.8968 415.462 16.3335 415.136 15.9201C414.809 15.5068 414.359 15.3001 413.786 15.3001C413.219 15.3001 412.772 15.5068 412.446 15.9201C412.119 16.3335 411.956 16.8968 411.956 17.6101Z" fill="white"/>
<path d="M432.934 14.5401V15.7701C432.428 15.4768 431.867 15.3301 431.254 15.3301C430.641 15.3301 430.128 15.5401 429.714 15.9601C429.308 16.3735 429.104 16.9301 429.104 17.6301C429.104 18.3301 429.308 18.8868 429.714 19.3001C430.128 19.7135 430.664 19.9201 431.324 19.9201C431.958 19.9201 432.497 19.7535 432.944 19.4201V20.6801C432.531 20.9468 431.951 21.0801 431.204 21.0801C430.204 21.0801 429.378 20.7668 428.724 20.1401C428.077 19.5068 427.754 18.6701 427.754 17.6301C427.754 16.6101 428.074 15.7801 428.714 15.1401C429.361 14.4935 430.191 14.1701 431.204 14.1701C431.944 14.1701 432.521 14.2935 432.934 14.5401Z" fill="white"/>
<path d="M433.848 17.6101C433.848 16.5635 434.135 15.7235 434.708 15.0901C435.288 14.4568 436.061 14.1401 437.028 14.1401C438.008 14.1401 438.785 14.4568 439.358 15.0901C439.931 15.7168 440.218 16.5568 440.218 17.6101C440.218 18.6501 439.928 19.4868 439.348 20.1201C438.775 20.7535 438.005 21.0701 437.038 21.0701C436.071 21.0701 435.298 20.7535 434.718 20.1201C434.138 19.4868 433.848 18.6501 433.848 17.6101ZM435.198 17.6101C435.198 18.3168 435.365 18.8768 435.698 19.2901C436.031 19.7035 436.478 19.9101 437.038 19.9101C437.605 19.9101 438.051 19.7068 438.378 19.3001C438.705 18.8868 438.868 18.3235 438.868 17.6101C438.868 16.8968 438.705 16.3335 438.378 15.9201C438.051 15.5068 437.601 15.3001 437.028 15.3001C436.461 15.3001 436.015 15.5068 435.688 15.9201C435.361 16.3335 435.198 16.8968 435.198 17.6101Z" fill="white"/>
<path d="M441.344 21.0001V14.2601H442.774L444.394 17.0701C444.661 17.5301 444.898 17.9601 445.104 18.3601C445.318 18.7535 445.461 19.0335 445.534 19.2001L445.644 19.4501C445.591 18.8968 445.564 18.1035 445.564 17.0701V14.2601H446.834V21.0001H445.394L443.754 18.2001C443.494 17.7601 443.258 17.3401 443.044 16.9401C442.838 16.5335 442.694 16.2401 442.614 16.0601L442.494 15.7801C442.568 16.4135 442.604 17.2168 442.604 18.1901V21.0001H441.344Z" fill="white"/>
<path d="M452.479 14.2601V15.3001H450.769V21.0001H449.499V15.3001H447.789V14.2601H452.479Z" fill="white"/>
<path d="M455.135 18.4401H457.035L456.945 18.1401C456.718 17.4201 456.531 16.8168 456.385 16.3301C456.245 15.8368 456.158 15.5268 456.125 15.4001L456.085 15.2001C456.025 15.5335 455.738 16.5168 455.225 18.1501L455.135 18.4401ZM457.835 21.0001L457.355 19.4701H454.805L454.325 21.0001H453.005L455.285 14.2601H456.915L459.195 21.0001H457.835Z" fill="white"/>
<path d="M465.073 14.5401V15.7701C464.566 15.4768 464.006 15.3301 463.393 15.3301C462.78 15.3301 462.266 15.5401 461.853 15.9601C461.446 16.3735 461.243 16.9301 461.243 17.6301C461.243 18.3301 461.446 18.8868 461.853 19.3001C462.266 19.7135 462.803 19.9201 463.463 19.9201C464.096 19.9201 464.636 19.7535 465.083 19.4201V20.6801C464.67 20.9468 464.09 21.0801 463.343 21.0801C462.343 21.0801 461.516 20.7668 460.863 20.1401C460.216 19.5068 459.893 18.6701 459.893 17.6301C459.893 16.6101 460.213 15.7801 460.853 15.1401C461.5 14.4935 462.329 14.1701 463.343 14.1701C464.083 14.1701 464.66 14.2935 465.073 14.5401Z" fill="white"/>
<path d="M470.507 14.2601V15.3001H468.797V21.0001H467.527V15.3001H465.817V14.2601H470.507Z" fill="white"/>
<path d="M475.202 14.5401V15.7601C474.702 15.4601 474.169 15.3101 473.602 15.3101C473.289 15.3101 473.042 15.3801 472.862 15.5201C472.689 15.6601 472.602 15.8401 472.602 16.0601C472.602 16.2801 472.695 16.4635 472.882 16.6101C473.075 16.7501 473.362 16.9068 473.742 17.0801C474.009 17.2001 474.225 17.3068 474.392 17.4001C474.559 17.4868 474.739 17.6101 474.932 17.7701C475.132 17.9301 475.279 18.1235 475.372 18.3501C475.472 18.5701 475.522 18.8235 475.522 19.1101C475.522 19.7101 475.305 20.1901 474.872 20.5501C474.445 20.9035 473.882 21.0801 473.182 21.0801C472.422 21.0801 471.792 20.9368 471.292 20.6501V19.3601C471.865 19.7735 472.492 19.9801 473.172 19.9801C473.479 19.9801 473.725 19.9068 473.912 19.7601C474.099 19.6068 474.192 19.4035 474.192 19.1501C474.192 19.0301 474.169 18.9235 474.122 18.8301C474.075 18.7368 473.979 18.6435 473.832 18.5501C473.692 18.4568 473.582 18.3901 473.502 18.3501C473.429 18.3101 473.272 18.2368 473.032 18.1301C472.965 18.0968 472.915 18.0735 472.882 18.0601C472.635 17.9468 472.435 17.8468 472.282 17.7601C472.129 17.6668 471.962 17.5435 471.782 17.3901C471.602 17.2368 471.465 17.0535 471.372 16.8401C471.285 16.6268 471.242 16.3835 471.242 16.1101C471.242 15.5368 471.452 15.0768 471.872 14.7301C472.299 14.3835 472.862 14.2101 473.562 14.2101C474.195 14.2101 474.742 14.3201 475.202 14.5401Z" fill="white"/>
<path d="M503.004 19.2305L504.637 20.8633C504.694 20.9206 504.737 20.9814 504.766 21.0459C504.794 21.1104 504.809 21.1784 504.809 21.25C504.809 21.3288 504.794 21.4004 504.766 21.4648C504.737 21.5293 504.694 21.5866 504.637 21.6367C504.615 21.6654 504.587 21.6904 504.551 21.7119C504.522 21.7334 504.493 21.7513 504.465 21.7656C504.429 21.7799 504.393 21.7907 504.357 21.7979C504.322 21.805 504.286 21.8086 504.25 21.8086C504.221 21.8086 504.189 21.805 504.153 21.7979C504.118 21.7907 504.082 21.7799 504.046 21.7656C504.01 21.7513 503.978 21.7334 503.949 21.7119C503.921 21.6904 503.892 21.6654 503.863 21.6367L502.23 20.0039C502.066 20.1257 501.89 20.2367 501.704 20.3369C501.525 20.43 501.339 20.5088 501.146 20.5732C500.945 20.6449 500.741 20.6986 500.533 20.7344C500.326 20.763 500.114 20.7773 499.899 20.7773C499.627 20.7773 499.366 20.7523 499.115 20.7021C498.865 20.652 498.621 20.5768 498.385 20.4766C498.148 20.3763 497.926 20.2581 497.719 20.1221C497.511 19.9788 497.318 19.8177 497.139 19.6387C496.967 19.4668 496.809 19.277 496.666 19.0693C496.53 18.8617 496.412 18.6396 496.312 18.4033C496.211 18.167 496.132 17.9235 496.075 17.6729C496.025 17.4222 496 17.1644 496 16.8994C496 16.6273 496.025 16.3659 496.075 16.1152C496.132 15.8646 496.211 15.6211 496.312 15.3848C496.412 15.1484 496.53 14.9264 496.666 14.7188C496.809 14.5111 496.967 14.3177 497.139 14.1387C497.318 13.9668 497.511 13.8128 497.719 13.6768C497.926 13.5335 498.148 13.4118 498.385 13.3115C498.621 13.2113 498.865 13.1361 499.115 13.0859C499.366 13.0286 499.627 13 499.899 13C500.164 13 500.422 13.0286 500.673 13.0859C500.924 13.1361 501.167 13.2113 501.403 13.3115C501.64 13.4118 501.862 13.5335 502.069 13.6768C502.277 13.8128 502.467 13.9668 502.639 14.1387C502.818 14.3177 502.975 14.5111 503.111 14.7188C503.255 14.9264 503.376 15.1484 503.477 15.3848C503.577 15.6211 503.652 15.8646 503.702 16.1152C503.752 16.3659 503.777 16.6273 503.777 16.8994C503.777 17.1143 503.759 17.3255 503.724 17.5332C503.695 17.7409 503.645 17.945 503.573 18.1455C503.509 18.3389 503.426 18.5286 503.326 18.7148C503.233 18.8939 503.126 19.0658 503.004 19.2305ZM500.984 19.4668C501.149 19.388 501.303 19.3021 501.446 19.209C501.597 19.1087 501.736 18.9941 501.865 18.8652C501.994 18.7363 502.105 18.6003 502.198 18.457C502.299 18.3066 502.388 18.1491 502.467 17.9844C502.538 17.8125 502.592 17.637 502.628 17.458C502.664 17.279 502.682 17.0928 502.682 16.8994C502.682 16.7061 502.664 16.5199 502.628 16.3408C502.592 16.1546 502.538 15.9756 502.467 15.8037C502.388 15.639 502.299 15.4814 502.198 15.3311C502.105 15.1807 501.994 15.0446 501.865 14.9229C501.736 14.7939 501.597 14.6794 501.446 14.5791C501.303 14.4788 501.149 14.3929 500.984 14.3213C500.812 14.2497 500.637 14.196 500.458 14.1602C500.279 14.1243 500.093 14.1064 499.899 14.1064C499.706 14.1064 499.516 14.1243 499.33 14.1602C499.151 14.196 498.976 14.2497 498.804 14.3213C498.639 14.3929 498.481 14.4788 498.331 14.5791C498.181 14.6794 498.045 14.7939 497.923 14.9229C497.794 15.0446 497.679 15.1807 497.579 15.3311C497.479 15.4814 497.393 15.639 497.321 15.8037C497.25 15.9756 497.196 16.1546 497.16 16.3408C497.124 16.5199 497.106 16.7061 497.106 16.8994C497.106 17.0928 497.124 17.279 497.16 17.458C497.196 17.637 497.25 17.8125 497.321 17.9844C497.393 18.1491 497.479 18.3066 497.579 18.457C497.679 18.6003 497.794 18.7363 497.923 18.8652C498.045 18.9941 498.181 19.1087 498.331 19.209C498.481 19.3021 498.639 19.388 498.804 19.4668C498.976 19.5384 499.151 19.5921 499.33 19.6279C499.516 19.6637 499.706 19.6816 499.899 19.6816C500.093 19.6816 500.279 19.6637 500.458 19.6279C500.637 19.5921 500.812 19.5384 500.984 19.4668Z" fill="white"/>
<path d="M525.058 19.5527H519.558C519.472 19.5527 519.393 19.542 519.321 19.5205C519.257 19.4919 519.203 19.4525 519.16 19.4023C519.103 19.3522 519.06 19.2949 519.031 19.2305C519.01 19.166 518.999 19.0908 518.999 19.0049V14.6006H517.903V13.5049H519.558C519.636 13.5049 519.708 13.5192 519.772 13.5479C519.844 13.5693 519.905 13.6051 519.955 13.6553C520.005 13.7054 520.041 13.7663 520.062 13.8379C520.091 13.9023 520.105 13.974 520.105 14.0527V14.6006H526.153C526.275 14.6006 526.375 14.6257 526.454 14.6758C526.533 14.7259 526.587 14.8011 526.615 14.9014C526.644 15.0016 526.665 15.0876 526.68 15.1592C526.694 15.2236 526.701 15.2773 526.701 15.3203L525.605 19.166C525.577 19.2233 525.541 19.277 525.498 19.3271C525.462 19.3701 525.419 19.4095 525.369 19.4453C525.319 19.4811 525.265 19.5098 525.208 19.5312C525.158 19.5456 525.108 19.5527 525.058 19.5527ZM520.653 21.207C520.653 21.3574 520.625 21.4971 520.567 21.626C520.517 21.7549 520.438 21.873 520.331 21.9805C520.224 22.0879 520.105 22.1702 519.977 22.2275C519.848 22.2777 519.708 22.3027 519.558 22.3027C519.4 22.3027 519.257 22.2777 519.128 22.2275C518.999 22.1702 518.881 22.0879 518.773 21.9805C518.666 21.873 518.584 21.7549 518.526 21.626C518.476 21.4971 518.451 21.3574 518.451 21.207C518.451 21.0566 518.476 20.917 518.526 20.7881C518.584 20.652 518.666 20.5303 518.773 20.4229C518.881 20.3154 518.999 20.2367 519.128 20.1865C519.257 20.1292 519.4 20.1006 519.558 20.1006C519.708 20.1006 519.848 20.1292 519.977 20.1865C520.105 20.2367 520.224 20.3154 520.331 20.4229C520.438 20.5303 520.517 20.652 520.567 20.7881C520.625 20.917 520.653 21.0566 520.653 21.207ZM520.105 18.457H524.617L525.38 15.707H520.105V18.457ZM526.153 21.207C526.153 21.3574 526.125 21.4971 526.067 21.626C526.017 21.7549 525.938 21.873 525.831 21.9805C525.724 22.0879 525.605 22.1702 525.477 22.2275C525.348 22.2777 525.208 22.3027 525.058 22.3027C524.9 22.3027 524.757 22.2777 524.628 22.2275C524.499 22.1702 524.381 22.0879 524.273 21.9805C524.166 21.873 524.084 21.7549 524.026 21.626C523.976 21.4971 523.951 21.3574 523.951 21.207C523.951 21.0566 523.976 20.917 524.026 20.7881C524.084 20.652 524.166 20.5303 524.273 20.4229C524.381 20.3154 524.499 20.2367 524.628 20.1865C524.757 20.1292 524.9 20.1006 525.058 20.1006C525.208 20.1006 525.348 20.1292 525.477 20.1865C525.605 20.2367 525.724 20.3154 525.831 20.4229C525.938 20.5303 526.017 20.652 526.067 20.7881C526.125 20.917 526.153 21.0566 526.153 21.207Z" fill="white"/>
<path d="M547.165 18.8545C547.258 18.9261 547.344 19.0013 547.423 19.0801C547.502 19.1589 547.573 19.2448 547.638 19.3379C547.702 19.431 547.759 19.5277 547.81 19.6279C547.86 19.7282 547.903 19.832 547.938 19.9395C547.974 20.0469 547.999 20.1579 548.014 20.2725C548.035 20.3799 548.046 20.4945 548.046 20.6162V22.0986H540.354V20.6162C540.354 20.4945 540.362 20.3799 540.376 20.2725C540.397 20.1579 540.426 20.0469 540.462 19.9395C540.498 19.832 540.541 19.7282 540.591 19.6279C540.641 19.5277 540.698 19.4346 540.763 19.3486C540.827 19.2627 540.899 19.1803 540.978 19.1016C541.056 19.0228 541.142 18.9476 541.235 18.876C541.321 18.8115 541.414 18.7542 541.515 18.7041C541.615 18.654 541.722 18.611 541.837 18.5752C541.987 18.5179 542.123 18.4606 542.245 18.4033C542.374 18.346 542.485 18.2887 542.578 18.2314C542.678 18.167 542.761 18.1097 542.825 18.0596C542.897 18.0094 542.951 17.9629 542.986 17.9199C542.836 17.8125 542.7 17.6908 542.578 17.5547C542.456 17.4186 542.353 17.2682 542.267 17.1035C542.181 16.946 542.113 16.7812 542.062 16.6094C542.02 16.4303 541.998 16.2441 541.998 16.0508V15.5029C541.998 15.3454 542.012 15.1986 542.041 15.0625C542.07 14.9193 542.113 14.7796 542.17 14.6436C542.227 14.5075 542.295 14.3822 542.374 14.2676C542.453 14.153 542.542 14.0456 542.643 13.9453C542.743 13.8451 542.85 13.7555 542.965 13.6768C543.087 13.598 543.212 13.5299 543.341 13.4727C543.477 13.4154 543.617 13.3724 543.76 13.3438C543.903 13.3151 544.05 13.3008 544.2 13.3008C544.351 13.3008 544.497 13.3151 544.641 13.3438C544.784 13.3724 544.924 13.4154 545.06 13.4727C545.188 13.5299 545.31 13.598 545.425 13.6768C545.547 13.7555 545.658 13.8451 545.758 13.9453C545.858 14.0456 545.948 14.153 546.026 14.2676C546.105 14.3822 546.173 14.5075 546.23 14.6436C546.288 14.7796 546.331 14.9193 546.359 15.0625C546.388 15.1986 546.402 15.3454 546.402 15.5029V16.0508C546.402 16.2441 546.377 16.4303 546.327 16.6094C546.284 16.7812 546.22 16.946 546.134 17.1035C546.048 17.2611 545.944 17.4043 545.822 17.5332C545.701 17.6549 545.564 17.766 545.414 17.8662C545.436 17.9163 545.479 17.9701 545.543 18.0273C545.607 18.0846 545.686 18.1383 545.779 18.1885C545.88 18.2458 545.994 18.3031 546.123 18.3604C546.252 18.4176 546.399 18.4714 546.563 18.5215C546.678 18.5645 546.785 18.6146 546.886 18.6719C546.986 18.722 547.079 18.7829 547.165 18.8545ZM546.95 20.6162C546.95 20.5016 546.932 20.3978 546.896 20.3047C546.868 20.2044 546.821 20.1077 546.757 20.0146C546.692 19.9215 546.617 19.8428 546.531 19.7783C546.445 19.7139 546.349 19.6637 546.241 19.6279C545.976 19.542 545.74 19.4525 545.532 19.3594C545.325 19.2591 545.142 19.1553 544.984 19.0479C544.827 18.9333 544.691 18.8151 544.576 18.6934C544.469 18.5716 544.379 18.4391 544.308 18.2959H544.093C544.021 18.4391 543.928 18.5716 543.813 18.6934C543.699 18.8151 543.559 18.9333 543.395 19.0479C543.237 19.1553 543.054 19.2591 542.847 19.3594C542.639 19.4525 542.41 19.542 542.159 19.6279C542.052 19.6566 541.955 19.7031 541.869 19.7676C541.783 19.8249 541.708 19.9001 541.644 19.9932C541.579 20.0934 541.529 20.1937 541.493 20.2939C541.465 20.3942 541.45 20.5016 541.45 20.6162V21.0029H546.95V20.6162ZM543.104 16.0508C543.104 16.2012 543.13 16.3408 543.18 16.4697C543.237 16.5986 543.319 16.7168 543.427 16.8242C543.534 16.9316 543.652 17.014 543.781 17.0713C543.91 17.1214 544.05 17.1465 544.2 17.1465C544.351 17.1465 544.49 17.1214 544.619 17.0713C544.748 17.014 544.866 16.9316 544.974 16.8242C545.081 16.7168 545.16 16.5986 545.21 16.4697C545.267 16.3408 545.296 16.2012 545.296 16.0508V15.5029C545.296 15.3454 545.267 15.2021 545.21 15.0732C545.16 14.9443 545.081 14.8262 544.974 14.7188C544.866 14.6113 544.748 14.5326 544.619 14.4824C544.49 14.4251 544.351 14.3965 544.2 14.3965C544.05 14.3965 543.91 14.4251 543.781 14.4824C543.652 14.5326 543.534 14.6113 543.427 14.7188C543.319 14.8262 543.237 14.9443 543.18 15.0732C543.13 15.2021 543.104 15.3454 543.104 15.5029V16.0508Z" fill="white"/>
<path d="M0 35H570V64C570 67.3137 567.314 70 564 70H5.99999C2.68628 70 0 67.3137 0 64V35Z" fill="white" fill-opacity="0.3"/>
</svg>
