<svg width="570" height="70" viewBox="0 0 570 70" fill="none" xmlns="http://www.w3.org/2000/svg">
<rect x="1" y="1" width="568" height="68" rx="5" fill="white" fill-opacity="0.3" stroke="white" stroke-width="2"/>
<path d="M19.608 21.824L17 13.712H19.416L20.12 16.384C20.2907 17.056 20.4347 17.664 20.552 18.208C20.6693 18.7413 20.7387 19.1093 20.76 19.312L20.808 19.616C20.8827 18.976 21.144 17.8987 21.592 16.384L22.376 13.712H24.392L25.16 16.384C25.352 17.0667 25.512 17.68 25.64 18.224C25.768 18.7573 25.848 19.1253 25.88 19.328L25.928 19.616C26.0027 18.9867 26.2533 17.9093 26.68 16.384L27.432 13.712H29.736L27.144 21.824H24.744L24.04 19.168C23.8907 18.592 23.7573 18.0533 23.64 17.552C23.5333 17.0507 23.464 16.6933 23.432 16.48L23.384 16.16C23.2773 16.8747 23.0533 17.8773 22.712 19.168L22.008 21.824H19.608Z" fill="white"/>
<path d="M34.3546 21.952C33.0853 21.952 32.104 21.5733 31.4106 20.816C30.7173 20.048 30.3706 19.0667 30.3706 17.872C30.3706 16.624 30.7333 15.6 31.4586 14.8C32.184 13.9893 33.1493 13.584 34.3546 13.584C35.6133 13.584 36.5893 13.9733 37.2826 14.752C37.976 15.5307 38.3226 16.5227 38.3226 17.728C38.3226 18.9547 37.9706 19.968 37.2666 20.768C36.5733 21.5573 35.6026 21.952 34.3546 21.952ZM34.3386 15.424C33.8266 15.424 33.4426 15.6427 33.1866 16.08C32.9306 16.5173 32.8026 17.0827 32.8026 17.776C32.8026 18.4693 32.9306 19.04 33.1866 19.488C33.4533 19.9253 33.848 20.144 34.3706 20.144C34.8826 20.144 35.2613 19.9307 35.5066 19.504C35.7626 19.0667 35.8906 18.5013 35.8906 17.808C35.8906 16.2187 35.3733 15.424 34.3386 15.424Z" fill="white"/>
<path d="M47.4807 21.824H44.7768L42.1847 17.84V21.824H39.8487V10.784H42.1847V17.344L44.7448 13.712H47.4328L44.6168 17.6L47.4807 21.824Z" fill="white"/>
<path d="M48.6944 21.824V13.712H51.0304V21.824H48.6944ZM48.9024 12.32C48.6357 12.0533 48.5024 11.7333 48.5024 11.36C48.5024 10.9867 48.6357 10.6667 48.9024 10.4C49.169 10.1333 49.489 10 49.8624 10C50.2357 10 50.5557 10.1333 50.8224 10.4C51.089 10.6667 51.2224 10.9867 51.2224 11.36C51.2224 11.7333 51.089 12.0533 50.8224 12.32C50.5557 12.5867 50.2357 12.72 49.8624 12.72C49.489 12.72 49.169 12.5867 48.9024 12.32Z" fill="white"/>
<path d="M57.7243 17.024V16.832C57.6496 15.8827 57.2336 15.408 56.4762 15.408C56.1029 15.408 55.7722 15.5467 55.4842 15.824C55.1963 16.0907 55.0042 16.4907 54.9082 17.024H57.7243ZM59.4043 19.408V21.36C58.8496 21.7227 58.0016 21.904 56.8602 21.904C55.5269 21.904 54.4869 21.52 53.7402 20.752C53.0042 19.9733 52.6362 18.976 52.6362 17.76C52.6362 16.4693 52.9936 15.4613 53.7083 14.736C54.4336 14 55.3242 13.632 56.3802 13.632C57.4683 13.632 58.3269 13.952 58.9562 14.592C59.5856 15.2213 59.9002 16.1653 59.9002 17.424C59.9002 17.6693 59.8576 18.0907 59.7723 18.688H55.0042C55.1642 19.136 55.4416 19.4827 55.8363 19.728C56.2309 19.9733 56.7056 20.096 57.2603 20.096C58.0816 20.096 58.7962 19.8667 59.4043 19.408Z" fill="white"/>
<path d="M66.2555 17.024V16.832C66.1808 15.8827 65.7648 15.408 65.0075 15.408C64.6342 15.408 64.3035 15.5467 64.0155 15.824C63.7275 16.0907 63.5355 16.4907 63.4395 17.024H66.2555ZM67.9355 19.408V21.36C67.3808 21.7227 66.5328 21.904 65.3915 21.904C64.0582 21.904 63.0182 21.52 62.2715 20.752C61.5355 19.9733 61.1675 18.976 61.1675 17.76C61.1675 16.4693 61.5248 15.4613 62.2395 14.736C62.9648 14 63.8555 13.632 64.9115 13.632C65.9995 13.632 66.8582 13.952 67.4875 14.592C68.1168 15.2213 68.4315 16.1653 68.4315 17.424C68.4315 17.6693 68.3888 18.0907 68.3035 18.688H63.5355C63.6955 19.136 63.9728 19.4827 64.3675 19.728C64.7622 19.9733 65.2368 20.096 65.7915 20.096C66.6128 20.096 67.3275 19.8667 67.9355 19.408Z" fill="white"/>
<path d="M181.03 14.2601H182.3V21.0001H181.03V18.1701H178.26V21.0001H177V14.2601H178.26V17.0801H181.03V14.2601Z" fill="white"/>
<path d="M183.429 17.6101C183.429 16.5635 183.716 15.7235 184.289 15.0901C184.869 14.4568 185.643 14.1401 186.609 14.1401C187.589 14.1401 188.366 14.4568 188.939 15.0901C189.513 15.7168 189.799 16.5568 189.799 17.6101C189.799 18.6501 189.509 19.4868 188.929 20.1201C188.356 20.7535 187.586 21.0701 186.619 21.0701C185.653 21.0701 184.879 20.7535 184.299 20.1201C183.719 19.4868 183.429 18.6501 183.429 17.6101ZM184.779 17.6101C184.779 18.3168 184.946 18.8768 185.279 19.2901C185.613 19.7035 186.059 19.9101 186.619 19.9101C187.186 19.9101 187.633 19.7068 187.959 19.3001C188.286 18.8868 188.449 18.3235 188.449 17.6101C188.449 16.8968 188.286 16.3335 187.959 15.9201C187.633 15.5068 187.183 15.3001 186.609 15.3001C186.043 15.3001 185.596 15.5068 185.269 15.9201C184.943 16.3335 184.779 16.8968 184.779 17.6101Z" fill="white"/>
<path d="M190.806 21.0001L191.346 14.2601H192.786L193.706 16.7101C193.866 17.1235 194.016 17.5368 194.156 17.9501C194.296 18.3568 194.396 18.6601 194.456 18.8601L194.546 19.1701C194.752 18.4768 195.039 17.6568 195.406 16.7101L196.346 14.2601H197.786L198.446 21.0001H197.186L196.946 18.3701L196.766 16.0101C196.526 16.6968 196.239 17.4835 195.906 18.3701L194.966 20.9001H194.106L193.186 18.3701L192.396 16.0401C192.396 16.3668 192.352 17.1435 192.266 18.3701L192.066 21.0001H190.806Z" fill="white"/>
<path d="M200.995 19.9701H203.745V21.0001H199.725V14.2601H203.705V15.2901H200.995V17.1201H203.405V18.1401H200.995V19.9701Z" fill="white"/>
<path d="M218.68 14.5401V15.7601C218.18 15.4601 217.646 15.3101 217.08 15.3101C216.766 15.3101 216.52 15.3801 216.34 15.5201C216.166 15.6601 216.08 15.8401 216.08 16.0601C216.08 16.2801 216.173 16.4635 216.36 16.6101C216.553 16.7501 216.84 16.9068 217.22 17.0801C217.486 17.2001 217.703 17.3068 217.87 17.4001C218.036 17.4868 218.216 17.6101 218.41 17.7701C218.61 17.9301 218.756 18.1235 218.85 18.3501C218.95 18.5701 219 18.8235 219 19.1101C219 19.7101 218.783 20.1901 218.35 20.5501C217.923 20.9035 217.36 21.0801 216.66 21.0801C215.9 21.0801 215.27 20.9368 214.77 20.6501V19.3601C215.343 19.7735 215.97 19.9801 216.65 19.9801C216.956 19.9801 217.203 19.9068 217.39 19.7601C217.576 19.6068 217.67 19.4035 217.67 19.1501C217.67 19.0301 217.646 18.9235 217.6 18.8301C217.553 18.7368 217.456 18.6435 217.31 18.5501C217.17 18.4568 217.06 18.3901 216.98 18.3501C216.906 18.3101 216.75 18.2368 216.51 18.1301C216.443 18.0968 216.393 18.0735 216.36 18.0601C216.113 17.9468 215.913 17.8468 215.76 17.7601C215.606 17.6668 215.44 17.5435 215.26 17.3901C215.08 17.2368 214.943 17.0535 214.85 16.8401C214.763 16.6268 214.72 16.3835 214.72 16.1101C214.72 15.5368 214.93 15.0768 215.35 14.7301C215.776 14.3835 216.34 14.2101 217.04 14.2101C217.673 14.2101 218.22 14.3201 218.68 14.5401Z" fill="white"/>
<path d="M224.135 14.2601H225.405V21.0001H224.135V18.1701H221.365V21.0001H220.105V14.2601H221.365V17.0801H224.135V14.2601Z" fill="white"/>
<path d="M226.535 17.6101C226.535 16.5635 226.821 15.7235 227.395 15.0901C227.975 14.4568 228.748 14.1401 229.715 14.1401C230.695 14.1401 231.471 14.4568 232.045 15.0901C232.618 15.7168 232.905 16.5568 232.905 17.6101C232.905 18.6501 232.615 19.4868 232.035 20.1201C231.461 20.7535 230.691 21.0701 229.725 21.0701C228.758 21.0701 227.985 20.7535 227.405 20.1201C226.825 19.4868 226.535 18.6501 226.535 17.6101ZM227.885 17.6101C227.885 18.3168 228.051 18.8768 228.385 19.2901C228.718 19.7035 229.165 19.9101 229.725 19.9101C230.291 19.9101 230.738 19.7068 231.065 19.3001C231.391 18.8868 231.555 18.3235 231.555 17.6101C231.555 16.8968 231.391 16.3335 231.065 15.9201C230.738 15.5068 230.288 15.3001 229.715 15.3001C229.148 15.3001 228.701 15.5068 228.375 15.9201C228.048 16.3335 227.885 16.8968 227.885 17.6101Z" fill="white"/>
<path d="M235.291 17.6901H236.001C236.461 17.6901 236.805 17.5801 237.031 17.3601C237.258 17.1401 237.371 16.8435 237.371 16.4701C237.371 16.1035 237.258 15.8168 237.031 15.6101C236.805 15.3968 236.471 15.2901 236.031 15.2901H235.291V17.6901ZM234.031 14.2601H236.141C236.901 14.2601 237.508 14.4668 237.961 14.8801C238.421 15.2935 238.651 15.8235 238.651 16.4701C238.651 17.1568 238.415 17.7035 237.941 18.1101C237.475 18.5101 236.885 18.7101 236.171 18.7101H235.291V21.0001H234.031V14.2601Z" fill="white"/>
<path d="M250.77 19.9701H251.85C252.656 19.9701 253.06 19.6635 253.06 19.0501C253.06 18.4235 252.64 18.1101 251.8 18.1101H250.77V19.9701ZM250.77 15.2901V17.1001H251.53C251.983 17.1001 252.323 17.0101 252.55 16.8301C252.776 16.6501 252.89 16.4201 252.89 16.1401C252.89 15.8801 252.793 15.6735 252.6 15.5201C252.413 15.3668 252.126 15.2901 251.74 15.2901H250.77ZM249.51 14.2601H251.9C252.62 14.2601 253.18 14.4301 253.58 14.7701C253.98 15.1101 254.18 15.5501 254.18 16.0901C254.18 16.4568 254.08 16.7768 253.88 17.0501C253.68 17.3168 253.423 17.4935 253.11 17.5801C253.47 17.6668 253.766 17.8435 254 18.1101C254.233 18.3701 254.35 18.7268 254.35 19.1801C254.35 19.7135 254.163 20.1501 253.79 20.4901C253.416 20.8301 252.9 21.0001 252.24 21.0001H249.51V14.2601Z" fill="white"/>
<path d="M256.688 19.8801H259.318V21.0001H255.428V14.2601H256.688V19.8801Z" fill="white"/>
<path d="M260.001 17.6101C260.001 16.5635 260.288 15.7235 260.861 15.0901C261.441 14.4568 262.215 14.1401 263.181 14.1401C264.161 14.1401 264.938 14.4568 265.511 15.0901C266.085 15.7168 266.371 16.5568 266.371 17.6101C266.371 18.6501 266.081 19.4868 265.501 20.1201C264.928 20.7535 264.158 21.0701 263.191 21.0701C262.225 21.0701 261.451 20.7535 260.871 20.1201C260.291 19.4868 260.001 18.6501 260.001 17.6101ZM261.351 17.6101C261.351 18.3168 261.518 18.8768 261.851 19.2901C262.185 19.7035 262.631 19.9101 263.191 19.9101C263.758 19.9101 264.205 19.7068 264.531 19.3001C264.858 18.8868 265.021 18.3235 265.021 17.6101C265.021 16.8968 264.858 16.3335 264.531 15.9201C264.205 15.5068 263.755 15.3001 263.181 15.3001C262.615 15.3001 262.168 15.5068 261.841 15.9201C261.515 16.3335 261.351 16.8968 261.351 17.6101Z" fill="white"/>
<path d="M273.098 17.0701V20.3101H273.088L273.098 20.4201C272.485 20.8601 271.718 21.0801 270.798 21.0801C269.731 21.0801 268.868 20.7701 268.208 20.1501C267.555 19.5301 267.228 18.6868 267.228 17.6201C267.228 16.5801 267.565 15.7401 268.238 15.1001C268.918 14.4601 269.775 14.1401 270.808 14.1401C271.575 14.1401 272.231 14.2835 272.778 14.5701V15.8601C272.165 15.4935 271.515 15.3101 270.828 15.3101C270.155 15.3101 269.611 15.5201 269.198 15.9401C268.785 16.3601 268.578 16.9201 268.578 17.6201C268.578 18.3335 268.778 18.8968 269.178 19.3101C269.585 19.7168 270.141 19.9201 270.848 19.9201C271.195 19.9201 271.531 19.8601 271.858 19.7401V18.1501H270.618V17.0701H273.098Z" fill="white"/>
<path d="M285.614 17.6901H286.324C286.784 17.6901 287.127 17.5801 287.354 17.3601C287.58 17.1401 287.694 16.8435 287.694 16.4701C287.694 16.1035 287.58 15.8168 287.354 15.6101C287.127 15.3968 286.794 15.2901 286.354 15.2901H285.614V17.6901ZM284.354 14.2601H286.464C287.224 14.2601 287.83 14.4668 288.284 14.8801C288.744 15.2935 288.974 15.8235 288.974 16.4701C288.974 17.1568 288.737 17.7035 288.264 18.1101C287.797 18.5101 287.207 18.7101 286.494 18.7101H285.614V21.0001H284.354V14.2601Z" fill="white"/>
<path d="M289.64 17.6101C289.64 16.5635 289.927 15.7235 290.5 15.0901C291.08 14.4568 291.853 14.1401 292.82 14.1401C293.8 14.1401 294.577 14.4568 295.15 15.0901C295.723 15.7168 296.01 16.5568 296.01 17.6101C296.01 18.6501 295.72 19.4868 295.14 20.1201C294.567 20.7535 293.797 21.0701 292.83 21.0701C291.863 21.0701 291.09 20.7535 290.51 20.1201C289.93 19.4868 289.64 18.6501 289.64 17.6101ZM290.99 17.6101C290.99 18.3168 291.157 18.8768 291.49 19.2901C291.823 19.7035 292.27 19.9101 292.83 19.9101C293.397 19.9101 293.843 19.7068 294.17 19.3001C294.497 18.8868 294.66 18.3235 294.66 17.6101C294.66 16.8968 294.497 16.3335 294.17 15.9201C293.843 15.5068 293.393 15.3001 292.82 15.3001C292.253 15.3001 291.807 15.5068 291.48 15.9201C291.153 16.3335 290.99 16.8968 290.99 17.6101Z" fill="white"/>
<path d="M298.397 15.3001V17.5001H299.237C299.623 17.5001 299.913 17.4035 300.107 17.2101C300.3 17.0101 300.397 16.7335 300.397 16.3801C300.397 16.0335 300.293 15.7668 300.087 15.5801C299.887 15.3935 299.597 15.3001 299.217 15.3001H298.397ZM300.617 21.0001L299.087 18.5401H298.397V21.0001H297.137V14.2601H299.217C299.983 14.2601 300.583 14.4535 301.017 14.8401C301.457 15.2268 301.677 15.7435 301.677 16.3901C301.67 16.8701 301.553 17.2768 301.327 17.6101C301.1 17.9368 300.79 18.1801 300.397 18.3401L302.127 21.0001H300.617Z" fill="white"/>
<path d="M307.275 14.2601V15.3001H305.565V21.0001H304.295V15.3001H302.585V14.2601H307.275Z" fill="white"/>
<path d="M312.171 15.2901H309.491V17.2801H311.831V18.3101H309.491V21.0001H308.221V14.2601H312.171V15.2901Z" fill="white"/>
<path d="M312.941 17.6101C312.941 16.5635 313.228 15.7235 313.801 15.0901C314.381 14.4568 315.154 14.1401 316.121 14.1401C317.101 14.1401 317.878 14.4568 318.451 15.0901C319.024 15.7168 319.311 16.5568 319.311 17.6101C319.311 18.6501 319.021 19.4868 318.441 20.1201C317.868 20.7535 317.098 21.0701 316.131 21.0701C315.164 21.0701 314.391 20.7535 313.811 20.1201C313.231 19.4868 312.941 18.6501 312.941 17.6101ZM314.291 17.6101C314.291 18.3168 314.458 18.8768 314.791 19.2901C315.124 19.7035 315.571 19.9101 316.131 19.9101C316.698 19.9101 317.144 19.7068 317.471 19.3001C317.798 18.8868 317.961 18.3235 317.961 17.6101C317.961 16.8968 317.798 16.3335 317.471 15.9201C317.144 15.5068 316.694 15.3001 316.121 15.3001C315.554 15.3001 315.108 15.5068 314.781 15.9201C314.454 16.3335 314.291 16.8968 314.291 17.6101Z" fill="white"/>
<path d="M321.697 19.8801H324.327V21.0001H320.438V14.2601H321.697V19.8801Z" fill="white"/>
<path d="M325.361 21.0001V14.2601H326.621V21.0001H325.361Z" fill="white"/>
<path d="M327.834 17.6101C327.834 16.5635 328.12 15.7235 328.694 15.0901C329.274 14.4568 330.047 14.1401 331.014 14.1401C331.994 14.1401 332.77 14.4568 333.344 15.0901C333.917 15.7168 334.204 16.5568 334.204 17.6101C334.204 18.6501 333.914 19.4868 333.334 20.1201C332.76 20.7535 331.99 21.0701 331.024 21.0701C330.057 21.0701 329.284 20.7535 328.704 20.1201C328.124 19.4868 327.834 18.6501 327.834 17.6101ZM329.184 17.6101C329.184 18.3168 329.35 18.8768 329.684 19.2901C330.017 19.7035 330.464 19.9101 331.024 19.9101C331.59 19.9101 332.037 19.7068 332.364 19.3001C332.69 18.8868 332.854 18.3235 332.854 17.6101C332.854 16.8968 332.69 16.3335 332.364 15.9201C332.037 15.5068 331.587 15.3001 331.014 15.3001C330.447 15.3001 330 15.5068 329.674 15.9201C329.347 16.3335 329.184 16.8968 329.184 17.6101Z" fill="white"/>
<path d="M350.162 14.5401V15.7701C349.655 15.4768 349.095 15.3301 348.482 15.3301C347.869 15.3301 347.355 15.5401 346.942 15.9601C346.535 16.3735 346.332 16.9301 346.332 17.6301C346.332 18.3301 346.535 18.8868 346.942 19.3001C347.355 19.7135 347.892 19.9201 348.552 19.9201C349.185 19.9201 349.725 19.7535 350.172 19.4201V20.6801C349.759 20.9468 349.179 21.0801 348.432 21.0801C347.432 21.0801 346.605 20.7668 345.952 20.1401C345.305 19.5068 344.982 18.6701 344.982 17.6301C344.982 16.6101 345.302 15.7801 345.942 15.1401C346.589 14.4935 347.419 14.1701 348.432 14.1701C349.172 14.1701 349.749 14.2935 350.162 14.5401Z" fill="white"/>
<path d="M351.076 17.6101C351.076 16.5635 351.362 15.7235 351.936 15.0901C352.516 14.4568 353.289 14.1401 354.256 14.1401C355.236 14.1401 356.012 14.4568 356.586 15.0901C357.159 15.7168 357.446 16.5568 357.446 17.6101C357.446 18.6501 357.156 19.4868 356.576 20.1201C356.002 20.7535 355.232 21.0701 354.266 21.0701C353.299 21.0701 352.526 20.7535 351.946 20.1201C351.366 19.4868 351.076 18.6501 351.076 17.6101ZM352.426 17.6101C352.426 18.3168 352.592 18.8768 352.926 19.2901C353.259 19.7035 353.706 19.9101 354.266 19.9101C354.832 19.9101 355.279 19.7068 355.606 19.3001C355.932 18.8868 356.096 18.3235 356.096 17.6101C356.096 16.8968 355.932 16.3335 355.606 15.9201C355.279 15.5068 354.829 15.3001 354.256 15.3001C353.689 15.3001 353.242 15.5068 352.916 15.9201C352.589 16.3335 352.426 16.8968 352.426 17.6101Z" fill="white"/>
<path d="M358.572 21.0001V14.2601H360.002L361.622 17.0701C361.889 17.5301 362.126 17.9601 362.332 18.3601C362.546 18.7535 362.689 19.0335 362.762 19.2001L362.872 19.4501C362.819 18.8968 362.792 18.1035 362.792 17.0701V14.2601H364.062V21.0001H362.622L360.982 18.2001C360.722 17.7601 360.486 17.3401 360.272 16.9401C360.066 16.5335 359.922 16.2401 359.842 16.0601L359.722 15.7801C359.796 16.4135 359.832 17.2168 359.832 18.1901V21.0001H358.572Z" fill="white"/>
<path d="M369.707 14.2601V15.3001H367.997V21.0001H366.727V15.3001H365.017V14.2601H369.707Z" fill="white"/>
<path d="M372.362 18.4401H374.262L374.172 18.1401C373.946 17.4201 373.759 16.8168 373.612 16.3301C373.472 15.8368 373.386 15.5268 373.352 15.4001L373.312 15.2001C373.252 15.5335 372.966 16.5168 372.452 18.1501L372.362 18.4401ZM375.062 21.0001L374.582 19.4701H372.032L371.552 21.0001H370.232L372.512 14.2601H374.142L376.422 21.0001H375.062Z" fill="white"/>
<path d="M382.301 14.5401V15.7701C381.794 15.4768 381.234 15.3301 380.621 15.3301C380.007 15.3301 379.494 15.5401 379.081 15.9601C378.674 16.3735 378.471 16.9301 378.471 17.6301C378.471 18.3301 378.674 18.8868 379.081 19.3001C379.494 19.7135 380.031 19.9201 380.691 19.9201C381.324 19.9201 381.864 19.7535 382.311 19.4201V20.6801C381.897 20.9468 381.317 21.0801 380.571 21.0801C379.571 21.0801 378.744 20.7668 378.091 20.1401C377.444 19.5068 377.121 18.6701 377.121 17.6301C377.121 16.6101 377.441 15.7801 378.081 15.1401C378.727 14.4935 379.557 14.1701 380.571 14.1701C381.311 14.1701 381.887 14.2935 382.301 14.5401Z" fill="white"/>
<path d="M387.734 14.2601V15.3001H386.024V21.0001H384.754V15.3001H383.044V14.2601H387.734Z" fill="white"/>
<path d="M392.43 14.5401V15.7601C391.93 15.4601 391.396 15.3101 390.83 15.3101C390.516 15.3101 390.27 15.3801 390.09 15.5201C389.916 15.6601 389.83 15.8401 389.83 16.0601C389.83 16.2801 389.923 16.4635 390.11 16.6101C390.303 16.7501 390.59 16.9068 390.97 17.0801C391.236 17.2001 391.453 17.3068 391.62 17.4001C391.786 17.4868 391.966 17.6101 392.16 17.7701C392.36 17.9301 392.506 18.1235 392.6 18.3501C392.7 18.5701 392.75 18.8235 392.75 19.1101C392.75 19.7101 392.533 20.1901 392.1 20.5501C391.673 20.9035 391.11 21.0801 390.41 21.0801C389.65 21.0801 389.02 20.9368 388.52 20.6501V19.3601C389.093 19.7735 389.72 19.9801 390.4 19.9801C390.706 19.9801 390.953 19.9068 391.14 19.7601C391.326 19.6068 391.42 19.4035 391.42 19.1501C391.42 19.0301 391.396 18.9235 391.35 18.8301C391.303 18.7368 391.206 18.6435 391.06 18.5501C390.92 18.4568 390.81 18.3901 390.73 18.3501C390.656 18.3101 390.5 18.2368 390.26 18.1301C390.193 18.0968 390.143 18.0735 390.11 18.0601C389.863 17.9468 389.663 17.8468 389.51 17.7601C389.356 17.6668 389.19 17.5435 389.01 17.3901C388.83 17.2368 388.693 17.0535 388.6 16.8401C388.513 16.6268 388.47 16.3835 388.47 16.1101C388.47 15.5368 388.68 15.0768 389.1 14.7301C389.526 14.3835 390.09 14.2101 390.79 14.2101C391.423 14.2101 391.97 14.3201 392.43 14.5401Z" fill="white"/>
<path d="M503.004 19.2305L504.637 20.8633C504.694 20.9206 504.737 20.9814 504.766 21.0459C504.794 21.1104 504.809 21.1784 504.809 21.25C504.809 21.3288 504.794 21.4004 504.766 21.4648C504.737 21.5293 504.694 21.5866 504.637 21.6367C504.615 21.6654 504.587 21.6904 504.551 21.7119C504.522 21.7334 504.493 21.7513 504.465 21.7656C504.429 21.7799 504.393 21.7907 504.357 21.7979C504.322 21.805 504.286 21.8086 504.25 21.8086C504.221 21.8086 504.189 21.805 504.153 21.7979C504.118 21.7907 504.082 21.7799 504.046 21.7656C504.01 21.7513 503.978 21.7334 503.949 21.7119C503.921 21.6904 503.892 21.6654 503.863 21.6367L502.23 20.0039C502.066 20.1257 501.89 20.2367 501.704 20.3369C501.525 20.43 501.339 20.5088 501.146 20.5732C500.945 20.6449 500.741 20.6986 500.533 20.7344C500.326 20.763 500.114 20.7773 499.899 20.7773C499.627 20.7773 499.366 20.7523 499.115 20.7021C498.865 20.652 498.621 20.5768 498.385 20.4766C498.148 20.3763 497.926 20.2581 497.719 20.1221C497.511 19.9788 497.318 19.8177 497.139 19.6387C496.967 19.4668 496.809 19.277 496.666 19.0693C496.53 18.8617 496.412 18.6396 496.312 18.4033C496.211 18.167 496.132 17.9235 496.075 17.6729C496.025 17.4222 496 17.1644 496 16.8994C496 16.6273 496.025 16.3659 496.075 16.1152C496.132 15.8646 496.211 15.6211 496.312 15.3848C496.412 15.1484 496.53 14.9264 496.666 14.7188C496.809 14.5111 496.967 14.3177 497.139 14.1387C497.318 13.9668 497.511 13.8128 497.719 13.6768C497.926 13.5335 498.148 13.4118 498.385 13.3115C498.621 13.2113 498.865 13.1361 499.115 13.0859C499.366 13.0286 499.627 13 499.899 13C500.164 13 500.422 13.0286 500.673 13.0859C500.924 13.1361 501.167 13.2113 501.403 13.3115C501.64 13.4118 501.862 13.5335 502.069 13.6768C502.277 13.8128 502.467 13.9668 502.639 14.1387C502.818 14.3177 502.975 14.5111 503.111 14.7188C503.255 14.9264 503.376 15.1484 503.477 15.3848C503.577 15.6211 503.652 15.8646 503.702 16.1152C503.752 16.3659 503.777 16.6273 503.777 16.8994C503.777 17.1143 503.759 17.3255 503.724 17.5332C503.695 17.7409 503.645 17.945 503.573 18.1455C503.509 18.3389 503.426 18.5286 503.326 18.7148C503.233 18.8939 503.126 19.0658 503.004 19.2305ZM500.984 19.4668C501.149 19.388 501.303 19.3021 501.446 19.209C501.597 19.1087 501.736 18.9941 501.865 18.8652C501.994 18.7363 502.105 18.6003 502.198 18.457C502.299 18.3066 502.388 18.1491 502.467 17.9844C502.538 17.8125 502.592 17.637 502.628 17.458C502.664 17.279 502.682 17.0928 502.682 16.8994C502.682 16.7061 502.664 16.5199 502.628 16.3408C502.592 16.1546 502.538 15.9756 502.467 15.8037C502.388 15.639 502.299 15.4814 502.198 15.3311C502.105 15.1807 501.994 15.0446 501.865 14.9229C501.736 14.7939 501.597 14.6794 501.446 14.5791C501.303 14.4788 501.149 14.3929 500.984 14.3213C500.812 14.2497 500.637 14.196 500.458 14.1602C500.279 14.1243 500.093 14.1064 499.899 14.1064C499.706 14.1064 499.516 14.1243 499.33 14.1602C499.151 14.196 498.976 14.2497 498.804 14.3213C498.639 14.3929 498.481 14.4788 498.331 14.5791C498.181 14.6794 498.045 14.7939 497.923 14.9229C497.794 15.0446 497.679 15.1807 497.579 15.3311C497.479 15.4814 497.393 15.639 497.321 15.8037C497.25 15.9756 497.196 16.1546 497.16 16.3408C497.124 16.5199 497.106 16.7061 497.106 16.8994C497.106 17.0928 497.124 17.279 497.16 17.458C497.196 17.637 497.25 17.8125 497.321 17.9844C497.393 18.1491 497.479 18.3066 497.579 18.457C497.679 18.6003 497.794 18.7363 497.923 18.8652C498.045 18.9941 498.181 19.1087 498.331 19.209C498.481 19.3021 498.639 19.388 498.804 19.4668C498.976 19.5384 499.151 19.5921 499.33 19.6279C499.516 19.6637 499.706 19.6816 499.899 19.6816C500.093 19.6816 500.279 19.6637 500.458 19.6279C500.637 19.5921 500.812 19.5384 500.984 19.4668Z" fill="white"/>
<path d="M525.058 19.5527H519.558C519.472 19.5527 519.393 19.542 519.321 19.5205C519.257 19.4919 519.203 19.4525 519.16 19.4023C519.103 19.3522 519.06 19.2949 519.031 19.2305C519.01 19.166 518.999 19.0908 518.999 19.0049V14.6006H517.903V13.5049H519.558C519.636 13.5049 519.708 13.5192 519.772 13.5479C519.844 13.5693 519.905 13.6051 519.955 13.6553C520.005 13.7054 520.041 13.7663 520.062 13.8379C520.091 13.9023 520.105 13.974 520.105 14.0527V14.6006H526.153C526.275 14.6006 526.375 14.6257 526.454 14.6758C526.533 14.7259 526.587 14.8011 526.615 14.9014C526.644 15.0016 526.665 15.0876 526.68 15.1592C526.694 15.2236 526.701 15.2773 526.701 15.3203L525.605 19.166C525.577 19.2233 525.541 19.277 525.498 19.3271C525.462 19.3701 525.419 19.4095 525.369 19.4453C525.319 19.4811 525.265 19.5098 525.208 19.5312C525.158 19.5456 525.108 19.5527 525.058 19.5527ZM520.653 21.207C520.653 21.3574 520.625 21.4971 520.567 21.626C520.517 21.7549 520.438 21.873 520.331 21.9805C520.224 22.0879 520.105 22.1702 519.977 22.2275C519.848 22.2777 519.708 22.3027 519.558 22.3027C519.4 22.3027 519.257 22.2777 519.128 22.2275C518.999 22.1702 518.881 22.0879 518.773 21.9805C518.666 21.873 518.584 21.7549 518.526 21.626C518.476 21.4971 518.451 21.3574 518.451 21.207C518.451 21.0566 518.476 20.917 518.526 20.7881C518.584 20.652 518.666 20.5303 518.773 20.4229C518.881 20.3154 518.999 20.2367 519.128 20.1865C519.257 20.1292 519.4 20.1006 519.558 20.1006C519.708 20.1006 519.848 20.1292 519.977 20.1865C520.105 20.2367 520.224 20.3154 520.331 20.4229C520.438 20.5303 520.517 20.652 520.567 20.7881C520.625 20.917 520.653 21.0566 520.653 21.207ZM520.105 18.457H524.617L525.38 15.707H520.105V18.457ZM526.153 21.207C526.153 21.3574 526.125 21.4971 526.067 21.626C526.017 21.7549 525.938 21.873 525.831 21.9805C525.724 22.0879 525.605 22.1702 525.477 22.2275C525.348 22.2777 525.208 22.3027 525.058 22.3027C524.9 22.3027 524.757 22.2777 524.628 22.2275C524.499 22.1702 524.381 22.0879 524.273 21.9805C524.166 21.873 524.084 21.7549 524.026 21.626C523.976 21.4971 523.951 21.3574 523.951 21.207C523.951 21.0566 523.976 20.917 524.026 20.7881C524.084 20.652 524.166 20.5303 524.273 20.4229C524.381 20.3154 524.499 20.2367 524.628 20.1865C524.757 20.1292 524.9 20.1006 525.058 20.1006C525.208 20.1006 525.348 20.1292 525.477 20.1865C525.605 20.2367 525.724 20.3154 525.831 20.4229C525.938 20.5303 526.017 20.652 526.067 20.7881C526.125 20.917 526.153 21.0566 526.153 21.207Z" fill="white"/>
<path d="M547.165 18.8545C547.258 18.9261 547.344 19.0013 547.423 19.0801C547.502 19.1589 547.573 19.2448 547.638 19.3379C547.702 19.431 547.759 19.5277 547.81 19.6279C547.86 19.7282 547.903 19.832 547.938 19.9395C547.974 20.0469 547.999 20.1579 548.014 20.2725C548.035 20.3799 548.046 20.4945 548.046 20.6162V22.0986H540.354V20.6162C540.354 20.4945 540.362 20.3799 540.376 20.2725C540.397 20.1579 540.426 20.0469 540.462 19.9395C540.498 19.832 540.541 19.7282 540.591 19.6279C540.641 19.5277 540.698 19.4346 540.763 19.3486C540.827 19.2627 540.899 19.1803 540.978 19.1016C541.056 19.0228 541.142 18.9476 541.235 18.876C541.321 18.8115 541.414 18.7542 541.515 18.7041C541.615 18.654 541.722 18.611 541.837 18.5752C541.987 18.5179 542.123 18.4606 542.245 18.4033C542.374 18.346 542.485 18.2887 542.578 18.2314C542.678 18.167 542.761 18.1097 542.825 18.0596C542.897 18.0094 542.951 17.9629 542.986 17.9199C542.836 17.8125 542.7 17.6908 542.578 17.5547C542.456 17.4186 542.353 17.2682 542.267 17.1035C542.181 16.946 542.113 16.7812 542.062 16.6094C542.02 16.4303 541.998 16.2441 541.998 16.0508V15.5029C541.998 15.3454 542.012 15.1986 542.041 15.0625C542.07 14.9193 542.113 14.7796 542.17 14.6436C542.227 14.5075 542.295 14.3822 542.374 14.2676C542.453 14.153 542.542 14.0456 542.643 13.9453C542.743 13.8451 542.85 13.7555 542.965 13.6768C543.087 13.598 543.212 13.5299 543.341 13.4727C543.477 13.4154 543.617 13.3724 543.76 13.3438C543.903 13.3151 544.05 13.3008 544.2 13.3008C544.351 13.3008 544.497 13.3151 544.641 13.3438C544.784 13.3724 544.924 13.4154 545.06 13.4727C545.188 13.5299 545.31 13.598 545.425 13.6768C545.547 13.7555 545.658 13.8451 545.758 13.9453C545.858 14.0456 545.948 14.153 546.026 14.2676C546.105 14.3822 546.173 14.5075 546.23 14.6436C546.288 14.7796 546.331 14.9193 546.359 15.0625C546.388 15.1986 546.402 15.3454 546.402 15.5029V16.0508C546.402 16.2441 546.377 16.4303 546.327 16.6094C546.284 16.7812 546.22 16.946 546.134 17.1035C546.048 17.2611 545.944 17.4043 545.822 17.5332C545.701 17.6549 545.564 17.766 545.414 17.8662C545.436 17.9163 545.479 17.9701 545.543 18.0273C545.607 18.0846 545.686 18.1383 545.779 18.1885C545.88 18.2458 545.994 18.3031 546.123 18.3604C546.252 18.4176 546.399 18.4714 546.563 18.5215C546.678 18.5645 546.785 18.6146 546.886 18.6719C546.986 18.722 547.079 18.7829 547.165 18.8545ZM546.95 20.6162C546.95 20.5016 546.932 20.3978 546.896 20.3047C546.868 20.2044 546.821 20.1077 546.757 20.0146C546.692 19.9215 546.617 19.8428 546.531 19.7783C546.445 19.7139 546.349 19.6637 546.241 19.6279C545.976 19.542 545.74 19.4525 545.532 19.3594C545.325 19.2591 545.142 19.1553 544.984 19.0479C544.827 18.9333 544.691 18.8151 544.576 18.6934C544.469 18.5716 544.379 18.4391 544.308 18.2959H544.093C544.021 18.4391 543.928 18.5716 543.813 18.6934C543.699 18.8151 543.559 18.9333 543.395 19.0479C543.237 19.1553 543.054 19.2591 542.847 19.3594C542.639 19.4525 542.41 19.542 542.159 19.6279C542.052 19.6566 541.955 19.7031 541.869 19.7676C541.783 19.8249 541.708 19.9001 541.644 19.9932C541.579 20.0934 541.529 20.1937 541.493 20.2939C541.465 20.3942 541.45 20.5016 541.45 20.6162V21.0029H546.95V20.6162ZM543.104 16.0508C543.104 16.2012 543.13 16.3408 543.18 16.4697C543.237 16.5986 543.319 16.7168 543.427 16.8242C543.534 16.9316 543.652 17.014 543.781 17.0713C543.91 17.1214 544.05 17.1465 544.2 17.1465C544.351 17.1465 544.49 17.1214 544.619 17.0713C544.748 17.014 544.866 16.9316 544.974 16.8242C545.081 16.7168 545.16 16.5986 545.21 16.4697C545.267 16.3408 545.296 16.2012 545.296 16.0508V15.5029C545.296 15.3454 545.267 15.2021 545.21 15.0732C545.16 14.9443 545.081 14.8262 544.974 14.7188C544.866 14.6113 544.748 14.5326 544.619 14.4824C544.49 14.4251 544.351 14.3965 544.2 14.3965C544.05 14.3965 543.91 14.4251 543.781 14.4824C543.652 14.5326 543.534 14.6113 543.427 14.7188C543.319 14.8262 543.237 14.9443 543.18 15.0732C543.13 15.2021 543.104 15.3454 543.104 15.5029V16.0508Z" fill="white"/>
</svg>
