<svg width="570" height="70" viewBox="0 0 570 70" fill="none" xmlns="http://www.w3.org/2000/svg">
<rect x="1" y="1" width="568" height="68" rx="5" stroke="white" stroke-width="2"/>
<path d="M19.608 21.824L17 13.712H19.416L20.12 16.384C20.2907 17.056 20.4347 17.664 20.552 18.208C20.6693 18.7413 20.7387 19.1093 20.76 19.312L20.808 19.616C20.8827 18.976 21.144 17.8987 21.592 16.384L22.376 13.712H24.392L25.16 16.384C25.352 17.0667 25.512 17.68 25.64 18.224C25.768 18.7573 25.848 19.1253 25.88 19.328L25.928 19.616C26.0027 18.9867 26.2533 17.9093 26.68 16.384L27.432 13.712H29.736L27.144 21.824H24.744L24.04 19.168C23.8907 18.592 23.7573 18.0533 23.64 17.552C23.5333 17.0507 23.464 16.6933 23.432 16.48L23.384 16.16C23.2773 16.8747 23.0533 17.8773 22.712 19.168L22.008 21.824H19.608Z" fill="white"/>
<path d="M34.3546 21.952C33.0853 21.952 32.104 21.5733 31.4106 20.816C30.7173 20.048 30.3706 19.0667 30.3706 17.872C30.3706 16.624 30.7333 15.6 31.4586 14.8C32.184 13.9893 33.1493 13.584 34.3546 13.584C35.6133 13.584 36.5893 13.9733 37.2826 14.752C37.976 15.5307 38.3226 16.5227 38.3226 17.728C38.3226 18.9547 37.9706 19.968 37.2666 20.768C36.5733 21.5573 35.6026 21.952 34.3546 21.952ZM34.3386 15.424C33.8266 15.424 33.4426 15.6427 33.1866 16.08C32.9306 16.5173 32.8026 17.0827 32.8026 17.776C32.8026 18.4693 32.9306 19.04 33.1866 19.488C33.4533 19.9253 33.848 20.144 34.3706 20.144C34.8826 20.144 35.2613 19.9307 35.5066 19.504C35.7626 19.0667 35.8906 18.5013 35.8906 17.808C35.8906 16.2187 35.3733 15.424 34.3386 15.424Z" fill="white"/>
<path d="M47.4807 21.824H44.7768L42.1847 17.84V21.824H39.8487V10.784H42.1847V17.344L44.7448 13.712H47.4328L44.6168 17.6L47.4807 21.824Z" fill="white"/>
<path d="M48.6944 21.824V13.712H51.0304V21.824H48.6944ZM48.9024 12.32C48.6357 12.0533 48.5024 11.7333 48.5024 11.36C48.5024 10.9867 48.6357 10.6667 48.9024 10.4C49.169 10.1333 49.489 10 49.8624 10C50.2357 10 50.5557 10.1333 50.8224 10.4C51.089 10.6667 51.2224 10.9867 51.2224 11.36C51.2224 11.7333 51.089 12.0533 50.8224 12.32C50.5557 12.5867 50.2357 12.72 49.8624 12.72C49.489 12.72 49.169 12.5867 48.9024 12.32Z" fill="white"/>
<path d="M57.7243 17.024V16.832C57.6496 15.8827 57.2336 15.408 56.4762 15.408C56.1029 15.408 55.7722 15.5467 55.4842 15.824C55.1963 16.0907 55.0042 16.4907 54.9082 17.024H57.7243ZM59.4043 19.408V21.36C58.8496 21.7227 58.0016 21.904 56.8602 21.904C55.5269 21.904 54.4869 21.52 53.7402 20.752C53.0042 19.9733 52.6362 18.976 52.6362 17.76C52.6362 16.4693 52.9936 15.4613 53.7083 14.736C54.4336 14 55.3242 13.632 56.3802 13.632C57.4683 13.632 58.3269 13.952 58.9562 14.592C59.5856 15.2213 59.9002 16.1653 59.9002 17.424C59.9002 17.6693 59.8576 18.0907 59.7723 18.688H55.0042C55.1642 19.136 55.4416 19.4827 55.8363 19.728C56.2309 19.9733 56.7056 20.096 57.2603 20.096C58.0816 20.096 58.7962 19.8667 59.4043 19.408Z" fill="white"/>
<path d="M66.2555 17.024V16.832C66.1808 15.8827 65.7648 15.408 65.0075 15.408C64.6342 15.408 64.3035 15.5467 64.0155 15.824C63.7275 16.0907 63.5355 16.4907 63.4395 17.024H66.2555ZM67.9355 19.408V21.36C67.3808 21.7227 66.5328 21.904 65.3915 21.904C64.0582 21.904 63.0182 21.52 62.2715 20.752C61.5355 19.9733 61.1675 18.976 61.1675 17.76C61.1675 16.4693 61.5248 15.4613 62.2395 14.736C62.9648 14 63.8555 13.632 64.9115 13.632C65.9995 13.632 66.8582 13.952 67.4875 14.592C68.1168 15.2213 68.4315 16.1653 68.4315 17.424C68.4315 17.6693 68.3888 18.0907 68.3035 18.688H63.5355C63.6955 19.136 63.9728 19.4827 64.3675 19.728C64.7622 19.9733 65.2368 20.096 65.7915 20.096C66.6128 20.096 67.3275 19.8667 67.9355 19.408Z" fill="white"/>
<path d="M21.03 48.12H22.3V54.86H21.03V52.03H18.26V54.86H17V48.12H18.26V50.94H21.03V48.12Z" fill="white"/>
<path d="M23.4292 51.47C23.4292 50.4233 23.7159 49.5833 24.2892 48.95C24.8692 48.3167 25.6426 48 26.6092 48C27.5892 48 28.3659 48.3167 28.9392 48.95C29.5126 49.5767 29.7992 50.4167 29.7992 51.47C29.7992 52.51 29.5092 53.3467 28.9292 53.98C28.3559 54.6133 27.5859 54.93 26.6192 54.93C25.6526 54.93 24.8792 54.6133 24.2992 53.98C23.7192 53.3467 23.4292 52.51 23.4292 51.47ZM24.7792 51.47C24.7792 52.1767 24.9459 52.7367 25.2792 53.15C25.6126 53.5633 26.0592 53.77 26.6192 53.77C27.1859 53.77 27.6326 53.5667 27.9592 53.16C28.2859 52.7467 28.4492 52.1833 28.4492 51.47C28.4492 50.7567 28.2859 50.1933 27.9592 49.78C27.6326 49.3667 27.1826 49.16 26.6092 49.16C26.0426 49.16 25.5959 49.3667 25.2692 49.78C24.9426 50.1933 24.7792 50.7567 24.7792 51.47Z" fill="white"/>
<path d="M30.8058 54.86L31.3458 48.12H32.7858L33.7058 50.57C33.8658 50.9833 34.0158 51.3967 34.1558 51.81C34.2958 52.2167 34.3958 52.52 34.4558 52.72L34.5458 53.03C34.7524 52.3367 35.0391 51.5167 35.4058 50.57L36.3458 48.12H37.7858L38.4458 54.86H37.1858L36.9458 52.23L36.7658 49.87C36.5258 50.5567 36.2391 51.3433 35.9058 52.23L34.9658 54.76H34.1058L33.1858 52.23L32.3958 49.9C32.3958 50.2267 32.3524 51.0033 32.2658 52.23L32.0658 54.86H30.8058Z" fill="white"/>
<path d="M40.9946 53.83H43.7446V54.86H39.7246V48.12H43.7046V49.15H40.9946V50.98H43.4046V52H40.9946V53.83Z" fill="white"/>
<path d="M58.6797 48.4V49.62C58.1797 49.32 57.6464 49.17 57.0797 49.17C56.7664 49.17 56.5197 49.24 56.3397 49.38C56.1664 49.52 56.0797 49.7 56.0797 49.92C56.0797 50.14 56.173 50.3233 56.3597 50.47C56.553 50.61 56.8397 50.7667 57.2197 50.94C57.4864 51.06 57.703 51.1667 57.8697 51.26C58.0364 51.3467 58.2164 51.47 58.4097 51.63C58.6097 51.79 58.7564 51.9833 58.8497 52.21C58.9497 52.43 58.9997 52.6833 58.9997 52.97C58.9997 53.57 58.783 54.05 58.3497 54.41C57.923 54.7633 57.3597 54.94 56.6597 54.94C55.8997 54.94 55.2697 54.7967 54.7697 54.51V53.22C55.343 53.6333 55.9697 53.84 56.6497 53.84C56.9564 53.84 57.203 53.7667 57.3897 53.62C57.5764 53.4667 57.6697 53.2633 57.6697 53.01C57.6697 52.89 57.6464 52.7833 57.5997 52.69C57.553 52.5967 57.4564 52.5033 57.3097 52.41C57.1697 52.3167 57.0597 52.25 56.9797 52.21C56.9064 52.17 56.7497 52.0967 56.5097 51.99C56.443 51.9567 56.393 51.9333 56.3597 51.92C56.113 51.8067 55.913 51.7067 55.7597 51.62C55.6064 51.5267 55.4397 51.4033 55.2597 51.25C55.0797 51.0967 54.943 50.9133 54.8497 50.7C54.763 50.4867 54.7197 50.2433 54.7197 49.97C54.7197 49.3967 54.9297 48.9367 55.3497 48.59C55.7764 48.2433 56.3397 48.07 57.0397 48.07C57.673 48.07 58.2197 48.18 58.6797 48.4Z" fill="white"/>
<path d="M64.1355 48.12H65.4055V54.86H64.1355V52.03H61.3655V54.86H60.1055V48.12H61.3655V50.94H64.1355V48.12Z" fill="white"/>
<path d="M66.5347 51.47C66.5347 50.4233 66.8214 49.5833 67.3947 48.95C67.9747 48.3167 68.748 48 69.7147 48C70.6947 48 71.4714 48.3167 72.0447 48.95C72.618 49.5767 72.9047 50.4167 72.9047 51.47C72.9047 52.51 72.6147 53.3467 72.0347 53.98C71.4614 54.6133 70.6914 54.93 69.7247 54.93C68.758 54.93 67.9847 54.6133 67.4047 53.98C66.8247 53.3467 66.5347 52.51 66.5347 51.47ZM67.8847 51.47C67.8847 52.1767 68.0514 52.7367 68.3847 53.15C68.718 53.5633 69.1647 53.77 69.7247 53.77C70.2914 53.77 70.738 53.5667 71.0647 53.16C71.3914 52.7467 71.5547 52.1833 71.5547 51.47C71.5547 50.7567 71.3914 50.1933 71.0647 49.78C70.738 49.3667 70.288 49.16 69.7147 49.16C69.148 49.16 68.7014 49.3667 68.3747 49.78C68.048 50.1933 67.8847 50.7567 67.8847 51.47Z" fill="white"/>
<path d="M75.2912 51.55H76.0013C76.4613 51.55 76.8046 51.44 77.0312 51.22C77.2579 51 77.3713 50.7033 77.3713 50.33C77.3713 49.9633 77.2579 49.6767 77.0312 49.47C76.8046 49.2567 76.4712 49.15 76.0312 49.15H75.2912V51.55ZM74.0312 48.12H76.1413C76.9012 48.12 77.5079 48.3267 77.9613 48.74C78.4212 49.1533 78.6512 49.6833 78.6512 50.33C78.6512 51.0167 78.4146 51.5633 77.9412 51.97C77.4746 52.37 76.8846 52.57 76.1712 52.57H75.2912V54.86H74.0312V48.12Z" fill="white"/>
<path d="M90.7698 53.83H91.8498C92.6564 53.83 93.0598 53.5233 93.0598 52.91C93.0598 52.2833 92.6398 51.97 91.7998 51.97H90.7698V53.83ZM90.7698 49.15V50.96H91.5298C91.9831 50.96 92.3231 50.87 92.5498 50.69C92.7764 50.51 92.8898 50.28 92.8898 50C92.8898 49.74 92.7931 49.5333 92.5998 49.38C92.4131 49.2267 92.1264 49.15 91.7398 49.15H90.7698ZM89.5098 48.12H91.8998C92.6198 48.12 93.1798 48.29 93.5798 48.63C93.9798 48.97 94.1798 49.41 94.1798 49.95C94.1798 50.3167 94.0798 50.6367 93.8798 50.91C93.6798 51.1767 93.4231 51.3533 93.1098 51.44C93.4698 51.5267 93.7664 51.7033 93.9998 51.97C94.2331 52.23 94.3498 52.5867 94.3498 53.04C94.3498 53.5733 94.1631 54.01 93.7898 54.35C93.4164 54.69 92.8998 54.86 92.2398 54.86H89.5098V48.12Z" fill="white"/>
<path d="M96.6877 53.74H99.3177V54.86H95.4277V48.12H96.6877V53.74Z" fill="white"/>
<path d="M100.001 51.47C100.001 50.4233 100.288 49.5833 100.861 48.95C101.441 48.3167 102.215 48 103.181 48C104.161 48 104.938 48.3167 105.511 48.95C106.085 49.5767 106.371 50.4167 106.371 51.47C106.371 52.51 106.081 53.3467 105.501 53.98C104.928 54.6133 104.158 54.93 103.191 54.93C102.225 54.93 101.451 54.6133 100.871 53.98C100.291 53.3467 100.001 52.51 100.001 51.47ZM101.351 51.47C101.351 52.1767 101.518 52.7367 101.851 53.15C102.185 53.5633 102.631 53.77 103.191 53.77C103.758 53.77 104.205 53.5667 104.531 53.16C104.858 52.7467 105.021 52.1833 105.021 51.47C105.021 50.7567 104.858 50.1933 104.531 49.78C104.205 49.3667 103.755 49.16 103.181 49.16C102.615 49.16 102.168 49.3667 101.841 49.78C101.515 50.1933 101.351 50.7567 101.351 51.47Z" fill="white"/>
<path d="M113.098 50.93V54.17H113.088L113.098 54.28C112.485 54.72 111.718 54.94 110.798 54.94C109.731 54.94 108.868 54.63 108.208 54.01C107.555 53.39 107.228 52.5467 107.228 51.48C107.228 50.44 107.565 49.6 108.238 48.96C108.918 48.32 109.775 48 110.808 48C111.575 48 112.231 48.1433 112.778 48.43V49.72C112.165 49.3533 111.515 49.17 110.828 49.17C110.155 49.17 109.611 49.38 109.198 49.8C108.785 50.22 108.578 50.78 108.578 51.48C108.578 52.1933 108.778 52.7567 109.178 53.17C109.585 53.5767 110.141 53.78 110.848 53.78C111.195 53.78 111.531 53.72 111.858 53.6V52.01H110.618V50.93H113.098Z" fill="white"/>
<path d="M125.614 51.55H126.324C126.784 51.55 127.127 51.44 127.354 51.22C127.58 51 127.694 50.7033 127.694 50.33C127.694 49.9633 127.58 49.6767 127.354 49.47C127.127 49.2567 126.794 49.15 126.354 49.15H125.614V51.55ZM124.354 48.12H126.464C127.224 48.12 127.83 48.3267 128.284 48.74C128.744 49.1533 128.974 49.6833 128.974 50.33C128.974 51.0167 128.737 51.5633 128.264 51.97C127.797 52.37 127.207 52.57 126.494 52.57H125.614V54.86H124.354V48.12Z" fill="white"/>
<path d="M129.64 51.47C129.64 50.4233 129.927 49.5833 130.5 48.95C131.08 48.3167 131.853 48 132.82 48C133.8 48 134.577 48.3167 135.15 48.95C135.723 49.5767 136.01 50.4167 136.01 51.47C136.01 52.51 135.72 53.3467 135.14 53.98C134.567 54.6133 133.797 54.93 132.83 54.93C131.863 54.93 131.09 54.6133 130.51 53.98C129.93 53.3467 129.64 52.51 129.64 51.47ZM130.99 51.47C130.99 52.1767 131.157 52.7367 131.49 53.15C131.823 53.5633 132.27 53.77 132.83 53.77C133.397 53.77 133.843 53.5667 134.17 53.16C134.497 52.7467 134.66 52.1833 134.66 51.47C134.66 50.7567 134.497 50.1933 134.17 49.78C133.843 49.3667 133.393 49.16 132.82 49.16C132.253 49.16 131.807 49.3667 131.48 49.78C131.153 50.1933 130.99 50.7567 130.99 51.47Z" fill="white"/>
<path d="M138.397 49.16V51.36H139.237C139.623 51.36 139.913 51.2633 140.107 51.07C140.3 50.87 140.397 50.5933 140.397 50.24C140.397 49.8933 140.293 49.6267 140.087 49.44C139.887 49.2533 139.597 49.16 139.217 49.16H138.397ZM140.617 54.86L139.087 52.4H138.397V54.86H137.137V48.12H139.217C139.983 48.12 140.583 48.3133 141.017 48.7C141.457 49.0867 141.677 49.6033 141.677 50.25C141.67 50.73 141.553 51.1367 141.327 51.47C141.1 51.7967 140.79 52.04 140.397 52.2L142.127 54.86H140.617Z" fill="white"/>
<path d="M147.275 48.12V49.16H145.565V54.86H144.295V49.16H142.585V48.12H147.275Z" fill="white"/>
<path d="M152.171 49.15H149.491V51.14H151.831V52.17H149.491V54.86H148.221V48.12H152.171V49.15Z" fill="white"/>
<path d="M152.941 51.47C152.941 50.4233 153.228 49.5833 153.801 48.95C154.381 48.3167 155.154 48 156.121 48C157.101 48 157.878 48.3167 158.451 48.95C159.024 49.5767 159.311 50.4167 159.311 51.47C159.311 52.51 159.021 53.3467 158.441 53.98C157.868 54.6133 157.098 54.93 156.131 54.93C155.164 54.93 154.391 54.6133 153.811 53.98C153.231 53.3467 152.941 52.51 152.941 51.47ZM154.291 51.47C154.291 52.1767 154.458 52.7367 154.791 53.15C155.124 53.5633 155.571 53.77 156.131 53.77C156.698 53.77 157.144 53.5667 157.471 53.16C157.798 52.7467 157.961 52.1833 157.961 51.47C157.961 50.7567 157.798 50.1933 157.471 49.78C157.144 49.3667 156.694 49.16 156.121 49.16C155.554 49.16 155.108 49.3667 154.781 49.78C154.454 50.1933 154.291 50.7567 154.291 51.47Z" fill="white"/>
<path d="M161.697 53.74H164.327V54.86H160.438V48.12H161.697V53.74Z" fill="white"/>
<path d="M165.361 54.86V48.12H166.621V54.86H165.361Z" fill="white"/>
<path d="M167.834 51.47C167.834 50.4233 168.12 49.5833 168.694 48.95C169.274 48.3167 170.047 48 171.014 48C171.994 48 172.77 48.3167 173.344 48.95C173.917 49.5767 174.204 50.4167 174.204 51.47C174.204 52.51 173.914 53.3467 173.334 53.98C172.76 54.6133 171.99 54.93 171.024 54.93C170.057 54.93 169.284 54.6133 168.704 53.98C168.124 53.3467 167.834 52.51 167.834 51.47ZM169.184 51.47C169.184 52.1767 169.35 52.7367 169.684 53.15C170.017 53.5633 170.464 53.77 171.024 53.77C171.59 53.77 172.037 53.5667 172.364 53.16C172.69 52.7467 172.854 52.1833 172.854 51.47C172.854 50.7567 172.69 50.1933 172.364 49.78C172.037 49.3667 171.587 49.16 171.014 49.16C170.447 49.16 170 49.3667 169.674 49.78C169.347 50.1933 169.184 50.7567 169.184 51.47Z" fill="white"/>
<path d="M190.162 48.4V49.63C189.655 49.3367 189.095 49.19 188.482 49.19C187.869 49.19 187.355 49.4 186.942 49.82C186.535 50.2333 186.332 50.79 186.332 51.49C186.332 52.19 186.535 52.7467 186.942 53.16C187.355 53.5733 187.892 53.78 188.552 53.78C189.185 53.78 189.725 53.6133 190.172 53.28V54.54C189.759 54.8067 189.179 54.94 188.432 54.94C187.432 54.94 186.605 54.6267 185.952 54C185.305 53.3667 184.982 52.53 184.982 51.49C184.982 50.47 185.302 49.64 185.942 49C186.589 48.3533 187.419 48.03 188.432 48.03C189.172 48.03 189.749 48.1533 190.162 48.4Z" fill="white"/>
<path d="M191.076 51.47C191.076 50.4233 191.362 49.5833 191.936 48.95C192.516 48.3167 193.289 48 194.256 48C195.236 48 196.012 48.3167 196.586 48.95C197.159 49.5767 197.446 50.4167 197.446 51.47C197.446 52.51 197.156 53.3467 196.576 53.98C196.002 54.6133 195.232 54.93 194.266 54.93C193.299 54.93 192.526 54.6133 191.946 53.98C191.366 53.3467 191.076 52.51 191.076 51.47ZM192.426 51.47C192.426 52.1767 192.592 52.7367 192.926 53.15C193.259 53.5633 193.706 53.77 194.266 53.77C194.832 53.77 195.279 53.5667 195.606 53.16C195.932 52.7467 196.096 52.1833 196.096 51.47C196.096 50.7567 195.932 50.1933 195.606 49.78C195.279 49.3667 194.829 49.16 194.256 49.16C193.689 49.16 193.242 49.3667 192.916 49.78C192.589 50.1933 192.426 50.7567 192.426 51.47Z" fill="white"/>
<path d="M198.572 54.86V48.12H200.002L201.622 50.93C201.889 51.39 202.126 51.82 202.332 52.22C202.546 52.6133 202.689 52.8933 202.762 53.06L202.872 53.31C202.819 52.7567 202.792 51.9633 202.792 50.93V48.12H204.062V54.86H202.622L200.982 52.06C200.722 51.62 200.486 51.2 200.272 50.8C200.066 50.3933 199.922 50.1 199.842 49.92L199.722 49.64C199.796 50.2733 199.832 51.0767 199.832 52.05V54.86H198.572Z" fill="white"/>
<path d="M209.707 48.12V49.16H207.997V54.86H206.727V49.16H205.017V48.12H209.707Z" fill="white"/>
<path d="M212.362 52.3H214.262L214.172 52C213.946 51.28 213.759 50.6767 213.612 50.19C213.472 49.6967 213.386 49.3867 213.352 49.26L213.312 49.06C213.252 49.3933 212.966 50.3767 212.452 52.01L212.362 52.3ZM215.062 54.86L214.582 53.33H212.032L211.552 54.86H210.232L212.512 48.12H214.142L216.422 54.86H215.062Z" fill="white"/>
<path d="M222.301 48.4V49.63C221.794 49.3367 221.234 49.19 220.621 49.19C220.007 49.19 219.494 49.4 219.081 49.82C218.674 50.2333 218.471 50.79 218.471 51.49C218.471 52.19 218.674 52.7467 219.081 53.16C219.494 53.5733 220.031 53.78 220.691 53.78C221.324 53.78 221.864 53.6133 222.311 53.28V54.54C221.897 54.8067 221.317 54.94 220.571 54.94C219.571 54.94 218.744 54.6267 218.091 54C217.444 53.3667 217.121 52.53 217.121 51.49C217.121 50.47 217.441 49.64 218.081 49C218.727 48.3533 219.557 48.03 220.571 48.03C221.311 48.03 221.887 48.1533 222.301 48.4Z" fill="white"/>
<path d="M227.734 48.12V49.16H226.024V54.86H224.754V49.16H223.044V48.12H227.734Z" fill="white"/>
<path d="M232.43 48.4V49.62C231.93 49.32 231.396 49.17 230.83 49.17C230.516 49.17 230.27 49.24 230.09 49.38C229.916 49.52 229.83 49.7 229.83 49.92C229.83 50.14 229.923 50.3233 230.11 50.47C230.303 50.61 230.59 50.7667 230.97 50.94C231.236 51.06 231.453 51.1667 231.62 51.26C231.786 51.3467 231.966 51.47 232.16 51.63C232.36 51.79 232.506 51.9833 232.6 52.21C232.7 52.43 232.75 52.6833 232.75 52.97C232.75 53.57 232.533 54.05 232.1 54.41C231.673 54.7633 231.11 54.94 230.41 54.94C229.65 54.94 229.02 54.7967 228.52 54.51V53.22C229.093 53.6333 229.72 53.84 230.4 53.84C230.706 53.84 230.953 53.7667 231.14 53.62C231.326 53.4667 231.42 53.2633 231.42 53.01C231.42 52.89 231.396 52.7833 231.35 52.69C231.303 52.5967 231.206 52.5033 231.06 52.41C230.92 52.3167 230.81 52.25 230.73 52.21C230.656 52.17 230.5 52.0967 230.26 51.99C230.193 51.9567 230.143 51.9333 230.11 51.92C229.863 51.8067 229.663 51.7067 229.51 51.62C229.356 51.5267 229.19 51.4033 229.01 51.25C228.83 51.0967 228.693 50.9133 228.6 50.7C228.513 50.4867 228.47 50.2433 228.47 49.97C228.47 49.3967 228.68 48.9367 229.1 48.59C229.526 48.2433 230.09 48.07 230.79 48.07C231.423 48.07 231.97 48.18 232.43 48.4Z" fill="white"/>
<path d="M503.004 19.2305L504.637 20.8633C504.694 20.9206 504.737 20.9814 504.766 21.0459C504.794 21.1104 504.809 21.1784 504.809 21.25C504.809 21.3288 504.794 21.4004 504.766 21.4648C504.737 21.5293 504.694 21.5866 504.637 21.6367C504.615 21.6654 504.587 21.6904 504.551 21.7119C504.522 21.7334 504.493 21.7513 504.465 21.7656C504.429 21.7799 504.393 21.7907 504.357 21.7979C504.322 21.805 504.286 21.8086 504.25 21.8086C504.221 21.8086 504.189 21.805 504.153 21.7979C504.118 21.7907 504.082 21.7799 504.046 21.7656C504.01 21.7513 503.978 21.7334 503.949 21.7119C503.921 21.6904 503.892 21.6654 503.863 21.6367L502.23 20.0039C502.066 20.1257 501.89 20.2367 501.704 20.3369C501.525 20.43 501.339 20.5088 501.146 20.5732C500.945 20.6449 500.741 20.6986 500.533 20.7344C500.326 20.763 500.114 20.7773 499.899 20.7773C499.627 20.7773 499.366 20.7523 499.115 20.7021C498.865 20.652 498.621 20.5768 498.385 20.4766C498.148 20.3763 497.926 20.2581 497.719 20.1221C497.511 19.9788 497.318 19.8177 497.139 19.6387C496.967 19.4668 496.809 19.277 496.666 19.0693C496.53 18.8617 496.412 18.6396 496.312 18.4033C496.211 18.167 496.132 17.9235 496.075 17.6729C496.025 17.4222 496 17.1644 496 16.8994C496 16.6273 496.025 16.3659 496.075 16.1152C496.132 15.8646 496.211 15.6211 496.312 15.3848C496.412 15.1484 496.53 14.9264 496.666 14.7188C496.809 14.5111 496.967 14.3177 497.139 14.1387C497.318 13.9668 497.511 13.8128 497.719 13.6768C497.926 13.5335 498.148 13.4118 498.385 13.3115C498.621 13.2113 498.865 13.1361 499.115 13.0859C499.366 13.0286 499.627 13 499.899 13C500.164 13 500.422 13.0286 500.673 13.0859C500.924 13.1361 501.167 13.2113 501.403 13.3115C501.64 13.4118 501.862 13.5335 502.069 13.6768C502.277 13.8128 502.467 13.9668 502.639 14.1387C502.818 14.3177 502.975 14.5111 503.111 14.7188C503.255 14.9264 503.376 15.1484 503.477 15.3848C503.577 15.6211 503.652 15.8646 503.702 16.1152C503.752 16.3659 503.777 16.6273 503.777 16.8994C503.777 17.1143 503.759 17.3255 503.724 17.5332C503.695 17.7409 503.645 17.945 503.573 18.1455C503.509 18.3389 503.426 18.5286 503.326 18.7148C503.233 18.8939 503.126 19.0658 503.004 19.2305ZM500.984 19.4668C501.149 19.388 501.303 19.3021 501.446 19.209C501.597 19.1087 501.736 18.9941 501.865 18.8652C501.994 18.7363 502.105 18.6003 502.198 18.457C502.299 18.3066 502.388 18.1491 502.467 17.9844C502.538 17.8125 502.592 17.637 502.628 17.458C502.664 17.279 502.682 17.0928 502.682 16.8994C502.682 16.7061 502.664 16.5199 502.628 16.3408C502.592 16.1546 502.538 15.9756 502.467 15.8037C502.388 15.639 502.299 15.4814 502.198 15.3311C502.105 15.1807 501.994 15.0446 501.865 14.9229C501.736 14.7939 501.597 14.6794 501.446 14.5791C501.303 14.4788 501.149 14.3929 500.984 14.3213C500.812 14.2497 500.637 14.196 500.458 14.1602C500.279 14.1243 500.093 14.1064 499.899 14.1064C499.706 14.1064 499.516 14.1243 499.33 14.1602C499.151 14.196 498.976 14.2497 498.804 14.3213C498.639 14.3929 498.481 14.4788 498.331 14.5791C498.181 14.6794 498.045 14.7939 497.923 14.9229C497.794 15.0446 497.679 15.1807 497.579 15.3311C497.479 15.4814 497.393 15.639 497.321 15.8037C497.25 15.9756 497.196 16.1546 497.16 16.3408C497.124 16.5199 497.106 16.7061 497.106 16.8994C497.106 17.0928 497.124 17.279 497.16 17.458C497.196 17.637 497.25 17.8125 497.321 17.9844C497.393 18.1491 497.479 18.3066 497.579 18.457C497.679 18.6003 497.794 18.7363 497.923 18.8652C498.045 18.9941 498.181 19.1087 498.331 19.209C498.481 19.3021 498.639 19.388 498.804 19.4668C498.976 19.5384 499.151 19.5921 499.33 19.6279C499.516 19.6637 499.706 19.6816 499.899 19.6816C500.093 19.6816 500.279 19.6637 500.458 19.6279C500.637 19.5921 500.812 19.5384 500.984 19.4668Z" fill="white"/>
<path d="M525.058 19.5527H519.558C519.472 19.5527 519.393 19.542 519.321 19.5205C519.257 19.4919 519.203 19.4525 519.16 19.4023C519.103 19.3522 519.06 19.2949 519.031 19.2305C519.01 19.166 518.999 19.0908 518.999 19.0049V14.6006H517.903V13.5049H519.558C519.636 13.5049 519.708 13.5192 519.772 13.5479C519.844 13.5693 519.905 13.6051 519.955 13.6553C520.005 13.7054 520.041 13.7663 520.062 13.8379C520.091 13.9023 520.105 13.974 520.105 14.0527V14.6006H526.153C526.275 14.6006 526.375 14.6257 526.454 14.6758C526.533 14.7259 526.587 14.8011 526.615 14.9014C526.644 15.0016 526.665 15.0876 526.68 15.1592C526.694 15.2236 526.701 15.2773 526.701 15.3203L525.605 19.166C525.577 19.2233 525.541 19.277 525.498 19.3271C525.462 19.3701 525.419 19.4095 525.369 19.4453C525.319 19.4811 525.265 19.5098 525.208 19.5312C525.158 19.5456 525.108 19.5527 525.058 19.5527ZM520.653 21.207C520.653 21.3574 520.625 21.4971 520.567 21.626C520.517 21.7549 520.438 21.873 520.331 21.9805C520.224 22.0879 520.105 22.1702 519.977 22.2275C519.848 22.2777 519.708 22.3027 519.558 22.3027C519.4 22.3027 519.257 22.2777 519.128 22.2275C518.999 22.1702 518.881 22.0879 518.773 21.9805C518.666 21.873 518.584 21.7549 518.526 21.626C518.476 21.4971 518.451 21.3574 518.451 21.207C518.451 21.0566 518.476 20.917 518.526 20.7881C518.584 20.652 518.666 20.5303 518.773 20.4229C518.881 20.3154 518.999 20.2367 519.128 20.1865C519.257 20.1292 519.4 20.1006 519.558 20.1006C519.708 20.1006 519.848 20.1292 519.977 20.1865C520.105 20.2367 520.224 20.3154 520.331 20.4229C520.438 20.5303 520.517 20.652 520.567 20.7881C520.625 20.917 520.653 21.0566 520.653 21.207ZM520.105 18.457H524.617L525.38 15.707H520.105V18.457ZM526.153 21.207C526.153 21.3574 526.125 21.4971 526.067 21.626C526.017 21.7549 525.938 21.873 525.831 21.9805C525.724 22.0879 525.605 22.1702 525.477 22.2275C525.348 22.2777 525.208 22.3027 525.058 22.3027C524.9 22.3027 524.757 22.2777 524.628 22.2275C524.499 22.1702 524.381 22.0879 524.273 21.9805C524.166 21.873 524.084 21.7549 524.026 21.626C523.976 21.4971 523.951 21.3574 523.951 21.207C523.951 21.0566 523.976 20.917 524.026 20.7881C524.084 20.652 524.166 20.5303 524.273 20.4229C524.381 20.3154 524.499 20.2367 524.628 20.1865C524.757 20.1292 524.9 20.1006 525.058 20.1006C525.208 20.1006 525.348 20.1292 525.477 20.1865C525.605 20.2367 525.724 20.3154 525.831 20.4229C525.938 20.5303 526.017 20.652 526.067 20.7881C526.125 20.917 526.153 21.0566 526.153 21.207Z" fill="white"/>
<path d="M547.165 18.8545C547.258 18.9261 547.344 19.0013 547.423 19.0801C547.502 19.1589 547.573 19.2448 547.638 19.3379C547.702 19.431 547.759 19.5277 547.81 19.6279C547.86 19.7282 547.903 19.832 547.938 19.9395C547.974 20.0469 547.999 20.1579 548.014 20.2725C548.035 20.3799 548.046 20.4945 548.046 20.6162V22.0986H540.354V20.6162C540.354 20.4945 540.362 20.3799 540.376 20.2725C540.397 20.1579 540.426 20.0469 540.462 19.9395C540.498 19.832 540.541 19.7282 540.591 19.6279C540.641 19.5277 540.698 19.4346 540.763 19.3486C540.827 19.2627 540.899 19.1803 540.978 19.1016C541.056 19.0228 541.142 18.9476 541.235 18.876C541.321 18.8115 541.414 18.7542 541.515 18.7041C541.615 18.654 541.722 18.611 541.837 18.5752C541.987 18.5179 542.123 18.4606 542.245 18.4033C542.374 18.346 542.485 18.2887 542.578 18.2314C542.678 18.167 542.761 18.1097 542.825 18.0596C542.897 18.0094 542.951 17.9629 542.986 17.9199C542.836 17.8125 542.7 17.6908 542.578 17.5547C542.456 17.4186 542.353 17.2682 542.267 17.1035C542.181 16.946 542.113 16.7812 542.062 16.6094C542.02 16.4303 541.998 16.2441 541.998 16.0508V15.5029C541.998 15.3454 542.012 15.1986 542.041 15.0625C542.07 14.9193 542.113 14.7796 542.17 14.6436C542.227 14.5075 542.295 14.3822 542.374 14.2676C542.453 14.153 542.542 14.0456 542.643 13.9453C542.743 13.8451 542.85 13.7555 542.965 13.6768C543.087 13.598 543.212 13.5299 543.341 13.4727C543.477 13.4154 543.617 13.3724 543.76 13.3438C543.903 13.3151 544.05 13.3008 544.2 13.3008C544.351 13.3008 544.497 13.3151 544.641 13.3438C544.784 13.3724 544.924 13.4154 545.06 13.4727C545.188 13.5299 545.31 13.598 545.425 13.6768C545.547 13.7555 545.658 13.8451 545.758 13.9453C545.858 14.0456 545.948 14.153 546.026 14.2676C546.105 14.3822 546.173 14.5075 546.23 14.6436C546.288 14.7796 546.331 14.9193 546.359 15.0625C546.388 15.1986 546.402 15.3454 546.402 15.5029V16.0508C546.402 16.2441 546.377 16.4303 546.327 16.6094C546.284 16.7812 546.22 16.946 546.134 17.1035C546.048 17.2611 545.944 17.4043 545.822 17.5332C545.701 17.6549 545.564 17.766 545.414 17.8662C545.436 17.9163 545.479 17.9701 545.543 18.0273C545.607 18.0846 545.686 18.1383 545.779 18.1885C545.88 18.2458 545.994 18.3031 546.123 18.3604C546.252 18.4176 546.399 18.4714 546.563 18.5215C546.678 18.5645 546.785 18.6146 546.886 18.6719C546.986 18.722 547.079 18.7829 547.165 18.8545ZM546.95 20.6162C546.95 20.5016 546.932 20.3978 546.896 20.3047C546.868 20.2044 546.821 20.1077 546.757 20.0146C546.692 19.9215 546.617 19.8428 546.531 19.7783C546.445 19.7139 546.349 19.6637 546.241 19.6279C545.976 19.542 545.74 19.4525 545.532 19.3594C545.325 19.2591 545.142 19.1553 544.984 19.0479C544.827 18.9333 544.691 18.8151 544.576 18.6934C544.469 18.5716 544.379 18.4391 544.308 18.2959H544.093C544.021 18.4391 543.928 18.5716 543.813 18.6934C543.699 18.8151 543.559 18.9333 543.395 19.0479C543.237 19.1553 543.054 19.2591 542.847 19.3594C542.639 19.4525 542.41 19.542 542.159 19.6279C542.052 19.6566 541.955 19.7031 541.869 19.7676C541.783 19.8249 541.708 19.9001 541.644 19.9932C541.579 20.0934 541.529 20.1937 541.493 20.2939C541.465 20.3942 541.45 20.5016 541.45 20.6162V21.0029H546.95V20.6162ZM543.104 16.0508C543.104 16.2012 543.13 16.3408 543.18 16.4697C543.237 16.5986 543.319 16.7168 543.427 16.8242C543.534 16.9316 543.652 17.014 543.781 17.0713C543.91 17.1214 544.05 17.1465 544.2 17.1465C544.351 17.1465 544.49 17.1214 544.619 17.0713C544.748 17.014 544.866 16.9316 544.974 16.8242C545.081 16.7168 545.16 16.5986 545.21 16.4697C545.267 16.3408 545.296 16.2012 545.296 16.0508V15.5029C545.296 15.3454 545.267 15.2021 545.21 15.0732C545.16 14.9443 545.081 14.8262 544.974 14.7188C544.866 14.6113 544.748 14.5326 544.619 14.4824C544.49 14.4251 544.351 14.3965 544.2 14.3965C544.05 14.3965 543.91 14.4251 543.781 14.4824C543.652 14.5326 543.534 14.6113 543.427 14.7188C543.319 14.8262 543.237 14.9443 543.18 15.0732C543.13 15.2021 543.104 15.3454 543.104 15.5029V16.0508Z" fill="white"/>
<rect x="2" y="35" width="568" height="1" fill="white"/>
</svg>
