<svg width="570" height="70" viewBox="0 0 570 70" fill="none" xmlns="http://www.w3.org/2000/svg">
<rect x="1" y="1" width="568" height="68" rx="5" stroke="white" stroke-width="2"/>
<path d="M261.608 21.824L259 13.712H261.416L262.12 16.384C262.291 17.056 262.435 17.664 262.552 18.208C262.669 18.7413 262.739 19.1093 262.76 19.312L262.808 19.616C262.883 18.976 263.144 17.8987 263.592 16.384L264.376 13.712H266.392L267.16 16.384C267.352 17.0667 267.512 17.68 267.64 18.224C267.768 18.7573 267.848 19.1253 267.88 19.328L267.928 19.616C268.003 18.9867 268.253 17.9093 268.68 16.384L269.432 13.712H271.736L269.144 21.824H266.744L266.04 19.168C265.891 18.592 265.757 18.0533 265.64 17.552C265.533 17.0507 265.464 16.6933 265.432 16.48L265.384 16.16C265.277 16.8747 265.053 17.8773 264.712 19.168L264.008 21.824H261.608Z" fill="white"/>
<path d="M276.355 21.952C275.085 21.952 274.104 21.5733 273.411 20.816C272.717 20.048 272.371 19.0667 272.371 17.872C272.371 16.624 272.733 15.6 273.459 14.8C274.184 13.9893 275.149 13.584 276.355 13.584C277.613 13.584 278.589 13.9733 279.283 14.752C279.976 15.5307 280.323 16.5227 280.323 17.728C280.323 18.9547 279.971 19.968 279.267 20.768C278.573 21.5573 277.603 21.952 276.355 21.952ZM276.339 15.424C275.827 15.424 275.443 15.6427 275.187 16.08C274.931 16.5173 274.803 17.0827 274.803 17.776C274.803 18.4693 274.931 19.04 275.187 19.488C275.453 19.9253 275.848 20.144 276.371 20.144C276.883 20.144 277.261 19.9307 277.507 19.504C277.763 19.0667 277.891 18.5013 277.891 17.808C277.891 16.2187 277.373 15.424 276.339 15.424Z" fill="white"/>
<path d="M289.481 21.824H286.777L284.185 17.84V21.824H281.849V10.784H284.185V17.344L286.745 13.712H289.433L286.617 17.6L289.481 21.824Z" fill="white"/>
<path d="M290.694 21.824V13.712H293.03V21.824H290.694ZM290.902 12.32C290.636 12.0533 290.502 11.7333 290.502 11.36C290.502 10.9867 290.636 10.6667 290.902 10.4C291.169 10.1333 291.489 10 291.862 10C292.236 10 292.556 10.1333 292.822 10.4C293.089 10.6667 293.222 10.9867 293.222 11.36C293.222 11.7333 293.089 12.0533 292.822 12.32C292.556 12.5867 292.236 12.72 291.862 12.72C291.489 12.72 291.169 12.5867 290.902 12.32Z" fill="white"/>
<path d="M299.724 17.024V16.832C299.65 15.8827 299.234 15.408 298.476 15.408C298.103 15.408 297.772 15.5467 297.484 15.824C297.196 16.0907 297.004 16.4907 296.908 17.024H299.724ZM301.404 19.408V21.36C300.85 21.7227 300.002 21.904 298.86 21.904C297.527 21.904 296.487 21.52 295.74 20.752C295.004 19.9733 294.636 18.976 294.636 17.76C294.636 16.4693 294.994 15.4613 295.708 14.736C296.434 14 297.324 13.632 298.38 13.632C299.468 13.632 300.327 13.952 300.956 14.592C301.586 15.2213 301.9 16.1653 301.9 17.424C301.9 17.6693 301.858 18.0907 301.772 18.688H297.004C297.164 19.136 297.442 19.4827 297.836 19.728C298.231 19.9733 298.706 20.096 299.26 20.096C300.082 20.096 300.796 19.8667 301.404 19.408Z" fill="white"/>
<path d="M308.256 17.024V16.832C308.181 15.8827 307.765 15.408 307.007 15.408C306.634 15.408 306.303 15.5467 306.015 15.824C305.728 16.0907 305.535 16.4907 305.439 17.024H308.256ZM309.936 19.408V21.36C309.381 21.7227 308.533 21.904 307.391 21.904C306.058 21.904 305.018 21.52 304.271 20.752C303.535 19.9733 303.167 18.976 303.167 17.76C303.167 16.4693 303.525 15.4613 304.24 14.736C304.965 14 305.855 13.632 306.911 13.632C308 13.632 308.858 13.952 309.487 14.592C310.117 15.2213 310.431 16.1653 310.431 17.424C310.431 17.6693 310.389 18.0907 310.304 18.688H305.535C305.695 19.136 305.973 19.4827 306.368 19.728C306.762 19.9733 307.237 20.096 307.792 20.096C308.613 20.096 309.327 19.8667 309.936 19.408Z" fill="white"/>
<path d="M181.03 31.12H182.3V37.86H181.03V35.03H178.26V37.86H177V31.12H178.26V33.94H181.03V31.12Z" fill="white"/>
<path d="M183.429 34.47C183.429 33.4233 183.716 32.5833 184.289 31.95C184.869 31.3167 185.643 31 186.609 31C187.589 31 188.366 31.3167 188.939 31.95C189.513 32.5767 189.799 33.4167 189.799 34.47C189.799 35.51 189.509 36.3467 188.929 36.98C188.356 37.6133 187.586 37.93 186.619 37.93C185.653 37.93 184.879 37.6133 184.299 36.98C183.719 36.3467 183.429 35.51 183.429 34.47ZM184.779 34.47C184.779 35.1767 184.946 35.7367 185.279 36.15C185.613 36.5633 186.059 36.77 186.619 36.77C187.186 36.77 187.633 36.5667 187.959 36.16C188.286 35.7467 188.449 35.1833 188.449 34.47C188.449 33.7567 188.286 33.1933 187.959 32.78C187.633 32.3667 187.183 32.16 186.609 32.16C186.043 32.16 185.596 32.3667 185.269 32.78C184.943 33.1933 184.779 33.7567 184.779 34.47Z" fill="white"/>
<path d="M190.806 37.86L191.346 31.12H192.786L193.706 33.57C193.866 33.9833 194.016 34.3967 194.156 34.81C194.296 35.2167 194.396 35.52 194.456 35.72L194.546 36.03C194.752 35.3367 195.039 34.5167 195.406 33.57L196.346 31.12H197.786L198.446 37.86H197.186L196.946 35.23L196.766 32.87C196.526 33.5567 196.239 34.3433 195.906 35.23L194.966 37.76H194.106L193.186 35.23L192.396 32.9C192.396 33.2267 192.352 34.0033 192.266 35.23L192.066 37.86H190.806Z" fill="white"/>
<path d="M200.995 36.83H203.745V37.86H199.725V31.12H203.705V32.15H200.995V33.98H203.405V35H200.995V36.83Z" fill="white"/>
<path d="M218.68 31.4V32.62C218.18 32.32 217.646 32.17 217.08 32.17C216.766 32.17 216.52 32.24 216.34 32.38C216.166 32.52 216.08 32.7 216.08 32.92C216.08 33.14 216.173 33.3233 216.36 33.47C216.553 33.61 216.84 33.7667 217.22 33.94C217.486 34.06 217.703 34.1667 217.87 34.26C218.036 34.3467 218.216 34.47 218.41 34.63C218.61 34.79 218.756 34.9833 218.85 35.21C218.95 35.43 219 35.6833 219 35.97C219 36.57 218.783 37.05 218.35 37.41C217.923 37.7633 217.36 37.94 216.66 37.94C215.9 37.94 215.27 37.7967 214.77 37.51V36.22C215.343 36.6333 215.97 36.84 216.65 36.84C216.956 36.84 217.203 36.7667 217.39 36.62C217.576 36.4667 217.67 36.2633 217.67 36.01C217.67 35.89 217.646 35.7833 217.6 35.69C217.553 35.5967 217.456 35.5033 217.31 35.41C217.17 35.3167 217.06 35.25 216.98 35.21C216.906 35.17 216.75 35.0967 216.51 34.99C216.443 34.9567 216.393 34.9333 216.36 34.92C216.113 34.8067 215.913 34.7067 215.76 34.62C215.606 34.5267 215.44 34.4033 215.26 34.25C215.08 34.0967 214.943 33.9133 214.85 33.7C214.763 33.4867 214.72 33.2433 214.72 32.97C214.72 32.3967 214.93 31.9367 215.35 31.59C215.776 31.2433 216.34 31.07 217.04 31.07C217.673 31.07 218.22 31.18 218.68 31.4Z" fill="white"/>
<path d="M224.135 31.12H225.405V37.86H224.135V35.03H221.365V37.86H220.105V31.12H221.365V33.94H224.135V31.12Z" fill="white"/>
<path d="M226.535 34.47C226.535 33.4233 226.821 32.5833 227.395 31.95C227.975 31.3167 228.748 31 229.715 31C230.695 31 231.471 31.3167 232.045 31.95C232.618 32.5767 232.905 33.4167 232.905 34.47C232.905 35.51 232.615 36.3467 232.035 36.98C231.461 37.6133 230.691 37.93 229.725 37.93C228.758 37.93 227.985 37.6133 227.405 36.98C226.825 36.3467 226.535 35.51 226.535 34.47ZM227.885 34.47C227.885 35.1767 228.051 35.7367 228.385 36.15C228.718 36.5633 229.165 36.77 229.725 36.77C230.291 36.77 230.738 36.5667 231.065 36.16C231.391 35.7467 231.555 35.1833 231.555 34.47C231.555 33.7567 231.391 33.1933 231.065 32.78C230.738 32.3667 230.288 32.16 229.715 32.16C229.148 32.16 228.701 32.3667 228.375 32.78C228.048 33.1933 227.885 33.7567 227.885 34.47Z" fill="white"/>
<path d="M235.291 34.55H236.001C236.461 34.55 236.805 34.44 237.031 34.22C237.258 34 237.371 33.7033 237.371 33.33C237.371 32.9633 237.258 32.6767 237.031 32.47C236.805 32.2567 236.471 32.15 236.031 32.15H235.291V34.55ZM234.031 31.12H236.141C236.901 31.12 237.508 31.3267 237.961 31.74C238.421 32.1533 238.651 32.6833 238.651 33.33C238.651 34.0167 238.415 34.5633 237.941 34.97C237.475 35.37 236.885 35.57 236.171 35.57H235.291V37.86H234.031V31.12Z" fill="white"/>
<path d="M250.77 36.83H251.85C252.656 36.83 253.06 36.5233 253.06 35.91C253.06 35.2833 252.64 34.97 251.8 34.97H250.77V36.83ZM250.77 32.15V33.96H251.53C251.983 33.96 252.323 33.87 252.55 33.69C252.776 33.51 252.89 33.28 252.89 33C252.89 32.74 252.793 32.5333 252.6 32.38C252.413 32.2267 252.126 32.15 251.74 32.15H250.77ZM249.51 31.12H251.9C252.62 31.12 253.18 31.29 253.58 31.63C253.98 31.97 254.18 32.41 254.18 32.95C254.18 33.3167 254.08 33.6367 253.88 33.91C253.68 34.1767 253.423 34.3533 253.11 34.44C253.47 34.5267 253.766 34.7033 254 34.97C254.233 35.23 254.35 35.5867 254.35 36.04C254.35 36.5733 254.163 37.01 253.79 37.35C253.416 37.69 252.9 37.86 252.24 37.86H249.51V31.12Z" fill="white"/>
<path d="M256.688 36.74H259.318V37.86H255.428V31.12H256.688V36.74Z" fill="white"/>
<path d="M260.001 34.47C260.001 33.4233 260.288 32.5833 260.861 31.95C261.441 31.3167 262.215 31 263.181 31C264.161 31 264.938 31.3167 265.511 31.95C266.085 32.5767 266.371 33.4167 266.371 34.47C266.371 35.51 266.081 36.3467 265.501 36.98C264.928 37.6133 264.158 37.93 263.191 37.93C262.225 37.93 261.451 37.6133 260.871 36.98C260.291 36.3467 260.001 35.51 260.001 34.47ZM261.351 34.47C261.351 35.1767 261.518 35.7367 261.851 36.15C262.185 36.5633 262.631 36.77 263.191 36.77C263.758 36.77 264.205 36.5667 264.531 36.16C264.858 35.7467 265.021 35.1833 265.021 34.47C265.021 33.7567 264.858 33.1933 264.531 32.78C264.205 32.3667 263.755 32.16 263.181 32.16C262.615 32.16 262.168 32.3667 261.841 32.78C261.515 33.1933 261.351 33.7567 261.351 34.47Z" fill="white"/>
<path d="M273.098 33.93V37.17H273.088L273.098 37.28C272.485 37.72 271.718 37.94 270.798 37.94C269.731 37.94 268.868 37.63 268.208 37.01C267.555 36.39 267.228 35.5467 267.228 34.48C267.228 33.44 267.565 32.6 268.238 31.96C268.918 31.32 269.775 31 270.808 31C271.575 31 272.231 31.1433 272.778 31.43V32.72C272.165 32.3533 271.515 32.17 270.828 32.17C270.155 32.17 269.611 32.38 269.198 32.8C268.785 33.22 268.578 33.78 268.578 34.48C268.578 35.1933 268.778 35.7567 269.178 36.17C269.585 36.5767 270.141 36.78 270.848 36.78C271.195 36.78 271.531 36.72 271.858 36.6V35.01H270.618V33.93H273.098Z" fill="white"/>
<path d="M285.614 34.55H286.324C286.784 34.55 287.127 34.44 287.354 34.22C287.58 34 287.694 33.7033 287.694 33.33C287.694 32.9633 287.58 32.6767 287.354 32.47C287.127 32.2567 286.794 32.15 286.354 32.15H285.614V34.55ZM284.354 31.12H286.464C287.224 31.12 287.83 31.3267 288.284 31.74C288.744 32.1533 288.974 32.6833 288.974 33.33C288.974 34.0167 288.737 34.5633 288.264 34.97C287.797 35.37 287.207 35.57 286.494 35.57H285.614V37.86H284.354V31.12Z" fill="white"/>
<path d="M289.64 34.47C289.64 33.4233 289.927 32.5833 290.5 31.95C291.08 31.3167 291.853 31 292.82 31C293.8 31 294.577 31.3167 295.15 31.95C295.723 32.5767 296.01 33.4167 296.01 34.47C296.01 35.51 295.72 36.3467 295.14 36.98C294.567 37.6133 293.797 37.93 292.83 37.93C291.863 37.93 291.09 37.6133 290.51 36.98C289.93 36.3467 289.64 35.51 289.64 34.47ZM290.99 34.47C290.99 35.1767 291.157 35.7367 291.49 36.15C291.823 36.5633 292.27 36.77 292.83 36.77C293.397 36.77 293.843 36.5667 294.17 36.16C294.497 35.7467 294.66 35.1833 294.66 34.47C294.66 33.7567 294.497 33.1933 294.17 32.78C293.843 32.3667 293.393 32.16 292.82 32.16C292.253 32.16 291.807 32.3667 291.48 32.78C291.153 33.1933 290.99 33.7567 290.99 34.47Z" fill="white"/>
<path d="M298.397 32.16V34.36H299.237C299.623 34.36 299.913 34.2633 300.107 34.07C300.3 33.87 300.397 33.5933 300.397 33.24C300.397 32.8933 300.293 32.6267 300.087 32.44C299.887 32.2533 299.597 32.16 299.217 32.16H298.397ZM300.617 37.86L299.087 35.4H298.397V37.86H297.137V31.12H299.217C299.983 31.12 300.583 31.3133 301.017 31.7C301.457 32.0867 301.677 32.6033 301.677 33.25C301.67 33.73 301.553 34.1367 301.327 34.47C301.1 34.7967 300.79 35.04 300.397 35.2L302.127 37.86H300.617Z" fill="white"/>
<path d="M307.275 31.12V32.16H305.565V37.86H304.295V32.16H302.585V31.12H307.275Z" fill="white"/>
<path d="M312.171 32.15H309.491V34.14H311.831V35.17H309.491V37.86H308.221V31.12H312.171V32.15Z" fill="white"/>
<path d="M312.941 34.47C312.941 33.4233 313.228 32.5833 313.801 31.95C314.381 31.3167 315.154 31 316.121 31C317.101 31 317.878 31.3167 318.451 31.95C319.024 32.5767 319.311 33.4167 319.311 34.47C319.311 35.51 319.021 36.3467 318.441 36.98C317.868 37.6133 317.098 37.93 316.131 37.93C315.164 37.93 314.391 37.6133 313.811 36.98C313.231 36.3467 312.941 35.51 312.941 34.47ZM314.291 34.47C314.291 35.1767 314.458 35.7367 314.791 36.15C315.124 36.5633 315.571 36.77 316.131 36.77C316.698 36.77 317.144 36.5667 317.471 36.16C317.798 35.7467 317.961 35.1833 317.961 34.47C317.961 33.7567 317.798 33.1933 317.471 32.78C317.144 32.3667 316.694 32.16 316.121 32.16C315.554 32.16 315.108 32.3667 314.781 32.78C314.454 33.1933 314.291 33.7567 314.291 34.47Z" fill="white"/>
<path d="M321.697 36.74H324.327V37.86H320.438V31.12H321.697V36.74Z" fill="white"/>
<path d="M325.361 37.86V31.12H326.621V37.86H325.361Z" fill="white"/>
<path d="M327.834 34.47C327.834 33.4233 328.12 32.5833 328.694 31.95C329.274 31.3167 330.047 31 331.014 31C331.994 31 332.77 31.3167 333.344 31.95C333.917 32.5767 334.204 33.4167 334.204 34.47C334.204 35.51 333.914 36.3467 333.334 36.98C332.76 37.6133 331.99 37.93 331.024 37.93C330.057 37.93 329.284 37.6133 328.704 36.98C328.124 36.3467 327.834 35.51 327.834 34.47ZM329.184 34.47C329.184 35.1767 329.35 35.7367 329.684 36.15C330.017 36.5633 330.464 36.77 331.024 36.77C331.59 36.77 332.037 36.5667 332.364 36.16C332.69 35.7467 332.854 35.1833 332.854 34.47C332.854 33.7567 332.69 33.1933 332.364 32.78C332.037 32.3667 331.587 32.16 331.014 32.16C330.447 32.16 330 32.3667 329.674 32.78C329.347 33.1933 329.184 33.7567 329.184 34.47Z" fill="white"/>
<path d="M350.162 31.4V32.63C349.655 32.3367 349.095 32.19 348.482 32.19C347.869 32.19 347.355 32.4 346.942 32.82C346.535 33.2333 346.332 33.79 346.332 34.49C346.332 35.19 346.535 35.7467 346.942 36.16C347.355 36.5733 347.892 36.78 348.552 36.78C349.185 36.78 349.725 36.6133 350.172 36.28V37.54C349.759 37.8067 349.179 37.94 348.432 37.94C347.432 37.94 346.605 37.6267 345.952 37C345.305 36.3667 344.982 35.53 344.982 34.49C344.982 33.47 345.302 32.64 345.942 32C346.589 31.3533 347.419 31.03 348.432 31.03C349.172 31.03 349.749 31.1533 350.162 31.4Z" fill="white"/>
<path d="M351.076 34.47C351.076 33.4233 351.362 32.5833 351.936 31.95C352.516 31.3167 353.289 31 354.256 31C355.236 31 356.012 31.3167 356.586 31.95C357.159 32.5767 357.446 33.4167 357.446 34.47C357.446 35.51 357.156 36.3467 356.576 36.98C356.002 37.6133 355.232 37.93 354.266 37.93C353.299 37.93 352.526 37.6133 351.946 36.98C351.366 36.3467 351.076 35.51 351.076 34.47ZM352.426 34.47C352.426 35.1767 352.592 35.7367 352.926 36.15C353.259 36.5633 353.706 36.77 354.266 36.77C354.832 36.77 355.279 36.5667 355.606 36.16C355.932 35.7467 356.096 35.1833 356.096 34.47C356.096 33.7567 355.932 33.1933 355.606 32.78C355.279 32.3667 354.829 32.16 354.256 32.16C353.689 32.16 353.242 32.3667 352.916 32.78C352.589 33.1933 352.426 33.7567 352.426 34.47Z" fill="white"/>
<path d="M358.572 37.86V31.12H360.002L361.622 33.93C361.889 34.39 362.126 34.82 362.332 35.22C362.546 35.6133 362.689 35.8933 362.762 36.06L362.872 36.31C362.819 35.7567 362.792 34.9633 362.792 33.93V31.12H364.062V37.86H362.622L360.982 35.06C360.722 34.62 360.486 34.2 360.272 33.8C360.066 33.3933 359.922 33.1 359.842 32.92L359.722 32.64C359.796 33.2733 359.832 34.0767 359.832 35.05V37.86H358.572Z" fill="white"/>
<path d="M369.707 31.12V32.16H367.997V37.86H366.727V32.16H365.017V31.12H369.707Z" fill="white"/>
<path d="M372.362 35.3H374.262L374.172 35C373.946 34.28 373.759 33.6767 373.612 33.19C373.472 32.6967 373.386 32.3867 373.352 32.26L373.312 32.06C373.252 32.3933 372.966 33.3767 372.452 35.01L372.362 35.3ZM375.062 37.86L374.582 36.33H372.032L371.552 37.86H370.232L372.512 31.12H374.142L376.422 37.86H375.062Z" fill="white"/>
<path d="M382.301 31.4V32.63C381.794 32.3367 381.234 32.19 380.621 32.19C380.007 32.19 379.494 32.4 379.081 32.82C378.674 33.2333 378.471 33.79 378.471 34.49C378.471 35.19 378.674 35.7467 379.081 36.16C379.494 36.5733 380.031 36.78 380.691 36.78C381.324 36.78 381.864 36.6133 382.311 36.28V37.54C381.897 37.8067 381.317 37.94 380.571 37.94C379.571 37.94 378.744 37.6267 378.091 37C377.444 36.3667 377.121 35.53 377.121 34.49C377.121 33.47 377.441 32.64 378.081 32C378.727 31.3533 379.557 31.03 380.571 31.03C381.311 31.03 381.887 31.1533 382.301 31.4Z" fill="white"/>
<path d="M387.734 31.12V32.16H386.024V37.86H384.754V32.16H383.044V31.12H387.734Z" fill="white"/>
<path d="M392.43 31.4V32.62C391.93 32.32 391.396 32.17 390.83 32.17C390.516 32.17 390.27 32.24 390.09 32.38C389.916 32.52 389.83 32.7 389.83 32.92C389.83 33.14 389.923 33.3233 390.11 33.47C390.303 33.61 390.59 33.7667 390.97 33.94C391.236 34.06 391.453 34.1667 391.62 34.26C391.786 34.3467 391.966 34.47 392.16 34.63C392.36 34.79 392.506 34.9833 392.6 35.21C392.7 35.43 392.75 35.6833 392.75 35.97C392.75 36.57 392.533 37.05 392.1 37.41C391.673 37.7633 391.11 37.94 390.41 37.94C389.65 37.94 389.02 37.7967 388.52 37.51V36.22C389.093 36.6333 389.72 36.84 390.4 36.84C390.706 36.84 390.953 36.7667 391.14 36.62C391.326 36.4667 391.42 36.2633 391.42 36.01C391.42 35.89 391.396 35.7833 391.35 35.69C391.303 35.5967 391.206 35.5033 391.06 35.41C390.92 35.3167 390.81 35.25 390.73 35.21C390.656 35.17 390.5 35.0967 390.26 34.99C390.193 34.9567 390.143 34.9333 390.11 34.92C389.863 34.8067 389.663 34.7067 389.51 34.62C389.356 34.5267 389.19 34.4033 389.01 34.25C388.83 34.0967 388.693 33.9133 388.6 33.7C388.513 33.4867 388.47 33.2433 388.47 32.97C388.47 32.3967 388.68 31.9367 389.1 31.59C389.526 31.2433 390.09 31.07 390.79 31.07C391.423 31.07 391.97 31.18 392.43 31.4Z" fill="white"/>
<path d="M503.004 19.2305L504.637 20.8633C504.694 20.9206 504.737 20.9814 504.766 21.0459C504.794 21.1104 504.809 21.1784 504.809 21.25C504.809 21.3288 504.794 21.4004 504.766 21.4648C504.737 21.5293 504.694 21.5866 504.637 21.6367C504.615 21.6654 504.587 21.6904 504.551 21.7119C504.522 21.7334 504.493 21.7513 504.465 21.7656C504.429 21.7799 504.393 21.7907 504.357 21.7979C504.322 21.805 504.286 21.8086 504.25 21.8086C504.221 21.8086 504.189 21.805 504.153 21.7979C504.118 21.7907 504.082 21.7799 504.046 21.7656C504.01 21.7513 503.978 21.7334 503.949 21.7119C503.921 21.6904 503.892 21.6654 503.863 21.6367L502.23 20.0039C502.066 20.1257 501.89 20.2367 501.704 20.3369C501.525 20.43 501.339 20.5088 501.146 20.5732C500.945 20.6449 500.741 20.6986 500.533 20.7344C500.326 20.763 500.114 20.7773 499.899 20.7773C499.627 20.7773 499.366 20.7523 499.115 20.7021C498.865 20.652 498.621 20.5768 498.385 20.4766C498.148 20.3763 497.926 20.2581 497.719 20.1221C497.511 19.9788 497.318 19.8177 497.139 19.6387C496.967 19.4668 496.809 19.277 496.666 19.0693C496.53 18.8617 496.412 18.6396 496.312 18.4033C496.211 18.167 496.132 17.9235 496.075 17.6729C496.025 17.4222 496 17.1644 496 16.8994C496 16.6273 496.025 16.3659 496.075 16.1152C496.132 15.8646 496.211 15.6211 496.312 15.3848C496.412 15.1484 496.53 14.9264 496.666 14.7188C496.809 14.5111 496.967 14.3177 497.139 14.1387C497.318 13.9668 497.511 13.8128 497.719 13.6768C497.926 13.5335 498.148 13.4118 498.385 13.3115C498.621 13.2113 498.865 13.1361 499.115 13.0859C499.366 13.0286 499.627 13 499.899 13C500.164 13 500.422 13.0286 500.673 13.0859C500.924 13.1361 501.167 13.2113 501.403 13.3115C501.64 13.4118 501.862 13.5335 502.069 13.6768C502.277 13.8128 502.467 13.9668 502.639 14.1387C502.818 14.3177 502.975 14.5111 503.111 14.7188C503.255 14.9264 503.376 15.1484 503.477 15.3848C503.577 15.6211 503.652 15.8646 503.702 16.1152C503.752 16.3659 503.777 16.6273 503.777 16.8994C503.777 17.1143 503.759 17.3255 503.724 17.5332C503.695 17.7409 503.645 17.945 503.573 18.1455C503.509 18.3389 503.426 18.5286 503.326 18.7148C503.233 18.8939 503.126 19.0658 503.004 19.2305ZM500.984 19.4668C501.149 19.388 501.303 19.3021 501.446 19.209C501.597 19.1087 501.736 18.9941 501.865 18.8652C501.994 18.7363 502.105 18.6003 502.198 18.457C502.299 18.3066 502.388 18.1491 502.467 17.9844C502.538 17.8125 502.592 17.637 502.628 17.458C502.664 17.279 502.682 17.0928 502.682 16.8994C502.682 16.7061 502.664 16.5199 502.628 16.3408C502.592 16.1546 502.538 15.9756 502.467 15.8037C502.388 15.639 502.299 15.4814 502.198 15.3311C502.105 15.1807 501.994 15.0446 501.865 14.9229C501.736 14.7939 501.597 14.6794 501.446 14.5791C501.303 14.4788 501.149 14.3929 500.984 14.3213C500.812 14.2497 500.637 14.196 500.458 14.1602C500.279 14.1243 500.093 14.1064 499.899 14.1064C499.706 14.1064 499.516 14.1243 499.33 14.1602C499.151 14.196 498.976 14.2497 498.804 14.3213C498.639 14.3929 498.481 14.4788 498.331 14.5791C498.181 14.6794 498.045 14.7939 497.923 14.9229C497.794 15.0446 497.679 15.1807 497.579 15.3311C497.479 15.4814 497.393 15.639 497.321 15.8037C497.25 15.9756 497.196 16.1546 497.16 16.3408C497.124 16.5199 497.106 16.7061 497.106 16.8994C497.106 17.0928 497.124 17.279 497.16 17.458C497.196 17.637 497.25 17.8125 497.321 17.9844C497.393 18.1491 497.479 18.3066 497.579 18.457C497.679 18.6003 497.794 18.7363 497.923 18.8652C498.045 18.9941 498.181 19.1087 498.331 19.209C498.481 19.3021 498.639 19.388 498.804 19.4668C498.976 19.5384 499.151 19.5921 499.33 19.6279C499.516 19.6637 499.706 19.6816 499.899 19.6816C500.093 19.6816 500.279 19.6637 500.458 19.6279C500.637 19.5921 500.812 19.5384 500.984 19.4668Z" fill="white"/>
<path d="M525.058 19.5527H519.558C519.472 19.5527 519.393 19.542 519.321 19.5205C519.257 19.4919 519.203 19.4525 519.16 19.4023C519.103 19.3522 519.06 19.2949 519.031 19.2305C519.01 19.166 518.999 19.0908 518.999 19.0049V14.6006H517.903V13.5049H519.558C519.636 13.5049 519.708 13.5192 519.772 13.5479C519.844 13.5693 519.905 13.6051 519.955 13.6553C520.005 13.7054 520.041 13.7663 520.062 13.8379C520.091 13.9023 520.105 13.974 520.105 14.0527V14.6006H526.153C526.275 14.6006 526.375 14.6257 526.454 14.6758C526.533 14.7259 526.587 14.8011 526.615 14.9014C526.644 15.0016 526.665 15.0876 526.68 15.1592C526.694 15.2236 526.701 15.2773 526.701 15.3203L525.605 19.166C525.577 19.2233 525.541 19.277 525.498 19.3271C525.462 19.3701 525.419 19.4095 525.369 19.4453C525.319 19.4811 525.265 19.5098 525.208 19.5312C525.158 19.5456 525.108 19.5527 525.058 19.5527ZM520.653 21.207C520.653 21.3574 520.625 21.4971 520.567 21.626C520.517 21.7549 520.438 21.873 520.331 21.9805C520.224 22.0879 520.105 22.1702 519.977 22.2275C519.848 22.2777 519.708 22.3027 519.558 22.3027C519.4 22.3027 519.257 22.2777 519.128 22.2275C518.999 22.1702 518.881 22.0879 518.773 21.9805C518.666 21.873 518.584 21.7549 518.526 21.626C518.476 21.4971 518.451 21.3574 518.451 21.207C518.451 21.0566 518.476 20.917 518.526 20.7881C518.584 20.652 518.666 20.5303 518.773 20.4229C518.881 20.3154 518.999 20.2367 519.128 20.1865C519.257 20.1292 519.4 20.1006 519.558 20.1006C519.708 20.1006 519.848 20.1292 519.977 20.1865C520.105 20.2367 520.224 20.3154 520.331 20.4229C520.438 20.5303 520.517 20.652 520.567 20.7881C520.625 20.917 520.653 21.0566 520.653 21.207ZM520.105 18.457H524.617L525.38 15.707H520.105V18.457ZM526.153 21.207C526.153 21.3574 526.125 21.4971 526.067 21.626C526.017 21.7549 525.938 21.873 525.831 21.9805C525.724 22.0879 525.605 22.1702 525.477 22.2275C525.348 22.2777 525.208 22.3027 525.058 22.3027C524.9 22.3027 524.757 22.2777 524.628 22.2275C524.499 22.1702 524.381 22.0879 524.273 21.9805C524.166 21.873 524.084 21.7549 524.026 21.626C523.976 21.4971 523.951 21.3574 523.951 21.207C523.951 21.0566 523.976 20.917 524.026 20.7881C524.084 20.652 524.166 20.5303 524.273 20.4229C524.381 20.3154 524.499 20.2367 524.628 20.1865C524.757 20.1292 524.9 20.1006 525.058 20.1006C525.208 20.1006 525.348 20.1292 525.477 20.1865C525.605 20.2367 525.724 20.3154 525.831 20.4229C525.938 20.5303 526.017 20.652 526.067 20.7881C526.125 20.917 526.153 21.0566 526.153 21.207Z" fill="white"/>
<path d="M547.165 18.8545C547.258 18.9261 547.344 19.0013 547.423 19.0801C547.502 19.1589 547.573 19.2448 547.638 19.3379C547.702 19.431 547.759 19.5277 547.81 19.6279C547.86 19.7282 547.903 19.832 547.938 19.9395C547.974 20.0469 547.999 20.1579 548.014 20.2725C548.035 20.3799 548.046 20.4945 548.046 20.6162V22.0986H540.354V20.6162C540.354 20.4945 540.362 20.3799 540.376 20.2725C540.397 20.1579 540.426 20.0469 540.462 19.9395C540.498 19.832 540.541 19.7282 540.591 19.6279C540.641 19.5277 540.698 19.4346 540.763 19.3486C540.827 19.2627 540.899 19.1803 540.978 19.1016C541.056 19.0228 541.142 18.9476 541.235 18.876C541.321 18.8115 541.414 18.7542 541.515 18.7041C541.615 18.654 541.722 18.611 541.837 18.5752C541.987 18.5179 542.123 18.4606 542.245 18.4033C542.374 18.346 542.485 18.2887 542.578 18.2314C542.678 18.167 542.761 18.1097 542.825 18.0596C542.897 18.0094 542.951 17.9629 542.986 17.9199C542.836 17.8125 542.7 17.6908 542.578 17.5547C542.456 17.4186 542.353 17.2682 542.267 17.1035C542.181 16.946 542.113 16.7812 542.062 16.6094C542.02 16.4303 541.998 16.2441 541.998 16.0508V15.5029C541.998 15.3454 542.012 15.1986 542.041 15.0625C542.07 14.9193 542.113 14.7796 542.17 14.6436C542.227 14.5075 542.295 14.3822 542.374 14.2676C542.453 14.153 542.542 14.0456 542.643 13.9453C542.743 13.8451 542.85 13.7555 542.965 13.6768C543.087 13.598 543.212 13.5299 543.341 13.4727C543.477 13.4154 543.617 13.3724 543.76 13.3438C543.903 13.3151 544.05 13.3008 544.2 13.3008C544.351 13.3008 544.497 13.3151 544.641 13.3438C544.784 13.3724 544.924 13.4154 545.06 13.4727C545.188 13.5299 545.31 13.598 545.425 13.6768C545.547 13.7555 545.658 13.8451 545.758 13.9453C545.858 14.0456 545.948 14.153 546.026 14.2676C546.105 14.3822 546.173 14.5075 546.23 14.6436C546.288 14.7796 546.331 14.9193 546.359 15.0625C546.388 15.1986 546.402 15.3454 546.402 15.5029V16.0508C546.402 16.2441 546.377 16.4303 546.327 16.6094C546.284 16.7812 546.22 16.946 546.134 17.1035C546.048 17.2611 545.944 17.4043 545.822 17.5332C545.701 17.6549 545.564 17.766 545.414 17.8662C545.436 17.9163 545.479 17.9701 545.543 18.0273C545.607 18.0846 545.686 18.1383 545.779 18.1885C545.88 18.2458 545.994 18.3031 546.123 18.3604C546.252 18.4176 546.399 18.4714 546.563 18.5215C546.678 18.5645 546.785 18.6146 546.886 18.6719C546.986 18.722 547.079 18.7829 547.165 18.8545ZM546.95 20.6162C546.95 20.5016 546.932 20.3978 546.896 20.3047C546.868 20.2044 546.821 20.1077 546.757 20.0146C546.692 19.9215 546.617 19.8428 546.531 19.7783C546.445 19.7139 546.349 19.6637 546.241 19.6279C545.976 19.542 545.74 19.4525 545.532 19.3594C545.325 19.2591 545.142 19.1553 544.984 19.0479C544.827 18.9333 544.691 18.8151 544.576 18.6934C544.469 18.5716 544.379 18.4391 544.308 18.2959H544.093C544.021 18.4391 543.928 18.5716 543.813 18.6934C543.699 18.8151 543.559 18.9333 543.395 19.0479C543.237 19.1553 543.054 19.2591 542.847 19.3594C542.639 19.4525 542.41 19.542 542.159 19.6279C542.052 19.6566 541.955 19.7031 541.869 19.7676C541.783 19.8249 541.708 19.9001 541.644 19.9932C541.579 20.0934 541.529 20.1937 541.493 20.2939C541.465 20.3942 541.45 20.5016 541.45 20.6162V21.0029H546.95V20.6162ZM543.104 16.0508C543.104 16.2012 543.13 16.3408 543.18 16.4697C543.237 16.5986 543.319 16.7168 543.427 16.8242C543.534 16.9316 543.652 17.014 543.781 17.0713C543.91 17.1214 544.05 17.1465 544.2 17.1465C544.351 17.1465 544.49 17.1214 544.619 17.0713C544.748 17.014 544.866 16.9316 544.974 16.8242C545.081 16.7168 545.16 16.5986 545.21 16.4697C545.267 16.3408 545.296 16.2012 545.296 16.0508V15.5029C545.296 15.3454 545.267 15.2021 545.21 15.0732C545.16 14.9443 545.081 14.8262 544.974 14.7188C544.866 14.6113 544.748 14.5326 544.619 14.4824C544.49 14.4251 544.351 14.3965 544.2 14.3965C544.05 14.3965 543.91 14.4251 543.781 14.4824C543.652 14.5326 543.534 14.6113 543.427 14.7188C543.319 14.8262 543.237 14.9443 543.18 15.0732C543.13 15.2021 543.104 15.3454 543.104 15.5029V16.0508Z" fill="white"/>
<path d="M0 50H570V64C570 67.3137 567.314 70 564 70H5.99999C2.68628 70 0 67.3137 0 64V50Z" fill="white" fill-opacity="0.3"/>
</svg>
