<svg width="570" height="70" viewBox="0 0 570 70" fill="none" xmlns="http://www.w3.org/2000/svg">
<rect x="1" y="1" width="568" height="68" rx="5" stroke="white" stroke-width="2"/>
<path d="M19.608 21.824L17 13.712H19.416L20.12 16.384C20.2907 17.056 20.4347 17.664 20.552 18.208C20.6693 18.7413 20.7387 19.1093 20.76 19.312L20.808 19.616C20.8827 18.976 21.144 17.8987 21.592 16.384L22.376 13.712H24.392L25.16 16.384C25.352 17.0667 25.512 17.68 25.64 18.224C25.768 18.7573 25.848 19.1253 25.88 19.328L25.928 19.616C26.0027 18.9867 26.2533 17.9093 26.68 16.384L27.432 13.712H29.736L27.144 21.824H24.744L24.04 19.168C23.8907 18.592 23.7573 18.0533 23.64 17.552C23.5333 17.0507 23.464 16.6933 23.432 16.48L23.384 16.16C23.2773 16.8747 23.0533 17.8773 22.712 19.168L22.008 21.824H19.608Z" fill="white"/>
<path d="M34.3546 21.952C33.0853 21.952 32.104 21.5733 31.4106 20.816C30.7173 20.048 30.3706 19.0667 30.3706 17.872C30.3706 16.624 30.7333 15.6 31.4586 14.8C32.184 13.9893 33.1493 13.584 34.3546 13.584C35.6133 13.584 36.5893 13.9733 37.2826 14.752C37.976 15.5307 38.3226 16.5227 38.3226 17.728C38.3226 18.9547 37.9706 19.968 37.2666 20.768C36.5733 21.5573 35.6026 21.952 34.3546 21.952ZM34.3386 15.424C33.8266 15.424 33.4426 15.6427 33.1866 16.08C32.9306 16.5173 32.8026 17.0827 32.8026 17.776C32.8026 18.4693 32.9306 19.04 33.1866 19.488C33.4533 19.9253 33.848 20.144 34.3706 20.144C34.8826 20.144 35.2613 19.9307 35.5066 19.504C35.7626 19.0667 35.8906 18.5013 35.8906 17.808C35.8906 16.2187 35.3733 15.424 34.3386 15.424Z" fill="white"/>
<path d="M47.4807 21.824H44.7768L42.1847 17.84V21.824H39.8487V10.784H42.1847V17.344L44.7448 13.712H47.4328L44.6168 17.6L47.4807 21.824Z" fill="white"/>
<path d="M48.6944 21.824V13.712H51.0304V21.824H48.6944ZM48.9024 12.32C48.6357 12.0533 48.5024 11.7333 48.5024 11.36C48.5024 10.9867 48.6357 10.6667 48.9024 10.4C49.169 10.1333 49.489 10 49.8624 10C50.2357 10 50.5557 10.1333 50.8224 10.4C51.089 10.6667 51.2224 10.9867 51.2224 11.36C51.2224 11.7333 51.089 12.0533 50.8224 12.32C50.5557 12.5867 50.2357 12.72 49.8624 12.72C49.489 12.72 49.169 12.5867 48.9024 12.32Z" fill="white"/>
<path d="M57.7243 17.024V16.832C57.6496 15.8827 57.2336 15.408 56.4762 15.408C56.1029 15.408 55.7722 15.5467 55.4842 15.824C55.1963 16.0907 55.0042 16.4907 54.9082 17.024H57.7243ZM59.4043 19.408V21.36C58.8496 21.7227 58.0016 21.904 56.8602 21.904C55.5269 21.904 54.4869 21.52 53.7402 20.752C53.0042 19.9733 52.6362 18.976 52.6362 17.76C52.6362 16.4693 52.9936 15.4613 53.7083 14.736C54.4336 14 55.3242 13.632 56.3802 13.632C57.4683 13.632 58.3269 13.952 58.9562 14.592C59.5856 15.2213 59.9002 16.1653 59.9002 17.424C59.9002 17.6693 59.8576 18.0907 59.7723 18.688H55.0042C55.1642 19.136 55.4416 19.4827 55.8363 19.728C56.2309 19.9733 56.7056 20.096 57.2603 20.096C58.0816 20.096 58.7962 19.8667 59.4043 19.408Z" fill="white"/>
<path d="M66.2555 17.024V16.832C66.1808 15.8827 65.7648 15.408 65.0075 15.408C64.6342 15.408 64.3035 15.5467 64.0155 15.824C63.7275 16.0907 63.5355 16.4907 63.4395 17.024H66.2555ZM67.9355 19.408V21.36C67.3808 21.7227 66.5328 21.904 65.3915 21.904C64.0582 21.904 63.0182 21.52 62.2715 20.752C61.5355 19.9733 61.1675 18.976 61.1675 17.76C61.1675 16.4693 61.5248 15.4613 62.2395 14.736C62.9648 14 63.8555 13.632 64.9115 13.632C65.9995 13.632 66.8582 13.952 67.4875 14.592C68.1168 15.2213 68.4315 16.1653 68.4315 17.424C68.4315 17.6693 68.3888 18.0907 68.3035 18.688H63.5355C63.6955 19.136 63.9728 19.4827 64.3675 19.728C64.7622 19.9733 65.2368 20.096 65.7915 20.096C66.6128 20.096 67.3275 19.8667 67.9355 19.408Z" fill="white"/>
<path d="M89.8022 14.2599H91.0722V20.9999H89.8022V18.1699H87.0322V20.9999H85.7722V14.2599H87.0322V17.0799H89.8022V14.2599Z" fill="white"/>
<path d="M92.2014 17.6099C92.2014 16.5632 92.4881 15.7232 93.0614 15.0899C93.6414 14.4566 94.4148 14.1399 95.3814 14.1399C96.3614 14.1399 97.1381 14.4566 97.7114 15.0899C98.2848 15.7166 98.5714 16.5566 98.5714 17.6099C98.5714 18.6499 98.2814 19.4866 97.7014 20.1199C97.1281 20.7532 96.3581 21.0699 95.3914 21.0699C94.4248 21.0699 93.6514 20.7532 93.0714 20.1199C92.4914 19.4866 92.2014 18.6499 92.2014 17.6099ZM93.5514 17.6099C93.5514 18.3166 93.7181 18.8766 94.0514 19.2899C94.3848 19.7032 94.8314 19.9099 95.3914 19.9099C95.9581 19.9099 96.4048 19.7066 96.7314 19.2999C97.0581 18.8866 97.2214 18.3232 97.2214 17.6099C97.2214 16.8966 97.0581 16.3332 96.7314 15.9199C96.4048 15.5066 95.9548 15.2999 95.3814 15.2999C94.8148 15.2999 94.3681 15.5066 94.0414 15.9199C93.7148 16.3332 93.5514 16.8966 93.5514 17.6099Z" fill="white"/>
<path d="M99.578 20.9999L100.118 14.2599H101.558L102.478 16.7099C102.638 17.1232 102.788 17.5366 102.928 17.9499C103.068 18.3566 103.168 18.6599 103.228 18.8599L103.318 19.1699C103.525 18.4766 103.811 17.6566 104.178 16.7099L105.118 14.2599H106.558L107.218 20.9999H105.958L105.718 18.3699L105.538 16.0099C105.298 16.6966 105.011 17.4832 104.678 18.3699L103.738 20.8999H102.878L101.958 18.3699L101.168 16.0399C101.168 16.3666 101.125 17.1432 101.038 18.3699L100.838 20.9999H99.578Z" fill="white"/>
<path d="M109.767 19.9699H112.517V20.9999H108.497V14.2599H112.477V15.2899H109.767V17.1199H112.177V18.1399H109.767V19.9699Z" fill="white"/>
<path d="M127.452 14.5399V15.7599C126.952 15.4599 126.419 15.3099 125.852 15.3099C125.539 15.3099 125.292 15.3799 125.112 15.5199C124.939 15.6599 124.852 15.8399 124.852 16.0599C124.852 16.2799 124.945 16.4632 125.132 16.6099C125.325 16.7499 125.612 16.9066 125.992 17.0799C126.259 17.1999 126.475 17.3066 126.642 17.3999C126.809 17.4866 126.989 17.6099 127.182 17.7699C127.382 17.9299 127.529 18.1232 127.622 18.3499C127.722 18.5699 127.772 18.8232 127.772 19.1099C127.772 19.7099 127.555 20.1899 127.122 20.5499C126.695 20.9032 126.132 21.0799 125.432 21.0799C124.672 21.0799 124.042 20.9366 123.542 20.6499V19.3599C124.115 19.7732 124.742 19.9799 125.422 19.9799C125.729 19.9799 125.975 19.9066 126.162 19.7599C126.349 19.6066 126.442 19.4032 126.442 19.1499C126.442 19.0299 126.419 18.9232 126.372 18.8299C126.325 18.7366 126.229 18.6432 126.082 18.5499C125.942 18.4566 125.832 18.3899 125.752 18.3499C125.679 18.3099 125.522 18.2366 125.282 18.1299C125.215 18.0966 125.165 18.0732 125.132 18.0599C124.885 17.9466 124.685 17.8466 124.532 17.7599C124.379 17.6666 124.212 17.5432 124.032 17.3899C123.852 17.2366 123.715 17.0532 123.622 16.8399C123.535 16.6266 123.492 16.3832 123.492 16.1099C123.492 15.5366 123.702 15.0766 124.122 14.7299C124.549 14.3832 125.112 14.2099 125.812 14.2099C126.445 14.2099 126.992 14.3199 127.452 14.5399Z" fill="white"/>
<path d="M132.908 14.2599H134.178V20.9999H132.908V18.1699H130.138V20.9999H128.878V14.2599H130.138V17.0799H132.908V14.2599Z" fill="white"/>
<path d="M135.307 17.6099C135.307 16.5632 135.594 15.7232 136.167 15.0899C136.747 14.4566 137.52 14.1399 138.487 14.1399C139.467 14.1399 140.244 14.4566 140.817 15.0899C141.39 15.7166 141.677 16.5566 141.677 17.6099C141.677 18.6499 141.387 19.4866 140.807 20.1199C140.234 20.7532 139.464 21.0699 138.497 21.0699C137.53 21.0699 136.757 20.7532 136.177 20.1199C135.597 19.4866 135.307 18.6499 135.307 17.6099ZM136.657 17.6099C136.657 18.3166 136.824 18.8766 137.157 19.2899C137.49 19.7032 137.937 19.9099 138.497 19.9099C139.064 19.9099 139.51 19.7066 139.837 19.2999C140.164 18.8866 140.327 18.3232 140.327 17.6099C140.327 16.8966 140.164 16.3332 139.837 15.9199C139.51 15.5066 139.06 15.2999 138.487 15.2999C137.92 15.2999 137.474 15.5066 137.147 15.9199C136.82 16.3332 136.657 16.8966 136.657 17.6099Z" fill="white"/>
<path d="M144.063 17.6899H144.773C145.233 17.6899 145.577 17.5799 145.803 17.3599C146.03 17.1399 146.143 16.8432 146.143 16.4699C146.143 16.1032 146.03 15.8166 145.803 15.6099C145.577 15.3966 145.243 15.2899 144.803 15.2899H144.063V17.6899ZM142.803 14.2599H144.913C145.673 14.2599 146.28 14.4666 146.733 14.8799C147.193 15.2932 147.423 15.8232 147.423 16.4699C147.423 17.1566 147.187 17.7032 146.713 18.1099C146.247 18.5099 145.657 18.7099 144.943 18.7099H144.063V20.9999H142.803V14.2599Z" fill="white"/>
<path d="M159.542 19.9699H160.622C161.429 19.9699 161.832 19.6632 161.832 19.0499C161.832 18.4232 161.412 18.1099 160.572 18.1099H159.542V19.9699ZM159.542 15.2899V17.0999H160.302C160.755 17.0999 161.095 17.0099 161.322 16.8299C161.549 16.6499 161.662 16.4199 161.662 16.1399C161.662 15.8799 161.565 15.6732 161.372 15.5199C161.185 15.3666 160.899 15.2899 160.512 15.2899H159.542ZM158.282 14.2599H160.672C161.392 14.2599 161.952 14.4299 162.352 14.7699C162.752 15.1099 162.952 15.5499 162.952 16.0899C162.952 16.4566 162.852 16.7766 162.652 17.0499C162.452 17.3166 162.195 17.4932 161.882 17.5799C162.242 17.6666 162.539 17.8432 162.772 18.1099C163.005 18.3699 163.122 18.7266 163.122 19.1799C163.122 19.7132 162.935 20.1499 162.562 20.4899C162.189 20.8299 161.672 20.9999 161.012 20.9999H158.282V14.2599Z" fill="white"/>
<path d="M165.46 19.8799H168.09V20.9999H164.2V14.2599H165.46V19.8799Z" fill="white"/>
<path d="M168.774 17.6099C168.774 16.5632 169.06 15.7232 169.634 15.0899C170.214 14.4566 170.987 14.1399 171.954 14.1399C172.934 14.1399 173.71 14.4566 174.284 15.0899C174.857 15.7166 175.144 16.5566 175.144 17.6099C175.144 18.6499 174.854 19.4866 174.274 20.1199C173.7 20.7532 172.93 21.0699 171.964 21.0699C170.997 21.0699 170.224 20.7532 169.644 20.1199C169.064 19.4866 168.774 18.6499 168.774 17.6099ZM170.124 17.6099C170.124 18.3166 170.29 18.8766 170.624 19.2899C170.957 19.7032 171.404 19.9099 171.964 19.9099C172.53 19.9099 172.977 19.7066 173.304 19.2999C173.63 18.8866 173.794 18.3232 173.794 17.6099C173.794 16.8966 173.63 16.3332 173.304 15.9199C172.977 15.5066 172.527 15.2999 171.954 15.2999C171.387 15.2999 170.94 15.5066 170.614 15.9199C170.287 16.3332 170.124 16.8966 170.124 17.6099Z" fill="white"/>
<path d="M181.87 17.0699V20.3099H181.86L181.87 20.4199C181.257 20.8599 180.49 21.0799 179.57 21.0799C178.504 21.0799 177.64 20.7699 176.98 20.1499C176.327 19.5299 176 18.6866 176 17.6199C176 16.5799 176.337 15.7399 177.01 15.0999C177.69 14.4599 178.547 14.1399 179.58 14.1399C180.347 14.1399 181.004 14.2832 181.55 14.5699V15.8599C180.937 15.4932 180.287 15.3099 179.6 15.3099C178.927 15.3099 178.384 15.5199 177.97 15.9399C177.557 16.3599 177.35 16.9199 177.35 17.6199C177.35 18.3332 177.55 18.8966 177.95 19.3099C178.357 19.7166 178.914 19.9199 179.62 19.9199C179.967 19.9199 180.304 19.8599 180.63 19.7399V18.1499H179.39V17.0699H181.87Z" fill="white"/>
<path d="M194.386 17.6899H195.096C195.556 17.6899 195.899 17.5799 196.126 17.3599C196.352 17.1399 196.466 16.8432 196.466 16.4699C196.466 16.1032 196.352 15.8166 196.126 15.6099C195.899 15.3966 195.566 15.2899 195.126 15.2899H194.386V17.6899ZM193.126 14.2599H195.236C195.996 14.2599 196.602 14.4666 197.056 14.8799C197.516 15.2932 197.746 15.8232 197.746 16.4699C197.746 17.1566 197.509 17.7032 197.036 18.1099C196.569 18.5099 195.979 18.7099 195.266 18.7099H194.386V20.9999H193.126V14.2599Z" fill="white"/>
<path d="M198.412 17.6099C198.412 16.5632 198.699 15.7232 199.272 15.0899C199.852 14.4566 200.626 14.1399 201.592 14.1399C202.572 14.1399 203.349 14.4566 203.922 15.0899C204.496 15.7166 204.782 16.5566 204.782 17.6099C204.782 18.6499 204.492 19.4866 203.912 20.1199C203.339 20.7532 202.569 21.0699 201.602 21.0699C200.636 21.0699 199.862 20.7532 199.282 20.1199C198.702 19.4866 198.412 18.6499 198.412 17.6099ZM199.762 17.6099C199.762 18.3166 199.929 18.8766 200.262 19.2899C200.596 19.7032 201.042 19.9099 201.602 19.9099C202.169 19.9099 202.616 19.7066 202.942 19.2999C203.269 18.8866 203.432 18.3232 203.432 17.6099C203.432 16.8966 203.269 16.3332 202.942 15.9199C202.616 15.5066 202.166 15.2999 201.592 15.2999C201.026 15.2999 200.579 15.5066 200.252 15.9199C199.926 16.3332 199.762 16.8966 199.762 17.6099Z" fill="white"/>
<path d="M207.169 15.2999V17.4999H208.009C208.396 17.4999 208.686 17.4032 208.879 17.2099C209.072 17.0099 209.169 16.7332 209.169 16.3799C209.169 16.0332 209.066 15.7666 208.859 15.5799C208.659 15.3932 208.369 15.2999 207.989 15.2999H207.169ZM209.389 20.9999L207.859 18.5399H207.169V20.9999H205.909V14.2599H207.989C208.756 14.2599 209.356 14.4532 209.789 14.8399C210.229 15.2266 210.449 15.7432 210.449 16.3899C210.442 16.8699 210.326 17.2766 210.099 17.6099C209.872 17.9366 209.562 18.1799 209.169 18.3399L210.899 20.9999H209.389Z" fill="white"/>
<path d="M216.048 14.2599V15.2999H214.338V20.9999H213.068V15.2999H211.358V14.2599H216.048Z" fill="white"/>
<path d="M220.943 15.2899H218.263V17.2799H220.603V18.3099H218.263V20.9999H216.993V14.2599H220.943V15.2899Z" fill="white"/>
<path d="M221.713 17.6099C221.713 16.5632 222 15.7232 222.573 15.0899C223.153 14.4566 223.926 14.1399 224.893 14.1399C225.873 14.1399 226.65 14.4566 227.223 15.0899C227.796 15.7166 228.083 16.5566 228.083 17.6099C228.083 18.6499 227.793 19.4866 227.213 20.1199C226.64 20.7532 225.87 21.0699 224.903 21.0699C223.936 21.0699 223.163 20.7532 222.583 20.1199C222.003 19.4866 221.713 18.6499 221.713 17.6099ZM223.063 17.6099C223.063 18.3166 223.23 18.8766 223.563 19.2899C223.896 19.7032 224.343 19.9099 224.903 19.9099C225.47 19.9099 225.916 19.7066 226.243 19.2999C226.57 18.8866 226.733 18.3232 226.733 17.6099C226.733 16.8966 226.57 16.3332 226.243 15.9199C225.916 15.5066 225.466 15.2999 224.893 15.2999C224.326 15.2999 223.88 15.5066 223.553 15.9199C223.227 16.3332 223.063 16.8966 223.063 17.6099Z" fill="white"/>
<path d="M230.47 19.8799H233.1V20.9999H229.21V14.2599H230.47V19.8799Z" fill="white"/>
<path d="M234.133 20.9999V14.2599H235.393V20.9999H234.133Z" fill="white"/>
<path d="M236.606 17.6099C236.606 16.5632 236.892 15.7232 237.466 15.0899C238.046 14.4566 238.819 14.1399 239.786 14.1399C240.766 14.1399 241.542 14.4566 242.116 15.0899C242.689 15.7166 242.976 16.5566 242.976 17.6099C242.976 18.6499 242.686 19.4866 242.106 20.1199C241.532 20.7532 240.762 21.0699 239.796 21.0699C238.829 21.0699 238.056 20.7532 237.476 20.1199C236.896 19.4866 236.606 18.6499 236.606 17.6099ZM237.956 17.6099C237.956 18.3166 238.122 18.8766 238.456 19.2899C238.789 19.7032 239.236 19.9099 239.796 19.9099C240.362 19.9099 240.809 19.7066 241.136 19.2999C241.462 18.8866 241.626 18.3232 241.626 17.6099C241.626 16.8966 241.462 16.3332 241.136 15.9199C240.809 15.5066 240.359 15.2999 239.786 15.2999C239.219 15.2999 238.772 15.5066 238.446 15.9199C238.119 16.3332 237.956 16.8966 237.956 17.6099Z" fill="white"/>
<path d="M258.934 14.5399V15.7699C258.428 15.4766 257.867 15.3299 257.254 15.3299C256.641 15.3299 256.128 15.5399 255.714 15.9599C255.308 16.3732 255.104 16.9299 255.104 17.6299C255.104 18.3299 255.308 18.8866 255.714 19.2999C256.128 19.7132 256.664 19.9199 257.324 19.9199C257.958 19.9199 258.497 19.7532 258.944 19.4199V20.6799C258.531 20.9466 257.951 21.0799 257.204 21.0799C256.204 21.0799 255.378 20.7666 254.724 20.1399C254.077 19.5066 253.754 18.6699 253.754 17.6299C253.754 16.6099 254.074 15.7799 254.714 15.1399C255.361 14.4932 256.191 14.1699 257.204 14.1699C257.944 14.1699 258.521 14.2932 258.934 14.5399Z" fill="white"/>
<path d="M259.848 17.6099C259.848 16.5632 260.135 15.7232 260.708 15.0899C261.288 14.4566 262.061 14.1399 263.028 14.1399C264.008 14.1399 264.785 14.4566 265.358 15.0899C265.931 15.7166 266.218 16.5566 266.218 17.6099C266.218 18.6499 265.928 19.4866 265.348 20.1199C264.775 20.7532 264.005 21.0699 263.038 21.0699C262.071 21.0699 261.298 20.7532 260.718 20.1199C260.138 19.4866 259.848 18.6499 259.848 17.6099ZM261.198 17.6099C261.198 18.3166 261.365 18.8766 261.698 19.2899C262.031 19.7032 262.478 19.9099 263.038 19.9099C263.605 19.9099 264.051 19.7066 264.378 19.2999C264.705 18.8866 264.868 18.3232 264.868 17.6099C264.868 16.8966 264.705 16.3332 264.378 15.9199C264.051 15.5066 263.601 15.2999 263.028 15.2999C262.461 15.2999 262.015 15.5066 261.688 15.9199C261.361 16.3332 261.198 16.8966 261.198 17.6099Z" fill="white"/>
<path d="M267.344 20.9999V14.2599H268.774L270.394 17.0699C270.661 17.5299 270.898 17.9599 271.104 18.3599C271.318 18.7532 271.461 19.0332 271.534 19.1999L271.644 19.4499C271.591 18.8966 271.564 18.1032 271.564 17.0699V14.2599H272.834V20.9999H271.394L269.754 18.1999C269.494 17.7599 269.258 17.3399 269.044 16.9399C268.838 16.5332 268.694 16.2399 268.614 16.0599L268.494 15.7799C268.568 16.4132 268.604 17.2166 268.604 18.1899V20.9999H267.344Z" fill="white"/>
<path d="M278.479 14.2599V15.2999H276.769V20.9999H275.499V15.2999H273.789V14.2599H278.479Z" fill="white"/>
<path d="M281.135 18.4399H283.035L282.945 18.1399C282.718 17.4199 282.531 16.8166 282.385 16.3299C282.245 15.8366 282.158 15.5266 282.125 15.3999L282.085 15.1999C282.025 15.5332 281.738 16.5166 281.225 18.1499L281.135 18.4399ZM283.835 20.9999L283.355 19.4699H280.805L280.325 20.9999H279.005L281.285 14.2599H282.915L285.195 20.9999H283.835Z" fill="white"/>
<path d="M291.073 14.5399V15.7699C290.566 15.4766 290.006 15.3299 289.393 15.3299C288.78 15.3299 288.266 15.5399 287.853 15.9599C287.446 16.3732 287.243 16.9299 287.243 17.6299C287.243 18.3299 287.446 18.8866 287.853 19.2999C288.266 19.7132 288.803 19.9199 289.463 19.9199C290.096 19.9199 290.636 19.7532 291.083 19.4199V20.6799C290.67 20.9466 290.09 21.0799 289.343 21.0799C288.343 21.0799 287.516 20.7666 286.863 20.1399C286.216 19.5066 285.893 18.6699 285.893 17.6299C285.893 16.6099 286.213 15.7799 286.853 15.1399C287.5 14.4932 288.329 14.1699 289.343 14.1699C290.083 14.1699 290.66 14.2932 291.073 14.5399Z" fill="white"/>
<path d="M296.507 14.2599V15.2999H294.797V20.9999H293.527V15.2999H291.817V14.2599H296.507Z" fill="white"/>
<path d="M301.202 14.5399V15.7599C300.702 15.4599 300.169 15.3099 299.602 15.3099C299.289 15.3099 299.042 15.3799 298.862 15.5199C298.689 15.6599 298.602 15.8399 298.602 16.0599C298.602 16.2799 298.695 16.4632 298.882 16.6099C299.075 16.7499 299.362 16.9066 299.742 17.0799C300.009 17.1999 300.225 17.3066 300.392 17.3999C300.559 17.4866 300.739 17.6099 300.932 17.7699C301.132 17.9299 301.279 18.1232 301.372 18.3499C301.472 18.5699 301.522 18.8232 301.522 19.1099C301.522 19.7099 301.305 20.1899 300.872 20.5499C300.445 20.9032 299.882 21.0799 299.182 21.0799C298.422 21.0799 297.792 20.9366 297.292 20.6499V19.3599C297.865 19.7732 298.492 19.9799 299.172 19.9799C299.479 19.9799 299.725 19.9066 299.912 19.7599C300.099 19.6066 300.192 19.4032 300.192 19.1499C300.192 19.0299 300.169 18.9232 300.122 18.8299C300.075 18.7366 299.979 18.6432 299.832 18.5499C299.692 18.4566 299.582 18.3899 299.502 18.3499C299.429 18.3099 299.272 18.2366 299.032 18.1299C298.965 18.0966 298.915 18.0732 298.882 18.0599C298.635 17.9466 298.435 17.8466 298.282 17.7599C298.129 17.6666 297.962 17.5432 297.782 17.3899C297.602 17.2366 297.465 17.0532 297.372 16.8399C297.285 16.6266 297.242 16.3832 297.242 16.1099C297.242 15.5366 297.452 15.0766 297.872 14.7299C298.299 14.3832 298.862 14.2099 299.562 14.2099C300.195 14.2099 300.742 14.3199 301.202 14.5399Z" fill="white"/>
<path d="M503.004 19.2305L504.637 20.8633C504.694 20.9206 504.737 20.9814 504.766 21.0459C504.794 21.1104 504.809 21.1784 504.809 21.25C504.809 21.3288 504.794 21.4004 504.766 21.4648C504.737 21.5293 504.694 21.5866 504.637 21.6367C504.615 21.6654 504.587 21.6904 504.551 21.7119C504.522 21.7334 504.493 21.7513 504.465 21.7656C504.429 21.7799 504.393 21.7907 504.357 21.7979C504.322 21.805 504.286 21.8086 504.25 21.8086C504.221 21.8086 504.189 21.805 504.153 21.7979C504.118 21.7907 504.082 21.7799 504.046 21.7656C504.01 21.7513 503.978 21.7334 503.949 21.7119C503.921 21.6904 503.892 21.6654 503.863 21.6367L502.23 20.0039C502.066 20.1257 501.89 20.2367 501.704 20.3369C501.525 20.43 501.339 20.5088 501.146 20.5732C500.945 20.6449 500.741 20.6986 500.533 20.7344C500.326 20.763 500.114 20.7773 499.899 20.7773C499.627 20.7773 499.366 20.7523 499.115 20.7021C498.865 20.652 498.621 20.5768 498.385 20.4766C498.148 20.3763 497.926 20.2581 497.719 20.1221C497.511 19.9788 497.318 19.8177 497.139 19.6387C496.967 19.4668 496.809 19.277 496.666 19.0693C496.53 18.8617 496.412 18.6396 496.312 18.4033C496.211 18.167 496.132 17.9235 496.075 17.6729C496.025 17.4222 496 17.1644 496 16.8994C496 16.6273 496.025 16.3659 496.075 16.1152C496.132 15.8646 496.211 15.6211 496.312 15.3848C496.412 15.1484 496.53 14.9264 496.666 14.7188C496.809 14.5111 496.967 14.3177 497.139 14.1387C497.318 13.9668 497.511 13.8128 497.719 13.6768C497.926 13.5335 498.148 13.4118 498.385 13.3115C498.621 13.2113 498.865 13.1361 499.115 13.0859C499.366 13.0286 499.627 13 499.899 13C500.164 13 500.422 13.0286 500.673 13.0859C500.924 13.1361 501.167 13.2113 501.403 13.3115C501.64 13.4118 501.862 13.5335 502.069 13.6768C502.277 13.8128 502.467 13.9668 502.639 14.1387C502.818 14.3177 502.975 14.5111 503.111 14.7188C503.255 14.9264 503.376 15.1484 503.477 15.3848C503.577 15.6211 503.652 15.8646 503.702 16.1152C503.752 16.3659 503.777 16.6273 503.777 16.8994C503.777 17.1143 503.759 17.3255 503.724 17.5332C503.695 17.7409 503.645 17.945 503.573 18.1455C503.509 18.3389 503.426 18.5286 503.326 18.7148C503.233 18.8939 503.126 19.0658 503.004 19.2305ZM500.984 19.4668C501.149 19.388 501.303 19.3021 501.446 19.209C501.597 19.1087 501.736 18.9941 501.865 18.8652C501.994 18.7363 502.105 18.6003 502.198 18.457C502.299 18.3066 502.388 18.1491 502.467 17.9844C502.538 17.8125 502.592 17.637 502.628 17.458C502.664 17.279 502.682 17.0928 502.682 16.8994C502.682 16.7061 502.664 16.5199 502.628 16.3408C502.592 16.1546 502.538 15.9756 502.467 15.8037C502.388 15.639 502.299 15.4814 502.198 15.3311C502.105 15.1807 501.994 15.0446 501.865 14.9229C501.736 14.7939 501.597 14.6794 501.446 14.5791C501.303 14.4788 501.149 14.3929 500.984 14.3213C500.812 14.2497 500.637 14.196 500.458 14.1602C500.279 14.1243 500.093 14.1064 499.899 14.1064C499.706 14.1064 499.516 14.1243 499.33 14.1602C499.151 14.196 498.976 14.2497 498.804 14.3213C498.639 14.3929 498.481 14.4788 498.331 14.5791C498.181 14.6794 498.045 14.7939 497.923 14.9229C497.794 15.0446 497.679 15.1807 497.579 15.3311C497.479 15.4814 497.393 15.639 497.321 15.8037C497.25 15.9756 497.196 16.1546 497.16 16.3408C497.124 16.5199 497.106 16.7061 497.106 16.8994C497.106 17.0928 497.124 17.279 497.16 17.458C497.196 17.637 497.25 17.8125 497.321 17.9844C497.393 18.1491 497.479 18.3066 497.579 18.457C497.679 18.6003 497.794 18.7363 497.923 18.8652C498.045 18.9941 498.181 19.1087 498.331 19.209C498.481 19.3021 498.639 19.388 498.804 19.4668C498.976 19.5384 499.151 19.5921 499.33 19.6279C499.516 19.6637 499.706 19.6816 499.899 19.6816C500.093 19.6816 500.279 19.6637 500.458 19.6279C500.637 19.5921 500.812 19.5384 500.984 19.4668Z" fill="white"/>
<path d="M525.058 19.5527H519.558C519.472 19.5527 519.393 19.542 519.321 19.5205C519.257 19.4919 519.203 19.4525 519.16 19.4023C519.103 19.3522 519.06 19.2949 519.031 19.2305C519.01 19.166 518.999 19.0908 518.999 19.0049V14.6006H517.903V13.5049H519.558C519.636 13.5049 519.708 13.5192 519.772 13.5479C519.844 13.5693 519.905 13.6051 519.955 13.6553C520.005 13.7054 520.041 13.7663 520.062 13.8379C520.091 13.9023 520.105 13.974 520.105 14.0527V14.6006H526.153C526.275 14.6006 526.375 14.6257 526.454 14.6758C526.533 14.7259 526.587 14.8011 526.615 14.9014C526.644 15.0016 526.665 15.0876 526.68 15.1592C526.694 15.2236 526.701 15.2773 526.701 15.3203L525.605 19.166C525.577 19.2233 525.541 19.277 525.498 19.3271C525.462 19.3701 525.419 19.4095 525.369 19.4453C525.319 19.4811 525.265 19.5098 525.208 19.5312C525.158 19.5456 525.108 19.5527 525.058 19.5527ZM520.653 21.207C520.653 21.3574 520.625 21.4971 520.567 21.626C520.517 21.7549 520.438 21.873 520.331 21.9805C520.224 22.0879 520.105 22.1702 519.977 22.2275C519.848 22.2777 519.708 22.3027 519.558 22.3027C519.4 22.3027 519.257 22.2777 519.128 22.2275C518.999 22.1702 518.881 22.0879 518.773 21.9805C518.666 21.873 518.584 21.7549 518.526 21.626C518.476 21.4971 518.451 21.3574 518.451 21.207C518.451 21.0566 518.476 20.917 518.526 20.7881C518.584 20.652 518.666 20.5303 518.773 20.4229C518.881 20.3154 518.999 20.2367 519.128 20.1865C519.257 20.1292 519.4 20.1006 519.558 20.1006C519.708 20.1006 519.848 20.1292 519.977 20.1865C520.105 20.2367 520.224 20.3154 520.331 20.4229C520.438 20.5303 520.517 20.652 520.567 20.7881C520.625 20.917 520.653 21.0566 520.653 21.207ZM520.105 18.457H524.617L525.38 15.707H520.105V18.457ZM526.153 21.207C526.153 21.3574 526.125 21.4971 526.067 21.626C526.017 21.7549 525.938 21.873 525.831 21.9805C525.724 22.0879 525.605 22.1702 525.477 22.2275C525.348 22.2777 525.208 22.3027 525.058 22.3027C524.9 22.3027 524.757 22.2777 524.628 22.2275C524.499 22.1702 524.381 22.0879 524.273 21.9805C524.166 21.873 524.084 21.7549 524.026 21.626C523.976 21.4971 523.951 21.3574 523.951 21.207C523.951 21.0566 523.976 20.917 524.026 20.7881C524.084 20.652 524.166 20.5303 524.273 20.4229C524.381 20.3154 524.499 20.2367 524.628 20.1865C524.757 20.1292 524.9 20.1006 525.058 20.1006C525.208 20.1006 525.348 20.1292 525.477 20.1865C525.605 20.2367 525.724 20.3154 525.831 20.4229C525.938 20.5303 526.017 20.652 526.067 20.7881C526.125 20.917 526.153 21.0566 526.153 21.207Z" fill="white"/>
<path d="M547.165 18.8545C547.258 18.9261 547.344 19.0013 547.423 19.0801C547.502 19.1589 547.573 19.2448 547.638 19.3379C547.702 19.431 547.759 19.5277 547.81 19.6279C547.86 19.7282 547.903 19.832 547.938 19.9395C547.974 20.0469 547.999 20.1579 548.014 20.2725C548.035 20.3799 548.046 20.4945 548.046 20.6162V22.0986H540.354V20.6162C540.354 20.4945 540.362 20.3799 540.376 20.2725C540.397 20.1579 540.426 20.0469 540.462 19.9395C540.498 19.832 540.541 19.7282 540.591 19.6279C540.641 19.5277 540.698 19.4346 540.763 19.3486C540.827 19.2627 540.899 19.1803 540.978 19.1016C541.056 19.0228 541.142 18.9476 541.235 18.876C541.321 18.8115 541.414 18.7542 541.515 18.7041C541.615 18.654 541.722 18.611 541.837 18.5752C541.987 18.5179 542.123 18.4606 542.245 18.4033C542.374 18.346 542.485 18.2887 542.578 18.2314C542.678 18.167 542.761 18.1097 542.825 18.0596C542.897 18.0094 542.951 17.9629 542.986 17.9199C542.836 17.8125 542.7 17.6908 542.578 17.5547C542.456 17.4186 542.353 17.2682 542.267 17.1035C542.181 16.946 542.113 16.7812 542.062 16.6094C542.02 16.4303 541.998 16.2441 541.998 16.0508V15.5029C541.998 15.3454 542.012 15.1986 542.041 15.0625C542.07 14.9193 542.113 14.7796 542.17 14.6436C542.227 14.5075 542.295 14.3822 542.374 14.2676C542.453 14.153 542.542 14.0456 542.643 13.9453C542.743 13.8451 542.85 13.7555 542.965 13.6768C543.087 13.598 543.212 13.5299 543.341 13.4727C543.477 13.4154 543.617 13.3724 543.76 13.3438C543.903 13.3151 544.05 13.3008 544.2 13.3008C544.351 13.3008 544.497 13.3151 544.641 13.3438C544.784 13.3724 544.924 13.4154 545.06 13.4727C545.188 13.5299 545.31 13.598 545.425 13.6768C545.547 13.7555 545.658 13.8451 545.758 13.9453C545.858 14.0456 545.948 14.153 546.026 14.2676C546.105 14.3822 546.173 14.5075 546.23 14.6436C546.288 14.7796 546.331 14.9193 546.359 15.0625C546.388 15.1986 546.402 15.3454 546.402 15.5029V16.0508C546.402 16.2441 546.377 16.4303 546.327 16.6094C546.284 16.7812 546.22 16.946 546.134 17.1035C546.048 17.2611 545.944 17.4043 545.822 17.5332C545.701 17.6549 545.564 17.766 545.414 17.8662C545.436 17.9163 545.479 17.9701 545.543 18.0273C545.607 18.0846 545.686 18.1383 545.779 18.1885C545.88 18.2458 545.994 18.3031 546.123 18.3604C546.252 18.4176 546.399 18.4714 546.563 18.5215C546.678 18.5645 546.785 18.6146 546.886 18.6719C546.986 18.722 547.079 18.7829 547.165 18.8545ZM546.95 20.6162C546.95 20.5016 546.932 20.3978 546.896 20.3047C546.868 20.2044 546.821 20.1077 546.757 20.0146C546.692 19.9215 546.617 19.8428 546.531 19.7783C546.445 19.7139 546.349 19.6637 546.241 19.6279C545.976 19.542 545.74 19.4525 545.532 19.3594C545.325 19.2591 545.142 19.1553 544.984 19.0479C544.827 18.9333 544.691 18.8151 544.576 18.6934C544.469 18.5716 544.379 18.4391 544.308 18.2959H544.093C544.021 18.4391 543.928 18.5716 543.813 18.6934C543.699 18.8151 543.559 18.9333 543.395 19.0479C543.237 19.1553 543.054 19.2591 542.847 19.3594C542.639 19.4525 542.41 19.542 542.159 19.6279C542.052 19.6566 541.955 19.7031 541.869 19.7676C541.783 19.8249 541.708 19.9001 541.644 19.9932C541.579 20.0934 541.529 20.1937 541.493 20.2939C541.465 20.3942 541.45 20.5016 541.45 20.6162V21.0029H546.95V20.6162ZM543.104 16.0508C543.104 16.2012 543.13 16.3408 543.18 16.4697C543.237 16.5986 543.319 16.7168 543.427 16.8242C543.534 16.9316 543.652 17.014 543.781 17.0713C543.91 17.1214 544.05 17.1465 544.2 17.1465C544.351 17.1465 544.49 17.1214 544.619 17.0713C544.748 17.014 544.866 16.9316 544.974 16.8242C545.081 16.7168 545.16 16.5986 545.21 16.4697C545.267 16.3408 545.296 16.2012 545.296 16.0508V15.5029C545.296 15.3454 545.267 15.2021 545.21 15.0732C545.16 14.9443 545.081 14.8262 544.974 14.7188C544.866 14.6113 544.748 14.5326 544.619 14.4824C544.49 14.4251 544.351 14.3965 544.2 14.3965C544.05 14.3965 543.91 14.4251 543.781 14.4824C543.652 14.5326 543.534 14.6113 543.427 14.7188C543.319 14.8262 543.237 14.9443 543.18 15.0732C543.13 15.2021 543.104 15.3454 543.104 15.5029V16.0508Z" fill="white"/>
<path d="M0 35H570V64C570 67.3137 567.314 70 564 70H5.99999C2.68628 70 0 67.3137 0 64V35Z" fill="white" fill-opacity="0.3"/>
</svg>
