<svg id="Calque_1" data-name="Calque 1" xmlns="http://www.w3.org/2000/svg" viewBox="0 0 83.13 51.99"><title>vélo</title><path d="M71.79,38.18a16,16,0,0,0-9.4,2.23l-5.86-8.35L59,24l3.53.23A1.23,1.23,0,0,0,63.8,23V21.39a1.23,1.23,0,0,0-1.35-1.23l-9.8.95a1.23,1.23,0,0,0-1.12,1.23,1.25,1.25,0,0,0,1.15,1.23l4,.26-2.1,7H29.15l.72-3.18h0V25.35H21.63a2.52,2.52,0,0,1-2.56-2.19,2.45,2.45,0,0,1,2.43-2.69h9.74a1.14,1.14,0,0,0,1.14-1.14h0a1.14,1.14,0,0,0-1.14-1.14H21.5a4.72,4.72,0,0,0-4.69,5.17,4.84,4.84,0,0,0,4.88,4.26h5.84l-1.59,7-.17.72-.87,3.73A16,16,0,1,0,27,40l.61-2.62L44.48,55.84a2.89,2.89,0,0,0-.27,1.25A3,3,0,0,0,46.29,60,3.11,3.11,0,0,0,50,58.72L55,57.91A16,16,0,1,0,71.79,38.18Zm-38.46,16A13.82,13.82,0,1,1,19.52,40.35a13.6,13.6,0,0,1,4.88.89L23.77,44a10.13,10.13,0,0,1-.88,1.93l-3.6,6.26a2,2,0,1,0,2.25,2,1.91,1.91,0,0,0-.26-1l3.86-6.79a9.5,9.5,0,0,0,1-2.56l.37-1.59A13.8,13.8,0,0,1,33.33,54.16ZM61.8,43.52l6.94,9.89-11.89,1.9c0-.38-.05-.76-.05-1.15A13.8,13.8,0,0,1,61.8,43.52ZM47.57,54a1.06,1.06,0,0,0-.25,0,3.09,3.09,0,0,0-1.22.25L28.25,34.69l.38-1.62H53.85Zm2.78,2.35A3,3,0,0,0,49.64,55l6.06-20.2,4.83,6.89a16,16,0,0,0-5.94,12.45,14.78,14.78,0,0,0,.07,1.5ZM70.61,68A13.82,13.82,0,0,1,57.22,57.56l12.07-1.93a2,2,0,0,0,3.51-1.39,2,2,0,0,0-2-2h-.08l-7-10A13.82,13.82,0,1,1,70.61,68Z" transform="translate(-3.5 -18.19)"/></svg>