<svg id="Calque_1" data-name="Calque 1" xmlns="http://www.w3.org/2000/svg" viewBox="0 0 90.71 90.71"><defs><style>.cls-1{isolation:isolate;}</style></defs><title>essence</title><g class="cls-1"><path d="M34.51,37.49H22.92V17h11.6v2.83H26.27v5.59H34v2.8H26.27v6.43h8.25v2.85Z" transform="translate(0 0)"/><path d="M47.18,37.49H43.89V24.26c0-1.59,0-2.83.11-3.76-.21.22-.48.47-.79.74s-1.37,1.13-3.15,2.58L38.4,21.74l6-4.75h2.76v20.5Z" transform="translate(0 0)"/><path d="M67.79,27.25c0,3.56-.58,6.21-1.72,7.93a5.87,5.87,0,0,1-5.25,2.59,5.82,5.82,0,0,1-5.19-2.68c-1.17-1.78-1.76-4.4-1.76-7.84,0-3.62.57-6.28,1.71-8a5.85,5.85,0,0,1,5.24-2.57A5.82,5.82,0,0,1,66,19.36Q67.79,22.06,67.79,27.25Zm-10.59,0a14.93,14.93,0,0,0,.86,6A2.86,2.86,0,0,0,60.81,35a2.91,2.91,0,0,0,2.77-1.82,14.82,14.82,0,0,0,.87-6,15,15,0,0,0-.87-6,2.9,2.9,0,0,0-2.77-1.84,2.86,2.86,0,0,0-2.75,1.81A14.92,14.92,0,0,0,57.2,27.25Z" transform="translate(0 0)"/></g><g class="cls-1"><path d="M42.49,77.43H29.38V54.26H42.49v3.2H33.17v6.31H41.9v3.17H33.17v7.27h9.32Z" transform="translate(0 0)"/><path d="M53.73,63a8,8,0,0,1,5.55,1.85,6.5,6.5,0,0,1,2,5.06A7.37,7.37,0,0,1,59,75.66a9.57,9.57,0,0,1-6.61,2.09,12.52,12.52,0,0,1-6.1-1.25V73.12a11.32,11.32,0,0,0,3,1.13,13.65,13.65,0,0,0,3.09.4,5.77,5.77,0,0,0,3.84-1.13,4.06,4.06,0,0,0,1.32-3.3c0-2.77-1.75-4.15-5.29-4.15a13.91,13.91,0,0,0-1.84.15c-.73.1-1.37.21-1.92.34l-1.66-1,.89-11.32h12v3.31H51l-.52,5.74,1.36-.22A11.38,11.38,0,0,1,53.73,63Z" transform="translate(0 0)"/></g><path d="M45.35,0A45.36,45.36,0,1,0,90.71,45.35,45.35,45.35,0,0,0,45.35,0Zm0,5.41A39.93,39.93,0,0,1,85.11,41.53H5.6A39.94,39.94,0,0,1,45.35,5.41Zm0,79.89A39.94,39.94,0,0,1,5.54,48.54H85.17A40,40,0,0,1,45.35,85.3Z" transform="translate(0 0)"/></svg>