<svg width="25" height="15" viewBox="0 0 25 15" fill="none" xmlns="http://www.w3.org/2000/svg">
<path d="M23.8791 0.977394L12.501 7.01047C12.4745 7.03693 12.4216 7.03693 12.3687 7.01047L0.990488 0.977394C0.937566 0.924472 0.990488 0.792168 1.09633 0.792168H23.8262C23.9321 0.792168 23.985 0.924472 23.8791 0.977394Z" fill="#010202"/>
<path d="M24.2233 1.79768V13.5463C24.2233 13.9168 23.8529 14.2078 23.4295 14.2078H1.5199C1.07007 14.2078 0.726074 13.9168 0.726074 13.5463V1.79768C0.726074 1.7183 0.831918 1.66538 0.9113 1.7183L12.4218 7.85722C12.4482 7.88368 12.5012 7.88368 12.5541 7.85722L24.0646 1.7183C24.1175 1.66538 24.2233 1.7183 24.2233 1.79768Z" fill="#010202"/>
</svg>
