<svg width="38" height="31" viewBox="0 0 38 31" fill="none" xmlns="http://www.w3.org/2000/svg">
<path d="M19.5223 10.7973C20.1765 9.75851 19.8948 8.40505 18.8931 7.77424C17.8914 7.14343 16.5491 7.47415 15.8949 8.51292C15.2408 9.55169 15.5225 10.9051 16.5241 11.536C17.5258 12.1668 18.8681 11.836 19.5223 10.7973Z" fill="#010202"/>
<path d="M17.2537 28.1984L15.8777 30.3682C15.8248 30.4741 15.666 30.5005 15.5602 30.4476L0.318734 20.8158C0.212891 20.7629 0.18643 20.6042 0.239352 20.4983L1.61532 18.3285C1.64178 18.2756 1.72116 18.2227 1.77408 18.2227C2.54145 18.1698 4.81708 16.1587 5.55798 14.968L8.25699 11.7133C10.3739 8.35277 14.8722 7.37372 18.1004 9.64935C21.1434 11.7927 21.8314 16.0529 19.8468 19.2546L18.021 22.9592C17.2537 24.1764 16.9097 27.2458 17.2537 27.9867C17.3066 28.0397 17.2801 28.119 17.2537 28.1984Z" fill="#010202"/>
<path d="M8.7557 27.0842C9.25412 26.2928 9.00655 25.2409 8.20274 24.7346C7.39893 24.2284 6.34326 24.4597 5.84485 25.2511C5.34643 26.0426 5.594 27.0945 6.39781 27.6007C7.20162 28.1069 8.25728 27.8757 8.7557 27.0842Z" fill="#010202"/>
<g filter="url(#filter0_d)">
<circle cx="24.949" cy="9.40023" r="8.87429" fill="#FF3030"/>
<circle cx="24.949" cy="9.40023" r="8.37429" stroke="white"/>
</g>
<path d="M27.4186 6.65946H23.8015V8.58137C23.9671 8.38702 24.1938 8.23226 24.4817 8.11709C24.7769 7.99472 25.1008 7.93354 25.4535 7.93354C25.979 7.93354 26.4144 8.04871 26.76 8.27905C27.1127 8.50219 27.3718 8.80452 27.5374 9.18602C27.7101 9.56033 27.7965 9.97782 27.7965 10.4385C27.7965 11.2519 27.5662 11.9033 27.1055 12.3928C26.652 12.8823 26.0005 13.127 25.1512 13.127C24.5969 13.127 24.1146 13.0298 23.7043 12.8355C23.294 12.6339 22.9737 12.3568 22.7434 12.0041C22.513 11.6442 22.3871 11.2267 22.3655 10.7516H23.8447C23.9023 11.0755 24.0354 11.3347 24.2442 11.529C24.4529 11.7162 24.7301 11.8098 25.0756 11.8098C25.4931 11.8098 25.8026 11.6838 26.0041 11.4319C26.2129 11.1727 26.3173 10.8308 26.3173 10.4061C26.3173 10.003 26.2093 9.68989 25.9934 9.46675C25.7774 9.2436 25.4715 9.13203 25.0756 9.13203C24.7877 9.13203 24.5429 9.19682 24.3414 9.32638C24.1398 9.44875 23.9923 9.61431 23.8987 9.82306H22.4195V5.3206H27.4186V6.65946Z" fill="white"/>
<defs>
<filter id="filter0_d" x="12.0747" y="0.525942" width="25.7486" height="25.7486" filterUnits="userSpaceOnUse" color-interpolation-filters="sRGB">
<feFlood flood-opacity="0" result="BackgroundImageFix"/>
<feColorMatrix in="SourceAlpha" type="matrix" values="0 0 0 0 0 0 0 0 0 0 0 0 0 0 0 0 0 0 127 0"/>
<feOffset dy="4"/>
<feGaussianBlur stdDeviation="2"/>
<feColorMatrix type="matrix" values="0 0 0 0 0 0 0 0 0 0 0 0 0 0 0 0 0 0 0.25 0"/>
<feBlend mode="normal" in2="BackgroundImageFix" result="effect1_dropShadow"/>
<feBlend mode="normal" in="SourceGraphic" in2="effect1_dropShadow" result="shape"/>
</filter>
</defs>
</svg>
