<svg width="25" height="23" viewBox="0 0 25 23" fill="none" xmlns="http://www.w3.org/2000/svg">
<path d="M7.49259 9.03495L3.81894 22.1551C3.66899 22.6799 3.1067 23.0173 2.54441 22.8674C2.0196 22.7174 1.68222 22.1551 1.83217 21.5928L5.50582 8.47266L7.49259 9.03495Z" fill="#010202"/>
<path d="M3.43439 0.808673L1.5918 7.41689L11.3777 10.1455L13.2203 3.53732L3.43439 0.808673Z" fill="#010202"/>
<path d="M13.3567 3.09632L11.2725 10.5712L12.2113 10.833L14.2956 3.35811L13.3567 3.09632Z" fill="#010202"/>
<path d="M2.64674 0.0951539L0.5625 7.57002L1.50137 7.83181L3.58561 0.356943L2.64674 0.0951539Z" fill="#010202"/>
<path d="M23.7243 20.0934H13.7529V21.2555H23.7243V20.0934Z" fill="#010202"/>
<path d="M24.7363 21.2555H12.7407V22.9048H24.7363V21.2555Z" fill="#010202"/>
</svg>
